<svg width="1920" height="1022" viewBox="0 0 1920 1022" fill="none" xmlns="http://www.w3.org/2000/svg">
<rect x="-3" width="1927" height="1288" rx="6" fill="#1CB9A9"/>
<path d="M801.644 876.623H484.553C454.62 876.623 430.267 852.276 430.267 822.354V560.269C430.255 549.572 426 539.317 418.434 531.753C410.869 524.189 400.611 519.935 389.911 519.924H-3V506H389.911C419.844 506 444.194 530.344 444.194 560.269V822.354C444.208 833.05 448.465 843.304 456.031 850.867C463.597 858.429 473.854 862.684 484.553 862.696H801.644V876.623Z" fill="#16A798"/>
<path d="M829.806 892.286H802.056C798.874 892.286 795.823 891.023 793.573 888.774C791.323 886.525 790.06 883.474 790.06 880.294V859.025C790.057 857.289 790.433 855.574 791.161 853.998C791.889 852.423 792.951 851.024 794.274 849.9C796.44 848.046 799.2 847.028 802.052 847.032H829.803L829.806 892.286Z" fill="#1FC7B6"/>
<path d="M894.499 915.927H839.065C834.953 915.926 831.011 914.293 828.104 911.386C825.197 908.48 823.564 904.538 823.564 900.428V838.891C823.565 834.781 825.199 830.84 828.105 827.934C831.012 825.028 834.954 823.395 839.065 823.395H894.499V915.927Z" fill="#1FC7B6"/>
<path d="M894.495 817.883V921.435C894.495 922.559 895.406 923.47 896.53 923.47H904.664C905.788 923.47 906.699 922.559 906.699 921.435V817.883C906.699 816.76 905.788 815.849 904.664 815.849H896.53C895.406 815.849 894.495 816.76 894.495 817.883Z" fill="#16A798"/>
<path d="M906.702 855.78V840.009H944.427C945.463 840.009 946.489 840.213 947.445 840.609C948.402 841.006 949.272 841.587 950.004 842.319C950.736 843.051 951.317 843.921 951.713 844.878C952.109 845.835 952.313 846.86 952.313 847.896C952.313 849.987 951.482 851.992 950.003 853.47C948.524 854.949 946.518 855.78 944.427 855.78H906.702Z" fill="#1FC7B6"/>
<path d="M952.315 891.433C952.315 893.524 951.485 895.529 950.006 897.008C948.527 898.486 946.521 899.317 944.43 899.317H906.705V883.546H944.416C946.508 883.546 948.514 884.377 949.992 885.855C951.471 887.333 952.302 889.339 952.302 891.43L952.315 891.433Z" fill="#1FC7B6"/>
<path d="M894.495 915.924V823.391H890.027V915.924H894.495Z" fill="#129E90"/>
<path d="M871.069 915.927H839.065C834.953 915.926 831.011 914.293 828.104 911.386C825.197 908.48 823.564 904.538 823.564 900.428V857.228C823.564 900.853 871.069 915.927 871.069 915.927Z" fill="#16A798"/>
<path d="M823.564 892.286V847.036H820.666V892.286H823.564Z" fill="#129E90"/>
<path d="M912.221 855.773V840.002H906.698V855.773H912.221Z" fill="#129E90"/>
<path d="M912.225 899.314V883.543H906.702V899.314H912.225Z" fill="#129E90"/>
<path d="M823.564 892.286H802.056C798.874 892.286 795.823 891.023 793.573 888.774C791.323 886.525 790.06 883.474 790.06 880.293V859.025C790.057 857.289 790.433 855.574 791.161 853.998C791.889 852.422 792.951 851.024 794.274 849.9C790.207 883.051 823.56 888.114 823.56 888.114L823.564 892.286Z" fill="#16A798"/>
<path d="M1539 1335H1525.07V916.968C1525.06 906.271 1520.81 896.016 1513.24 888.452C1505.67 880.889 1495.42 876.634 1484.72 876.623H1181.22V862.696H1484.72C1514.65 862.696 1539 887.043 1539 916.968V1335Z" fill="#16A798"/>
<path d="M1150.8 892.286H1178.55C1181.73 892.286 1184.78 891.023 1187.03 888.774C1189.28 886.525 1190.55 883.474 1190.55 880.294V859.025C1190.55 857.289 1190.17 855.574 1189.45 853.998C1188.72 852.423 1187.66 851.024 1186.33 849.9C1184.17 848.046 1181.41 847.028 1178.55 847.032H1150.8L1150.8 892.286Z" fill="#1FC7B6"/>
<path d="M1086.11 915.927H1141.54C1145.65 915.926 1149.6 914.293 1152.5 911.386C1155.41 908.48 1157.04 904.538 1157.04 900.428V838.891C1157.04 834.781 1155.41 830.84 1152.5 827.934C1149.59 825.028 1145.65 823.395 1141.54 823.395H1086.11V915.927Z" fill="#1FC7B6"/>
<path d="M1073.9 817.883V921.435C1073.9 922.559 1074.82 923.47 1075.94 923.47H1084.07C1085.2 923.47 1086.11 922.559 1086.11 921.435V817.883C1086.11 816.76 1085.2 815.849 1084.07 815.849H1075.94C1074.82 815.849 1073.9 816.76 1073.9 817.883Z" fill="#16A798"/>
<path d="M1090.58 915.927V823.395H1086.11V915.927H1090.58Z" fill="#129E90"/>
<path d="M1109.54 915.927H1141.54C1145.65 915.926 1149.6 914.293 1152.5 911.386C1155.41 908.48 1157.04 904.538 1157.04 900.428V857.228C1157.04 900.853 1109.54 915.927 1109.54 915.927Z" fill="#16A798"/>
<path d="M1159.94 892.283V847.032H1157.04V892.283H1159.94Z" fill="#129E90"/>
<path d="M1157.04 892.286H1178.55C1181.73 892.286 1184.78 891.023 1187.03 888.774C1189.28 886.525 1190.55 883.474 1190.55 880.293V859.025C1190.55 857.289 1190.17 855.574 1189.45 853.998C1188.72 852.422 1187.66 851.024 1186.33 849.9C1190.4 883.051 1157.05 888.114 1157.05 888.114L1157.04 892.286Z" fill="#16A798"/>
</svg>
