<svg width="43" height="46" viewBox="0 0 43 46" fill="none" xmlns="http://www.w3.org/2000/svg">
<g clip-path="url(#clip0_80_1214)">
<path d="M41.9248 35.6047C40.6689 34.301 39.3788 33.0245 38.0887 31.7549C37.9877 31.6601 37.9085 31.5444 37.8566 31.4159C37.8047 31.2875 37.7814 31.1493 37.7883 31.0109C37.7883 23.7299 37.7883 16.4284 37.7883 9.10644C37.8014 8.64767 37.6348 8.20192 37.3241 7.86411C35.249 5.47503 33.1808 3.0814 31.1193 0.683223C30.9034 0.474423 30.6755 0.278411 30.4368 0.0961914H3.48793C3.42462 0.131394 3.35836 0.161081 3.28995 0.184927C2.37895 0.366496 1.56018 0.861037 0.975491 1.58286C0.390802 2.30468 0.0770399 3.2083 0.0885844 4.13715C0.0885844 4.89483 0.0885844 5.65251 0.0885844 6.41019C0.0885844 7.39995 0.0885844 16.9494 0.0885844 20.7447V28.5672C0.0885844 32.9426 0.0885844 37.3249 0.0885844 41.7003C0.0654861 42.4864 0.282416 43.2608 0.710435 43.9205C1.13845 44.5802 1.75726 45.0939 2.4845 45.3932C2.81003 45.5275 3.14274 45.6437 3.4811 45.7413H34.3002C34.5187 45.6798 34.7303 45.6321 34.9419 45.5638C35.7502 45.3189 36.4603 44.8245 36.9704 44.1513C37.4805 43.4782 37.7644 42.6608 37.7815 41.8164C37.7815 41.6867 37.7815 41.557 37.7815 41.5365C38.4591 41.6373 39.1452 41.6693 39.8293 41.6321C40.4878 41.5289 41.1032 41.2395 41.6027 40.798C42.1022 40.3566 42.465 39.7815 42.6484 39.1406C42.8917 38.5459 42.9529 37.8922 42.824 37.2627C42.6952 36.6331 42.3822 36.0561 41.9248 35.6047ZM31.1125 3.56377L31.2149 3.51599L34.9487 7.85046H31.5357C31.2968 7.85046 31.1398 7.80951 31.1398 7.51599C31.1193 6.19858 31.1125 4.88118 31.1125 3.56377ZM36.0272 41.3795C35.9316 43.045 35.1262 43.9187 33.447 43.9187C23.7814 43.9187 14.1159 43.9187 4.45037 43.9187C4.10471 43.9428 3.75789 43.8927 3.43319 43.7717C3.10849 43.6508 2.81344 43.4618 2.56778 43.2174C2.32213 42.973 2.13156 42.679 2.00888 42.3549C1.88621 42.0309 1.83427 41.6843 1.85652 41.3385C1.89748 34.0826 1.85652 26.8198 1.85652 19.557V4.36241C1.81934 4.02767 1.85817 3.68885 1.97009 3.3712C2.08202 3.05354 2.26415 2.76523 2.50295 2.52774C2.74176 2.29025 3.03106 2.10969 3.34932 1.99952C3.66759 1.88934 4.00665 1.85239 4.34118 1.89141H29.3036V7.50917C29.2797 7.79638 29.3188 8.08535 29.4182 8.3559C29.5175 8.62644 29.6747 8.87203 29.8788 9.0755C30.0829 9.27897 30.329 9.43541 30.5999 9.53389C30.8708 9.63238 31.1598 9.67053 31.447 9.64568H35.9794V29.5979C35.9185 29.5577 35.8614 29.512 35.8088 29.4614C33.8634 27.5228 31.9248 25.5774 29.9726 23.6389C29.8994 23.58 29.8525 23.4944 29.8423 23.401C29.832 23.3076 29.8593 23.2139 29.918 23.1406C30.9369 21.0462 31.3235 18.7003 31.0306 16.3897C30.825 14.823 30.3113 13.3124 29.519 11.9451C28.7268 10.5779 27.6717 9.38095 26.4147 8.42341C25.1576 7.46587 23.7235 6.76665 22.1949 6.36606C20.6663 5.96546 19.0735 5.87143 17.5084 6.08937C15.9486 6.31311 14.4484 6.84326 13.0943 7.64929C11.7403 8.45532 10.559 9.5213 9.61874 10.7858C8.67844 12.0503 7.99765 13.4884 7.61554 15.0172C7.23343 16.546 7.15758 18.1353 7.39235 19.6935C7.667 21.5381 8.37022 23.2927 9.4456 24.8164C10.521 26.3401 11.9386 27.5905 13.5846 28.4673C15.2306 29.344 17.0592 29.8228 18.9237 29.865C20.7882 29.9073 22.6366 29.5119 24.3207 28.7105C24.4287 28.64 24.5595 28.6135 24.6864 28.6363C24.8133 28.6592 24.9267 28.7297 25.0033 28.8334C28.2797 32.1235 31.5426 35.4341 34.8736 38.6764C35.2678 39.0021 35.5782 39.4175 35.7789 39.8878C35.9796 40.358 36.0648 40.8696 36.0272 41.3795ZM19.8907 21.0587C21.2019 21.1823 22.4558 21.6562 23.521 22.4307C24.5862 23.2053 25.4235 24.2521 25.9453 25.4614C24.1685 27.061 21.8819 27.9787 19.4922 28.0512C17.1025 28.1237 14.7646 27.3463 12.8941 25.8573C12.1432 25.243 12.075 25.4546 12.6825 24.5399C13.4094 23.316 14.4806 22.3332 15.7625 21.7141C17.0443 21.0951 18.4801 20.8671 19.8907 21.0587ZM15.5221 15.6866C15.5166 14.75 15.883 13.8496 16.5408 13.1828C17.1986 12.5161 18.094 12.1375 19.0306 12.1303C19.4951 12.1258 19.9559 12.2134 20.3864 12.3881C20.8168 12.5627 21.2084 12.8209 21.5384 13.1478C21.8685 13.4747 22.1305 13.8637 22.3093 14.2925C22.4881 14.7212 22.5801 15.1812 22.5801 15.6457C22.5837 16.1105 22.495 16.5713 22.319 17.0015C22.143 17.4317 21.8833 17.8226 21.555 18.1516C21.2267 18.4805 20.8362 18.741 20.4064 18.9178C19.9765 19.0946 19.5159 19.1843 19.0511 19.1815C18.1163 19.187 17.2175 18.8213 16.5521 18.1648C15.8866 17.5083 15.5088 16.6146 15.5016 15.6798L15.5221 15.6866ZM22.4163 19.7822C23.1367 19.1929 23.6907 18.4257 24.0235 17.5565C24.3563 16.6874 24.4564 15.7463 24.3139 14.8266C24.1305 13.5082 23.4368 12.3144 22.3821 11.5023C21.3303 10.6561 19.9959 10.2417 18.6497 10.3431C17.3035 10.4445 16.0462 11.0542 15.133 12.0484C14.6522 12.5761 14.2819 13.1947 14.0441 13.8678C13.8063 14.5409 13.7057 15.2549 13.7484 15.9675C13.791 16.6801 13.9759 17.3769 14.2923 18.0169C14.6087 18.6568 15.05 19.2269 15.5903 19.6935C14.6942 20.2158 13.8323 20.7949 13.0101 21.4273C12.2703 22.1365 11.5729 22.8887 10.9214 23.6798C8.47767 20.6218 8.02036 14.8061 11.9726 10.772C13.8348 8.87443 16.3691 7.78626 19.0274 7.74283C21.6857 7.6994 24.2542 8.7042 26.1774 10.5399C27.9914 12.253 29.1041 14.579 29.2996 17.0664C29.4951 19.5538 28.7594 22.0251 27.2354 24.0006C26.1572 22.0923 24.4558 20.6125 22.4163 19.8095V19.7822ZM28.935 25.243L31.993 28.2942L29.5835 30.6969L26.5323 27.6252L28.935 25.243ZM40.976 38.4989C40.8841 38.8424 40.6969 39.1529 40.436 39.3945C40.1751 39.6361 39.8511 39.7989 39.5016 39.8641C39.2194 39.897 38.9335 39.8586 38.67 39.7525C38.4064 39.6464 38.1737 39.4759 37.9931 39.2566L35.761 37.0177L31.2013 32.4512C31.092 32.3488 30.9965 32.2396 30.9214 32.1576L33.4265 29.6457C33.4702 29.6789 33.5113 29.7154 33.5494 29.7549L40.5391 36.7583C40.7834 36.9734 40.9561 37.258 41.0342 37.5739C41.1123 37.8899 41.092 38.2222 40.976 38.5262V38.4989Z" fill="#F49158"/>
<path d="M19.1602 34.7584H14.266C13.5834 34.7584 13.1875 34.4307 13.1875 33.8573C13.1875 33.284 13.5834 32.97 14.2797 32.97H24.1158C24.7984 32.97 25.2148 33.3249 25.208 33.871C25.2012 34.4171 24.7848 34.7515 24.1022 34.7584H19.1602Z" fill="#F49158"/>
<path d="M12.7303 37.5706H15.0443C15.7269 37.5706 16.0819 37.9255 16.075 38.4784C16.0682 39.0313 15.6791 39.3658 15.0238 39.3658C13.4675 39.3658 11.9089 39.3658 10.3481 39.3658C10.2187 39.383 10.0872 39.373 9.96201 39.3363C9.83679 39.2997 9.72061 39.2373 9.62096 39.153C9.52131 39.0688 9.4404 38.9647 9.3834 38.8473C9.32641 38.73 9.29461 38.602 9.29004 38.4716C9.29004 37.9392 9.68592 37.5774 10.3276 37.5706H12.7303Z" fill="#F49158"/>
<path d="M25.7001 37.5706H28.055C28.7376 37.5706 29.0926 37.9255 29.0858 38.4784C29.0789 39.0313 28.6898 39.3658 28.0277 39.3658C26.4714 39.3658 24.9151 39.3658 23.3588 39.3658C23.2291 39.383 23.0973 39.3729 22.9717 39.3364C22.8461 39.2998 22.7295 39.2374 22.6293 39.1533C22.5292 39.0692 22.4476 38.9651 22.3899 38.8478C22.3321 38.7304 22.2994 38.6023 22.2939 38.4716C22.2939 37.9392 22.6898 37.5774 23.3383 37.5706H25.7001Z" fill="#F49158"/>
<path d="M18.2871 38.4513C18.2897 38.3327 18.3159 38.2158 18.3642 38.1074C18.4124 37.999 18.4818 37.9013 18.5682 37.82C18.6546 37.7386 18.7564 37.6753 18.8675 37.6337C18.9786 37.5921 19.0969 37.573 19.2154 37.5776C19.334 37.5773 19.4514 37.6014 19.5603 37.6484C19.6692 37.6953 19.7673 37.7641 19.8486 37.8505C19.9298 37.9368 19.9925 38.039 20.0327 38.1505C20.0729 38.2621 20.0898 38.3807 20.0823 38.4991C20.0752 38.7315 19.9779 38.952 19.8109 39.1138C19.644 39.2756 19.4206 39.3661 19.1881 39.366C18.949 39.359 18.7219 39.2599 18.554 39.0895C18.3861 38.9191 18.2905 38.6905 18.2871 38.4513Z" fill="#F49158"/>
</g>
<defs>
<clipPath id="clip0_80_1214">
<rect width="42.8123" height="45.611" fill="white" transform="translate(0.0820312 0.0961914)"/>
</clipPath>
</defs>
</svg>
