<svg width="43" height="46" viewBox="0 0 43 46" fill="none" xmlns="http://www.w3.org/2000/svg">
<g clip-path="url(#clip0_80_1159)">
<path d="M41.9248 35.6472C40.6689 34.3435 39.3788 33.067 38.0887 31.7974C37.9877 31.7026 37.9085 31.5869 37.8566 31.4584C37.8047 31.33 37.7814 31.1917 37.7883 31.0534C37.7883 23.7724 37.7883 16.4709 37.7883 9.14892C37.8014 8.69015 37.6348 8.2444 37.3241 7.90659C35.249 5.51751 33.1808 3.12388 31.1193 0.725703C30.9034 0.516903 30.6755 0.320892 30.4368 0.138672H3.48793C3.42462 0.173874 3.35836 0.203561 3.28995 0.227407C2.37895 0.408976 1.56018 0.903517 0.975491 1.62534C0.390802 2.34716 0.0770399 3.25078 0.0885844 4.17963C0.0885844 4.93731 0.0885844 5.69499 0.0885844 6.45267C0.0885844 7.44243 0.0885844 16.9919 0.0885844 20.7871V28.6097C0.0885844 32.9851 0.0885844 37.3674 0.0885844 41.7428C0.0654861 42.5289 0.282416 43.3033 0.710435 43.963C1.13845 44.6227 1.75726 45.1364 2.4845 45.4356C2.81003 45.5699 3.14274 45.6862 3.4811 45.7838H34.3002C34.5187 45.7223 34.7303 45.6745 34.9419 45.6063C35.7502 45.3614 36.4603 44.867 36.9704 44.1938C37.4805 43.5206 37.7644 42.7033 37.7815 41.8588C37.7815 41.7291 37.7815 41.5994 37.7815 41.579C38.4591 41.6798 39.1452 41.7118 39.8293 41.6745C40.4878 41.5714 41.1032 41.282 41.6027 40.8405C42.1022 40.3991 42.465 39.824 42.6484 39.1831C42.8917 38.5883 42.9529 37.9347 42.824 37.3052C42.6952 36.6756 42.3822 36.0986 41.9248 35.6472ZM31.1125 3.60625L31.2149 3.55847L34.9487 7.89294H31.5357C31.2968 7.89294 31.1398 7.85199 31.1398 7.55847C31.1193 6.24106 31.1125 4.92366 31.1125 3.60625ZM36.0272 41.422C35.9316 43.0875 35.1262 43.9612 33.447 43.9612C23.7814 43.9612 14.1159 43.9612 4.45037 43.9612C4.10471 43.9853 3.75789 43.9352 3.43319 43.8142C3.10849 43.6933 2.81344 43.5042 2.56778 43.2599C2.32213 43.0155 2.13156 42.7214 2.00888 42.3974C1.88621 42.0733 1.83427 41.7268 1.85652 41.381C1.89748 34.125 1.85652 26.8622 1.85652 19.5994V4.40489C1.81934 4.07015 1.85817 3.73133 1.97009 3.41368C2.08202 3.09602 2.26415 2.80772 2.50295 2.57022C2.74176 2.33273 3.03106 2.15217 3.34932 2.042C3.66759 1.93182 4.00665 1.89487 4.34118 1.93389H29.3036V7.55165C29.2797 7.83886 29.3188 8.12783 29.4182 8.39838C29.5175 8.66892 29.6747 8.91451 29.8788 9.11798C30.0829 9.32145 30.329 9.47789 30.5999 9.57637C30.8708 9.67486 31.1598 9.71301 31.447 9.68816H35.9794V29.6404C35.9185 29.6002 35.8614 29.5545 35.8088 29.5039C33.8634 27.5653 31.9248 25.6199 29.9726 23.6813C29.8994 23.6224 29.8525 23.5369 29.8423 23.4435C29.832 23.3501 29.8593 23.2564 29.918 23.1831C30.9369 21.0887 31.3235 18.7428 31.0306 16.4322C30.825 14.8654 30.3113 13.3549 29.519 11.9876C28.7268 10.6203 27.6717 9.42343 26.4147 8.46589C25.1576 7.50836 23.7235 6.80913 22.1949 6.40854C20.6663 6.00794 19.0735 5.91391 17.5084 6.13185C15.9486 6.35559 14.4484 6.88574 13.0943 7.69177C11.7403 8.4978 10.559 9.56378 9.61874 10.8283C8.67844 12.0928 7.99765 13.5309 7.61554 15.0597C7.23343 16.5885 7.15758 18.1777 7.39235 19.736C7.667 21.5806 8.37022 23.3352 9.4456 24.8589C10.521 26.3826 11.9386 27.633 13.5846 28.5098C15.2306 29.3865 17.0592 29.8652 18.9237 29.9075C20.7882 29.9497 22.6366 29.5543 24.3207 28.753C24.4287 28.6825 24.5595 28.6559 24.6864 28.6788C24.8133 28.7016 24.9267 28.7722 25.0033 28.8759C28.2797 32.166 31.5426 35.4766 34.8736 38.7189C35.2678 39.0446 35.5782 39.46 35.7789 39.9302C35.9796 40.4005 36.0648 40.912 36.0272 41.422ZM19.8907 21.1011C21.2019 21.2247 22.4558 21.6986 23.521 22.4732C24.5862 23.2478 25.4235 24.2946 25.9453 25.5039C24.1685 27.1035 21.8819 28.0212 19.4922 28.0937C17.1025 28.1662 14.7646 27.3888 12.8941 25.8998C12.1432 25.2854 12.075 25.497 12.6825 24.5824C13.4094 23.3585 14.4806 22.3757 15.7625 21.7566C17.0443 21.1375 18.4801 20.9096 19.8907 21.1011ZM15.5221 15.7291C15.5166 14.7925 15.883 13.892 16.5408 13.2253C17.1986 12.5585 18.094 12.18 19.0306 12.1728C19.4951 12.1683 19.9559 12.2559 20.3864 12.4305C20.8168 12.6052 21.2084 12.8634 21.5384 13.1903C21.8685 13.5172 22.1305 13.9062 22.3093 14.335C22.4881 14.7637 22.5801 15.2236 22.5801 15.6882C22.5837 16.1529 22.495 16.6138 22.319 17.044C22.143 17.4742 21.8833 17.8651 21.555 18.194C21.2267 18.523 20.8362 18.7835 20.4064 18.9603C19.9765 19.1371 19.5159 19.2267 19.0511 19.224C18.1163 19.2295 17.2175 18.8638 16.5521 18.2073C15.8866 17.5508 15.5088 16.6571 15.5016 15.7223L15.5221 15.7291ZM22.4163 19.8247C23.1367 19.2354 23.6907 18.4682 24.0235 17.599C24.3563 16.7298 24.4564 15.7888 24.3139 14.8691C24.1305 13.5506 23.4368 12.3569 22.3821 11.5448C21.3303 10.6986 19.9959 10.2842 18.6497 10.3856C17.3035 10.487 16.0462 11.0967 15.133 12.0909C14.6522 12.6186 14.2819 13.2372 14.0441 13.9103C13.8063 14.5834 13.7057 15.2973 13.7484 16.0099C13.791 16.7225 13.9759 17.4194 14.2923 18.0593C14.6087 18.6993 15.05 19.2694 15.5903 19.736C14.6942 20.2583 13.8323 20.8374 13.0101 21.4697C12.2703 22.179 11.5729 22.9312 10.9214 23.7223C8.47767 20.6643 8.02036 14.8486 11.9726 10.8144C13.8348 8.91691 16.3691 7.82874 19.0274 7.78531C21.6857 7.74188 24.2542 8.74668 26.1774 10.5824C27.9914 12.2955 29.1041 14.6215 29.2996 17.1089C29.4951 19.5963 28.7594 22.0676 27.2354 24.0431C26.1572 22.1348 24.4558 20.655 22.4163 19.852V19.8247ZM28.935 25.2854L31.993 28.3366L29.5835 30.7394L26.5323 27.6677L28.935 25.2854ZM40.976 38.5414C40.8841 38.8849 40.6969 39.1954 40.436 39.437C40.1751 39.6786 39.8511 39.8414 39.5016 39.9066C39.2194 39.9395 38.9335 39.9011 38.67 39.795C38.4064 39.6889 38.1737 39.5184 37.9931 39.2991L35.761 37.0602L31.2013 32.4936C31.092 32.3913 30.9965 32.282 30.9214 32.2001L33.4265 29.6882C33.4702 29.7214 33.5113 29.7579 33.5494 29.7974L40.5391 36.8008C40.7834 37.0159 40.9561 37.3005 41.0342 37.6164C41.1123 37.9324 41.092 38.2646 40.976 38.5687V38.5414Z" fill="#1CB9A9"/>
<path d="M19.1602 34.8008H14.266C13.5834 34.8008 13.1875 34.4732 13.1875 33.8998C13.1875 33.3264 13.5834 33.0125 14.2797 33.0125H24.1158C24.7984 33.0125 25.2148 33.3674 25.208 33.9135C25.2012 34.4596 24.7848 34.794 24.1022 34.8008H19.1602Z" fill="#1CB9A9"/>
<path d="M12.7303 37.613H15.0443C15.7269 37.613 16.0819 37.968 16.075 38.5209C16.0682 39.0738 15.6791 39.4083 15.0238 39.4083C13.4675 39.4083 11.9089 39.4083 10.3481 39.4083C10.2187 39.4255 10.0872 39.4154 9.96201 39.3788C9.83679 39.3422 9.72061 39.2797 9.62096 39.1955C9.52131 39.1113 9.4404 39.0072 9.3834 38.8898C9.32641 38.7724 9.29461 38.6444 9.29004 38.5141C9.29004 37.9816 9.68592 37.6199 10.3276 37.613H12.7303Z" fill="#1CB9A9"/>
<path d="M25.7001 37.613H28.055C28.7376 37.613 29.0926 37.968 29.0858 38.5209C29.0789 39.0738 28.6898 39.4083 28.0277 39.4083C26.4714 39.4083 24.9151 39.4083 23.3588 39.4083C23.2291 39.4254 23.0973 39.4154 22.9717 39.3788C22.8461 39.3423 22.7295 39.2799 22.6293 39.1958C22.5292 39.1117 22.4476 39.0076 22.3899 38.8902C22.3321 38.7729 22.2994 38.6448 22.2939 38.5141C22.2939 37.9816 22.6898 37.6199 23.3383 37.613H25.7001Z" fill="#1CB9A9"/>
<path d="M18.2871 38.4938C18.2897 38.3751 18.3159 38.2582 18.3642 38.1498C18.4124 38.0415 18.4818 37.9438 18.5682 37.8624C18.6546 37.7811 18.7564 37.7178 18.8675 37.6762C18.9786 37.6346 19.0969 37.6155 19.2154 37.62C19.334 37.6198 19.4514 37.6439 19.5603 37.6908C19.6692 37.7378 19.7673 37.8066 19.8486 37.8929C19.9298 37.9793 19.9925 38.0814 20.0327 38.193C20.0729 38.3046 20.0898 38.4232 20.0823 38.5416C20.0752 38.7739 19.9779 38.9944 19.8109 39.1563C19.644 39.3181 19.4206 39.4086 19.1881 39.4084C18.949 39.4014 18.7219 39.3024 18.554 39.132C18.3861 38.9616 18.2905 38.733 18.2871 38.4938Z" fill="#1CB9A9"/>
</g>
<defs>
<clipPath id="clip0_80_1159">
<rect width="42.8123" height="45.611" fill="white" transform="translate(0.0820312 0.138672)"/>
</clipPath>
</defs>
</svg>
