<?xml version="1.0" encoding="utf-8"?>
<!-- Generator: Adobe Illustrator 26.0.2, SVG Export Plug-In . SVG Version: 6.00 Build 0)  -->
<svg version="1.1" id="Layer_1" xmlns="http://www.w3.org/2000/svg" xmlns:xlink="http://www.w3.org/1999/xlink" x="0px" y="0px"
	 viewBox="0 0 50 57.1" style="enable-background:new 0 0 50 57.1;" xml:space="preserve">
<style type="text/css">
	.st0{opacity:0.15;}
	.st1{fill:#FFFFFF;}
	.st2{fill:#1CB9A9;}
	.st3{fill:#F49158;}
</style>
<path class="st2" d="M27.6,14.7c0,0.9-0.3,1.7-0.8,2.5c-0.5,0.7-1.2,1.3-2,1.6s-1.7,0.4-2.6,0.3c-0.9-0.2-1.7-0.6-2.3-1.2
	s-1-1.4-1.2-2.3c-0.2-0.9-0.1-1.8,0.3-2.6c0.3-0.8,0.9-1.5,1.6-2s1.6-0.8,2.5-0.8c0.6,0,1.2,0.1,1.7,0.3s1,0.6,1.4,1s0.7,0.9,1,1.4
	C27.5,13.5,27.6,14.1,27.6,14.7L27.6,14.7z"/>
<path class="st2" d="M27.6,29.5c0,0.9-0.3,1.7-0.8,2.5c-0.5,0.7-1.2,1.3-2,1.6s-1.7,0.4-2.6,0.3c-0.9-0.2-1.7-0.6-2.3-1.2
	s-1-1.4-1.2-2.3c-0.2-0.9-0.1-1.8,0.3-2.6c0.3-0.8,0.9-1.5,1.6-2s1.6-0.8,2.5-0.8c1.2,0,2.3,0.5,3.1,1.3
	C27.1,27.2,27.6,28.3,27.6,29.5z"/>
<path class="st2" d="M27.6,44.4c0,0.9-0.3,1.7-0.8,2.5c-0.5,0.7-1.2,1.3-2,1.6s-1.7,0.4-2.6,0.3c-0.9-0.2-1.7-0.6-2.3-1.2
	s-1-1.4-1.2-2.3c-0.2-0.9-0.1-1.8,0.3-2.6c0.3-0.8,0.9-1.5,1.6-2s1.6-0.8,2.5-0.8c1.2,0,2.3,0.5,3.1,1.3S27.6,43.2,27.6,44.4
	L27.6,44.4z"/>
</svg>
