<?xml version="1.0" encoding="utf-8"?>
<!-- Generator: Adobe Illustrator 26.0.2, SVG Export Plug-In . SVG Version: 6.00 Build 0)  -->
<svg version="1.1" id="Layer_1" xmlns="http://www.w3.org/2000/svg" xmlns:xlink="http://www.w3.org/1999/xlink" x="0px" y="0px"
	 viewBox="0 0 256.1 185.5" style="enable-background:new 0 0 256.1 185.5;" xml:space="preserve">
<style type="text/css">
	.st0{opacity:0.15;}
	.st1{fill:#FFFFFF;}
	.st2{fill:#1CB9A9;}
	.st3{fill:#F49158;}
</style>
<g>
	<path class="st2" d="M236.5,141.2h-3.6c0-28.2-11-55.2-30.7-75.2c-19.7-19.9-46.3-31.1-74.1-31.1c-28,0-54.6,11.2-74.3,31.1
		c-19.7,20-30.7,47-30.7,75.2h-3.6c0-29.2,11.4-57.2,31.8-77.8S99.2,31.2,128,31.2s56.4,11.6,76.7,32.2S236.5,112,236.5,141.2
		L236.5,141.2z"/>
	<path class="st2" d="M22,154.2c-1.5,0-2.9-0.4-4.2-1.3c-1.3-0.9-2.2-2-2.8-3.4c-0.5-1.3-0.6-2.8-0.4-4.3c0.3-1.5,1-2.8,2.1-3.8
		c1-1,2.4-1.8,3.8-2.1c1.5-0.3,3-0.1,4.3,0.4c1.4,0.6,2.5,1.5,3.4,2.8c0.8,1.2,1.3,2.7,1.3,4.2c0,2-0.8,3.9-2.2,5.3
		C25.9,153.4,24,154.2,22,154.2L22,154.2z M22,142.8c-0.8,0-1.5,0.2-2.2,0.6c-0.6,0.4-1.2,1-1.4,1.8c-0.3,0.7-0.4,1.5-0.2,2.3
		c0.2,0.8,0.5,1.5,1.1,2c0.5,0.5,1.2,0.9,2,1.1c0.8,0.1,1.5,0.1,2.3-0.2c0.7-0.3,1.3-0.8,1.8-1.4c0.4-0.6,0.7-1.4,0.6-2.2
		c0-0.5-0.1-1-0.3-1.5c-0.2-0.5-0.5-0.9-0.8-1.3c-0.4-0.4-0.8-0.6-1.3-0.8C23.1,143,22.5,142.8,22,142.8z"/>
</g>
</svg>
