<svg xmlns="http://www.w3.org/2000/svg" xmlns:xlink="http://www.w3.org/1999/xlink" viewBox="0 0 66 67" enable-background="new 0 0 66 67" xml:space="preserve">
    <style type="text/css">
	.icon-boundary {
		fill: #F49158;
	}
	</style>

	<g clip-path="url(#SVGID_2_)">
		<path class="icon-boundary" d="M61.51,46.75c-0.117-0.091-0.201-0.217-0.24-0.359c-0.039-0.142-0.033-0.293,0.02-0.431
			c0.395-1.205,0.547-2.476,0.449-3.739s-0.443-2.496-1.018-3.626s-1.365-2.136-2.328-2.96c-0.963-0.825-2.078-1.451-3.283-1.845
			c-0.154-0.029-0.291-0.118-0.381-0.247s-0.125-0.288-0.1-0.443c0-1.55,0-3.11,0-4.67v-2.6c0.891,0,1.701,0,2.521,0
			c1.103-0.06,2.151-0.498,2.968-1.242s1.35-1.746,1.512-2.838c0.063-0.211,0.096-0.43,0.101-0.65c0-1.36,0-14.73,0-16.09
			c0.023-0.673-0.094-1.344-0.345-1.969c-0.25-0.625-0.629-1.191-1.111-1.662c-0.481-0.471-1.057-0.835-1.688-1.071
			c-0.631-0.235-1.304-0.337-1.977-0.298c-15.92,0-31.84,0-47.76,0C8.166-0.03,7.482,0.074,6.842,0.316
			C6.201,0.558,5.619,0.933,5.133,1.415c-0.486,0.482-0.865,1.062-1.111,1.7C3.774,3.753,3.665,4.437,3.7,5.12
			c0,5.207,0,10.42,0,15.64c-0.032,0.68,0.079,1.358,0.326,1.992c0.247,0.634,0.623,1.209,1.105,1.688s1.06,0.853,1.695,1.096
			c0.636,0.243,1.315,0.35,1.994,0.314h2.25v0.7c0,2.14,0,4.28,0,6.43c0.032,0.195-0.015,0.395-0.129,0.555
			c-0.114,0.161-0.287,0.271-0.481,0.305c-2.393,0.811-4.372,2.529-5.511,4.785C3.81,40.881,3.602,43.492,4.37,45.9
			c0.068,0.152,0.082,0.325,0.038,0.487c-0.043,0.162-0.142,0.304-0.278,0.402c-2.274,2.082-3.699,4.931-4,8
			c-0.2,2.17-0.14,4.36-0.13,6.54c-0.003,1.152,0.382,2.272,1.093,3.18c0.711,0.907,1.707,1.549,2.827,1.82
			c0.17,0,0.33,0.1,0.49,0.15h18.56c0.493-0.145,0.978-0.317,1.45-0.521c0.882-0.38,1.632-1.011,2.157-1.815
			c0.525-0.804,0.801-1.744,0.793-2.705c0.072-2.224,0.028-4.449-0.13-6.67c-0.309-3.049-1.733-5.877-4-7.939
			c-0.133-0.1-0.23-0.242-0.275-0.402c-0.045-0.161-0.036-0.332,0.025-0.488c0.404-1.271,0.541-2.611,0.402-3.937
			c-0.138-1.326-0.549-2.609-1.206-3.77c-0.657-1.16-1.547-2.173-2.613-2.974c-1.066-0.8-2.286-1.372-3.583-1.68l-0.61-0.15
			c0.14-0.18,0.24-0.31,0.35-0.43c2.2-2.24,4.38-4.49,6.6-6.71c0.256-0.24,0.589-0.382,0.94-0.4c6.347,0,12.703,0,19.07,0
			c0.25-0.023,0.5,0.041,0.709,0.18c2.391,2.41,4.761,4.84,7.201,7.33l-0.521,0.16c-1.312,0.294-2.548,0.859-3.63,1.657
			c-1.083,0.797-1.987,1.812-2.656,2.978c-0.67,1.166-1.09,2.458-1.233,3.796c-0.144,1.336-0.007,2.688,0.399,3.97
			c0.065,0.142,0.082,0.302,0.045,0.454c-0.036,0.152-0.122,0.289-0.244,0.386c-1.338,1.253-2.4,2.771-3.119,4.456
			c-0.721,1.686-1.081,3.502-1.062,5.334v4.54c-0.05,1.234,0.349,2.444,1.12,3.409s1.865,1.618,3.08,1.841
			c0.08,0.028,0.157,0.065,0.23,0.11h18.56c0.072-0.045,0.149-0.082,0.229-0.11c1.215-0.226,2.308-0.882,3.078-1.848
			c0.77-0.966,1.164-2.178,1.112-3.412c0-1.47,0-2.94,0-4.41c0.047-1.856-0.296-3.702-1.008-5.419
			C63.92,49.576,62.856,48.029,61.51,46.75z M24.779,56.01c0.07,1.75,0,3.5,0,5.25c0.001,0.338-0.063,0.672-0.192,0.982
			c-0.128,0.313-0.316,0.596-0.554,0.834c-0.238,0.239-0.521,0.429-0.832,0.559c-0.312,0.129-0.645,0.195-0.982,0.195H5.37
			C5,63.854,4.631,63.799,4.285,63.667c-0.346-0.131-0.66-0.335-0.92-0.597c-0.26-0.263-0.462-0.578-0.59-0.924
			c-0.128-0.348-0.181-0.718-0.155-1.086c0-2,0-4.11,0.14-6.15c0.278-2.332,1.369-4.492,3.08-6.1
			c0.92,1.221,2.115,2.207,3.487,2.882c1.373,0.674,2.884,1.016,4.413,0.997c1.525,0.008,3.03-0.342,4.395-1.021
			C19.499,50.99,20.686,50,21.6,48.779C23.544,50.695,24.683,53.282,24.779,56.01z M20.89,43.01
			c-0.011,1.893-0.77,3.705-2.111,5.041s-3.156,2.086-5.049,2.09c-1.894,0.008-3.714-0.732-5.065-2.061
			c-1.35-1.328-2.121-3.137-2.145-5.03c0.016-1.892,0.778-3.701,2.121-5.034c1.343-1.334,3.157-2.083,5.049-2.086
			c1.885-0.011,3.699,0.723,5.047,2.041c1.348,1.318,2.122,3.114,2.153,5V43.01z M44.689,23.91c-0.197-0.213-0.438-0.38-0.705-0.49
			c-0.268-0.111-0.556-0.162-0.845-0.15c-6.86,0-13.717,0-20.57,0c-0.301-0.014-0.601,0.039-0.878,0.157
			c-0.277,0.118-0.524,0.296-0.722,0.523c-2.22,2.3-4.47,4.58-6.71,6.87c-0.15,0.16-0.32,0.3-0.58,0.54v-0.81c0-1.93,0-3.85,0-5.78
			c0-1-0.48-1.49-1.52-1.49H8.85c-0.338,0.04-0.68,0.001-1.001-0.112c-0.321-0.112-0.612-0.297-0.851-0.539
			c-0.239-0.242-0.42-0.535-0.529-0.857c-0.109-0.322-0.143-0.665-0.1-1.002c0-5.24,0-10.477,0-15.71
			C6.338,4.729,6.38,4.396,6.494,4.083c0.114-0.313,0.295-0.596,0.532-0.83C7.262,3.02,7.547,2.842,7.861,2.732
			c0.314-0.11,0.648-0.148,0.979-0.112H56.66c0.33-0.036,0.665,0.003,0.979,0.112c0.314,0.11,0.601,0.288,0.838,0.521
			s0.42,0.517,0.534,0.829c0.114,0.313,0.159,0.646,0.129,0.978c0,1.33,0,14.33,0,16c-0.005,0.304-0.071,0.605-0.197,0.882
			c-0.126,0.277-0.308,0.526-0.534,0.729s-0.492,0.358-0.781,0.455s-0.594,0.132-0.897,0.104h-3.12c-1.07,0-1.529,0.46-1.539,1.54
			c0,1.45,0,2.9,0,4.34v2L51.81,31.3c-0.095-0.215-0.212-0.42-0.351-0.61c-2.299-2.24-4.539-4.52-6.77-6.82V23.91z M51.979,35.91
			c1.894-0.006,3.712,0.738,5.058,2.068c1.348,1.33,2.113,3.139,2.133,5.031c-0.016,1.893-0.78,3.703-2.125,5.035
			c-1.346,1.332-3.162,2.078-5.056,2.075c-1.892,0-3.706-0.745-5.052-2.074s-2.114-3.135-2.139-5.026
			c0.012-1.896,0.773-3.711,2.118-5.047c1.346-1.336,3.166-2.086,5.063-2.082V35.91z M63.06,61.471
			c-0.028,0.647-0.31,1.259-0.781,1.703c-0.473,0.445-1.101,0.688-1.749,0.676c-5.687,0-11.373,0-17.06,0
			c-0.344,0.006-0.685-0.059-1.002-0.188s-0.605-0.324-0.847-0.569c-0.24-0.245-0.428-0.537-0.552-0.856
			c-0.124-0.32-0.183-0.662-0.17-1.005c0-2.11,0-4.24,0.149-6.34c0.265-2.311,1.325-4.457,3-6.07
			c0.936,1.208,2.134,2.186,3.505,2.859c1.372,0.672,2.878,1.022,4.405,1.022s3.035-0.351,4.406-1.022
			c1.371-0.674,2.57-1.651,3.504-2.859c1.686,1.609,2.749,3.763,3,6.08c0.25,2.18,0.211,4.369,0.19,6.55V61.471z"/>
		<path class="icon-boundary" d="M32.72,17.45h-17.7c-0.22,0-0.44,0-0.65,0c-0.173,0.004-0.346-0.027-0.508-0.09
			c-0.162-0.063-0.31-0.158-0.434-0.279c-0.125-0.121-0.224-0.266-0.292-0.425s-0.104-0.332-0.105-0.505
			c0.005-0.351,0.149-0.686,0.4-0.931c0.251-0.245,0.589-0.381,0.94-0.379h36.19c0.336-0.016,0.674,0.018,1,0.1
			c0.27,0.088,0.502,0.266,0.656,0.504c0.155,0.239,0.224,0.523,0.193,0.806c-0.016,0.276-0.123,0.54-0.303,0.75
			c-0.182,0.209-0.426,0.354-0.697,0.411c-0.283,0.02-0.566,0.02-0.85,0L32.72,17.45z"/>
		<path class="icon-boundary" d="M39.25,7.11h11.27c0.26-0.02,0.521-0.02,0.78,0c0.285,0.039,0.548,0.176,0.743,0.388
			c0.195,0.212,0.311,0.485,0.326,0.772c0.043,0.271-0.009,0.548-0.145,0.786c-0.137,0.238-0.35,0.423-0.605,0.524
			c-0.26,0.102-0.539,0.15-0.819,0.14H27.66c-0.301,0.04-0.606-0.017-0.874-0.16c-0.268-0.144-0.483-0.367-0.617-0.64
			c-0.088-0.193-0.127-0.405-0.113-0.618c0.015-0.212,0.083-0.417,0.197-0.596c0.115-0.179,0.272-0.327,0.458-0.429
			c0.186-0.103,0.395-0.157,0.608-0.157c0.93,0,1.86,0,2.79,0L39.25,7.11z"/>
		<path class="icon-boundary" d="M16.3,7.12c0.65,0,1.3,0,2,0c0.317,0.013,0.619,0.146,0.841,0.372c0.223,0.227,0.351,0.53,0.359,0.848
			c0.018,0.164,0.002,0.33-0.045,0.488c-0.047,0.158-0.126,0.305-0.231,0.432c-0.105,0.126-0.235,0.231-0.382,0.307
			S18.535,9.688,18.37,9.7c-1.333,0.046-2.693,0.046-4.08,0c-0.168-0.008-0.333-0.049-0.485-0.122c-0.152-0.072-0.288-0.174-0.4-0.3
			s-0.197-0.273-0.251-0.432C13.1,8.687,13.078,8.518,13.09,8.35c0.013-0.328,0.15-0.637,0.385-0.866s0.547-0.359,0.875-0.364
			C14.97,7.1,15.64,7.12,16.3,7.12z"/>
	</g>
</svg>
