<svg xmlns="http://www.w3.org/2000/svg"
	xmlns:xlink="http://www.w3.org/1999/xlink" viewBox="0 0 63 67">
	<style type="text/css">
	.icon-boundary {
		fill: #F49158;
	}
	</style>

	<g style="clip-path:url(#SVGID_2_);">
		<path class="icon-boundary" d="M61.301,52.02c-1.84-1.91-3.73-3.779-5.621-5.64c-0.147-0.139-0.264-0.308-0.34-0.497
			c-0.075-0.188-0.109-0.391-0.1-0.593c0-10.667,0-21.363,0-32.09c0.02-0.672-0.225-1.325-0.68-1.82
			c-3.041-3.5-6.07-7.006-9.09-10.52c-0.316-0.306-0.65-0.593-1-0.86H4.99C4.897,0.052,4.8,0.095,4.7,0.13
			C3.366,0.396,2.166,1.121,1.31,2.178C0.453,3.235-0.007,4.559,0.01,5.92c0,1.11,0,2.22,0,3.33c0,1.45,0,15.44,0,21v11.46
			c0,6.41,0,12.83,0,19.24c-0.034,1.151,0.284,2.286,0.911,3.253c0.627,0.966,1.534,1.719,2.599,2.156
			c0.477,0.197,0.964,0.367,1.46,0.511h45.15c0.319-0.091,0.629-0.16,0.939-0.261c1.184-0.357,2.225-1.082,2.972-2.068
			s1.163-2.184,1.188-3.421c0-0.19,0-0.38,0-0.41c0.992,0.147,1.998,0.194,3,0.14c0.965-0.15,1.866-0.574,2.598-1.221
			c0.732-0.647,1.264-1.49,1.532-2.429c0.356-0.872,0.446-1.829,0.257-2.751C62.429,53.526,61.971,52.682,61.301,52.02z
			 M45.461,5.08l0.149-0.07l5.47,6.35h-5c-0.35,0-0.58-0.06-0.58-0.49C45.471,8.94,45.461,7.01,45.461,5.08z M52.66,60.48
			c-0.14,2.439-1.32,3.72-3.779,3.72c-14.16,0-28.32,0-42.48,0c-0.506,0.035-1.015-0.038-1.49-0.216
			c-0.476-0.177-0.908-0.454-1.268-0.813c-0.36-0.357-0.639-0.788-0.819-1.263c-0.18-0.476-0.255-0.982-0.223-1.489
			c0.06-10.63,0-21.27,0-31.91V6.25C2.546,5.76,2.603,5.263,2.767,4.798S3.197,3.91,3.547,3.562c0.35-0.348,0.773-0.612,1.24-0.773
			C5.253,2.627,5.75,2.573,6.24,2.63h36.57v8.23c-0.035,0.421,0.021,0.844,0.168,1.241c0.145,0.396,0.375,0.756,0.674,1.054
			c0.3,0.298,0.66,0.527,1.057,0.671s0.82,0.2,1.241,0.164h6.64v29.23c-0.089-0.06-0.172-0.127-0.25-0.201
			c-2.85-2.84-5.689-5.689-8.55-8.529c-0.106-0.086-0.176-0.212-0.19-0.349c-0.016-0.137,0.025-0.274,0.111-0.382
			c1.492-3.068,2.059-6.505,1.629-9.89c-0.301-2.295-1.053-4.508-2.214-6.511c-1.161-2.003-2.706-3.757-4.548-5.16
			s-3.943-2.427-6.182-3.014c-2.24-0.587-4.573-0.725-6.866-0.406c-2.285,0.328-4.483,1.104-6.467,2.286
			c-1.983,1.181-3.714,2.742-5.092,4.595c-1.377,1.853-2.375,3.959-2.935,6.199c-0.56,2.24-0.671,4.568-0.327,6.851
			c0.402,2.703,1.432,5.273,3.008,7.505c1.576,2.232,3.652,4.064,6.063,5.349c2.412,1.284,5.09,1.985,7.822,2.048
			s5.439-0.518,7.906-1.691c0.158-0.104,0.351-0.143,0.536-0.109c0.187,0.034,0.353,0.138,0.464,0.289
			c4.801,4.82,9.58,9.67,14.461,14.42c0.577,0.478,1.031,1.086,1.326,1.775C52.591,58.983,52.715,59.732,52.66,60.48z M29.021,30.71
			c1.921,0.181,3.758,0.875,5.318,2.01s2.787,2.668,3.552,4.44c-2.604,2.344-5.953,3.688-9.454,3.794s-6.926-1.032-9.666-3.214
			c-1.1-0.9-1.2-0.59-0.31-1.93c1.065-1.793,2.634-3.233,4.512-4.14C24.851,30.763,26.954,30.429,29.021,30.71z M22.62,22.84
			c-0.008-1.372,0.529-2.691,1.493-3.668c0.963-0.977,2.275-1.531,3.647-1.542c0.681-0.006,1.355,0.122,1.986,0.378
			c0.63,0.255,1.204,0.634,1.688,1.113c0.484,0.479,0.868,1.049,1.129,1.677c0.263,0.628,0.397,1.302,0.397,1.982
			c0.005,0.681-0.125,1.356-0.383,1.986s-0.639,1.203-1.12,1.685s-1.053,0.863-1.683,1.123c-0.63,0.259-1.305,0.39-1.985,0.386
			c-1.37,0.008-2.687-0.528-3.661-1.489c-0.975-0.962-1.529-2.271-1.539-3.641L22.62,22.84z M32.721,28.84
			c1.055-0.863,1.867-1.987,2.354-3.26c0.488-1.273,0.635-2.652,0.426-4c-0.269-1.932-1.285-3.68-2.83-4.87
			c-1.541-1.24-3.496-1.847-5.468-1.698s-3.814,1.042-5.152,2.498c-0.705,0.773-1.247,1.68-1.595,2.666
			c-0.349,0.986-0.496,2.032-0.433,3.076c0.062,1.044,0.333,2.065,0.797,3.002c0.463,0.938,1.11,1.772,1.901,2.456
			c-1.313,0.765-2.575,1.614-3.78,2.54c-1.084,1.039-2.106,2.141-3.06,3.3c-3.58-4.48-4.25-13,1.54-18.91
			c2.728-2.78,6.441-4.374,10.335-4.438c3.894-0.063,7.656,1.409,10.475,4.098c2.657,2.51,4.287,5.917,4.574,9.562
			c0.286,3.644-0.791,7.265-3.024,10.158c-1.579-2.795-4.072-4.963-7.06-6.14V28.84z M42.271,36.84l4.479,4.471l-3.529,3.52
			l-4.471-4.5L42.271,36.84z M59.91,56.26c-0.135,0.504-0.408,0.959-0.791,1.313s-0.857,0.592-1.369,0.688
			c-0.413,0.049-0.832-0.008-1.219-0.163c-0.385-0.155-0.727-0.405-0.991-0.727l-3.27-3.28L45.59,47.4
			c-0.16-0.15-0.3-0.311-0.41-0.43l3.67-3.681c0.064,0.048,0.125,0.103,0.181,0.16l10.24,10.26c0.357,0.315,0.61,0.731,0.726,1.194
			c0.113,0.463,0.084,0.95-0.086,1.396V56.26z"/>
		<path class="icon-boundary" d="M27.95,50.779h-7.17c-1,0-1.58-0.479-1.58-1.319s0.58-1.3,1.6-1.3h14.41c1,0,1.61,0.52,1.601,1.32
			c-0.01,0.799-0.62,1.289-1.62,1.299H27.95z"/>
		<path class="icon-boundary" d="M18.53,54.9h3.39c1,0,1.52,0.52,1.51,1.33c-0.01,0.81-0.58,1.299-1.54,1.299
			c-2.28,0-4.563,0-6.85,0c-0.189,0.025-0.382,0.012-0.565-0.043c-0.184-0.053-0.354-0.145-0.5-0.268s-0.265-0.276-0.348-0.448
			s-0.13-0.359-0.137-0.55c0-0.781,0.58-1.311,1.52-1.32H18.53z"/>
		<path class="icon-boundary" d="M37.529,54.9h3.451c1,0,1.52,0.52,1.51,1.33c-0.01,0.81-0.58,1.299-1.551,1.299
			c-2.279,0-4.56,0-6.84,0c-0.189,0.025-0.383,0.012-0.566-0.043c-0.184-0.053-0.355-0.145-0.502-0.268s-0.266-0.275-0.351-0.447
			s-0.133-0.359-0.141-0.551c0-0.781,0.58-1.311,1.53-1.32H37.529z"/>
		<path class="icon-boundary" d="M26.67,56.189c0.004-0.174,0.042-0.344,0.113-0.504c0.071-0.158,0.172-0.301,0.299-0.42
			c0.127-0.119,0.276-0.213,0.438-0.273c0.163-0.061,0.336-0.089,0.51-0.082c0.174,0,0.346,0.035,0.505,0.104
			s0.303,0.17,0.422,0.296c0.119,0.127,0.211,0.276,0.27,0.44c0.059,0.163,0.084,0.336,0.073,0.51
			c-0.01,0.341-0.153,0.664-0.397,0.9c-0.245,0.237-0.572,0.37-0.913,0.369c-0.35-0.01-0.683-0.154-0.929-0.404
			C26.815,56.875,26.675,56.541,26.67,56.189z"/>
	</g>

</svg>
