<svg xmlns="http://www.w3.org/2000/svg" xmlns:xlink="http://www.w3.org/1999/xlink" viewBox="0 0 123.01 123.01" style="enable-background:new 0 0 123.01 123.01;" xml:space="preserve">
<style type="text/css">
	.orange-outline{fill:none;stroke:#F69259;stroke-width:3;stroke-linecap:round;stroke-linejoin:round;stroke-miterlimit:10;}
</style>
<g>
	<circle class="orange-outline" cx="61.73" cy="34.14" r="10.27"/>
	<circle class="orange-outline" cx="61.73" cy="34.14" r="21.61"/>
	<path class="orange-outline" d="M91.83,110.48H31.18v-7.31L12.41,71.56V28.24c0-3.38,2.74-6.12,6.12-6.12h0c3.38,0,6.12,2.74,6.12,6.12v32.92"
		/>
	<path class="orange-outline" d="M32.29,110.48h59.8v-7.31l18.51-31.61V28.24c0-3.38-2.7-6.12-6.04-6.12h0c-3.34,0-6.04,2.74-6.04,6.12v30.6"/>
	<path class="orange-outline" d="M47.64,87.43L26.37,66.16c-2.43-2.43-2.43-6.37,0-8.8l0,0c2.43-2.43,6.37-2.43,8.8,0l22.27,22.09
		c2.64,2.64,3.71,6.36,3.71,10.09"/>
	<path class="orange-outline" d="M74.16,89.52l23.03-23.36c2.4-2.43,2.4-6.37,0-8.8l0,0c-2.4-2.43-6.28-2.43-8.68,0L67.17,79
		c-2.6,2.64-6.02,6.81-6.02,10.53v20.94"/>
</g>
</svg>
