<svg xmlns="http://www.w3.org/2000/svg" xmlns:xlink="http://www.w3.org/1999/xlink" viewBox="0 0 67 61">
	<style type="text/css">
	.icon-boundary {
		fill: #F49158;
	}
	</style>

	<g style="clip-path:url(#SVGID_2_);">
		<path class="icon-boundary" d="M41.45,22.69c-3.333,5.333-6.667,10.667-10,16L30,41.07c-0.09,0.15-0.19,0.279-0.29,0.43
			l-0.43,0.62l-0.63-0.42l-0.42-0.28l-2.75-2l-4.73-3.359c-0.413-0.374-0.954-0.574-1.51-0.561c-0.39,0.08-0.77,0.439-1.19,1.109
			l-2.32,3.711c-3.333,5.333-6.667,10.666-10,16C5.574,56.65,5.319,56.926,5,57.104c-0.319,0.179-0.686,0.255-1.05,0.216
			c-0.883-0.045-1.767-0.045-2.65,0c-0.34,0.008-0.664,0.146-0.904,0.386c-0.24,0.241-0.378,0.564-0.386,0.903
			c-0.025,0.344,0.086,0.682,0.309,0.944c0.223,0.262,0.539,0.426,0.881,0.456c0.31,0.025,0.621,0.025,0.93,0h62.44
			c1,0,1.561-0.55,1.55-1.39c-0.01-0.841-0.6-1.32-1.54-1.351h-0.21c-0.709-0.039-1.421-0.039-2.13,0
			c-0.346,0.047-0.696-0.026-0.994-0.209c-0.297-0.182-0.521-0.461-0.636-0.791l-7.47-16L45,22.87
			c-0.222-0.479-0.338-1.001-0.34-1.53c0-2,0-4,0-6v-3.27H58.85c1.271,0,1.721-0.45,1.721-1.72V1.86C60.57,0.4,60.17,0,58.7,0H43.83
			c-1.52,0-1.92,0.41-1.92,2v4.07c0,5.06,0,10.12,0,15.18C41.88,21.761,41.722,22.256,41.45,22.69z M44.66,2.76h13.09v6.48H44.66
			V2.76z M42.131,26.76l0.289-0.44l0.68-1l15,32H8.39l11.49-18.4l8.21,5.84c0.28,0.2,0.56,0.41,0.85,0.59
			c0.144,0.104,0.308,0.178,0.481,0.216s0.353,0.04,0.527,0.007s0.34-0.104,0.486-0.203s0.271-0.229,0.366-0.379
			c0.14-0.18,0.26-0.381,0.38-0.57l0.11-0.18L42.131,26.76z"/>
	</g>
</svg>
