<svg xmlns="http://www.w3.org/2000/svg" xmlns:xlink="http://www.w3.org/1999/xlink" viewBox="0 0 123.01 123.01" style="enable-background:new 0 0 123.01 123.01;" xml:space="preserve">
<style type="text/css">
	.green-outline{fill:none;stroke-width:3;stroke-linecap:round;stroke-miterlimit:10;}
</style>
<g>
	<path class="green-outline" d="M72.37,86.36h1.62c14.71,0,26.64,11.93,26.64,26.64v0.46H22.39v-0.46c0-14.71,11.93-26.64,24.64-26.64h4.19"/>
	<path class="green-outline" d="M71.73,76.77v9.4c0,5.28-4.28,9.55-9.55,9.55h0c-5.28,0-9.55-4.28-9.55-9.55V75.4"/>
	<path class="green-outline" d="M52.4,75.4c-8.38-3.71-14.11-11.86-14.11-21.61c0-13.19,10.69-23.89,23.89-23.89S86.06,40.6,86.06,53.79
		c0,9.79-5.9,18.29-14.33,21.98"/>
	<line class="green-outline" x1="52.62" y1="81.37" x2="71.73" y2="81.37"/>
	<polyline class="green-outline" points="55.16,51.55 61.51,58.5 61.51,81.37 	"/>
	<line class="green-outline" x1="69.99" y1="51.06" x2="61.51" y2="58.5"/>
	<line class="green-outline" x1="24.7" y1="31.07" x2="30.9" y2="34.66"/>
	<line class="green-outline" x1="40.47" y1="15.29" x2="44.16" y2="21.37"/>
	<line class="green-outline" x1="83.6" y1="15.29" x2="79.92" y2="21.37"/>
	<line class="green-outline" x1="62.02" y1="9.56" x2="62.02" y2="16.6"/>
	<line class="green-outline" x1="99.37" y1="31.07" x2="93.17" y2="34.66"/>
</g>
</svg>
