<?xml version="1.0" encoding="utf-8"?>
<!-- Generator: Adobe Illustrator 26.0.2, SVG Export Plug-In . SVG Version: 6.00 Build 0)  -->
<svg version="1.1" id="Layer_1" xmlns="http://www.w3.org/2000/svg" xmlns:xlink="http://www.w3.org/1999/xlink" x="0px" y="0px"
	 viewBox="0 0 1121 258" style="enable-background:new 0 0 1121 258;" xml:space="preserve">
<style type="text/css">
	.st0{fill:#1CB9A9;}
	.st1{fill:#FFFFFF;}
	.st2{clip-path:url(#SVGID_00000174581765122651054610000015616848073201345421_);}
	.st3{clip-path:url(#SVGID_00000006684450885530542280000002129046510805176500_);}
	.st4{clip-path:url(#SVGID_00000105411054452544902490000011321554520363618696_);}
	.st5{fill:#F49158;}
	.st6{fill:#F15A24;}
	.st7{clip-path:url(#SVGID_00000100374274502471155700000008169946945584594837_);}
	.st8{clip-path:url(#SVGID_00000179633828502589043370000011923105173317935275_);}
</style>
<path class="st0" d="M1017,174.5c0,0.9-0.3,1.8-0.8,2.5c-0.5,0.7-1.2,1.3-2,1.7c-0.8,0.3-1.7,0.4-2.6,0.3c-0.9-0.2-1.7-0.6-2.3-1.2
	c-0.6-0.6-1.1-1.4-1.2-2.3c-0.2-0.9-0.1-1.8,0.3-2.6c0.3-0.8,0.9-1.5,1.7-2c0.8-0.5,1.6-0.8,2.5-0.7c0.6,0,1.2,0.1,1.7,0.3
	c0.5,0.2,1,0.6,1.5,1c0.4,0.4,0.7,0.9,1,1.5C1016.9,173.3,1017,173.9,1017,174.5L1017,174.5z"/>
<path class="st0" d="M1012.5,193c2.5,0,4.5-2,4.5-4.5s-2-4.5-4.5-4.5s-4.5,2-4.5,4.5S1010,193,1012.5,193z"/>
<path class="st0" d="M1017,203.5c0,0.9-0.3,1.8-0.8,2.5c-0.5,0.7-1.2,1.3-2,1.7c-0.8,0.3-1.7,0.4-2.6,0.3c-0.9-0.2-1.7-0.6-2.3-1.2
	c-0.6-0.6-1.1-1.4-1.2-2.3c-0.2-0.9-0.1-1.8,0.3-2.6c0.3-0.8,0.9-1.5,1.7-2c0.8-0.5,1.6-0.8,2.5-0.7c1.2,0,2.3,0.5,3.2,1.3
	C1016.5,201.2,1017,202.3,1017,203.5L1017,203.5z"/>
<g>
	
		<image style="overflow:visible;opacity:0.15;" width="143" height="143" xlink:href="30E1384AF028A51C.png"  transform="matrix(1 0 0 1 46 42)">
	</image>
	<g>
		<g>
			<circle class="st1" cx="113.2" cy="109.7" r="53.2"/>
		</g>
	</g>
</g>
<g>
	
		<image style="overflow:visible;opacity:0.15;" width="143" height="143" xlink:href="30E1384AF028A51D.png"  transform="matrix(1 0 0 1 273 80)">
	</image>
	<g>
		<g>
			<circle class="st1" cx="340.2" cy="147.6" r="53.2"/>
		</g>
	</g>
</g>
<g>
	
		<image style="overflow:visible;opacity:0.15;" width="143" height="143" xlink:href="30E1384AF028A51B.png"  transform="matrix(1 0 0 1 497 42)">
	</image>
	<g>
		<g>
			<circle class="st1" cx="564.2" cy="109.7" r="53.2"/>
		</g>
	</g>
</g>
<g>
	
		<image style="overflow:visible;opacity:0.15;" width="143" height="143" xlink:href="30E1384AF028A524.png"  transform="matrix(1 0 0 1 721 80)">
	</image>
	<g>
		<g>
			<circle class="st1" cx="788.2" cy="147.6" r="53.2"/>
		</g>
	</g>
</g>
<g>
	
		<image style="overflow:visible;opacity:0.15;" width="144" height="143" xlink:href="30E1384AF028A527.png"  transform="matrix(1 0 0 1 944 42)">
	</image>
	<g>
		<g>
			<circle class="st1" cx="1012.2" cy="109.7" r="53.2"/>
		</g>
	</g>
</g>
<g>
	<defs>
		<rect id="SVGID_1_" x="92.1" y="87.1" width="42.8" height="45.6"/>
	</defs>
	<clipPath id="SVGID_00000142855056997107673810000001273896124775296653_">
		<use xlink:href="#SVGID_1_"  style="overflow:visible;"/>
	</clipPath>
	<g style="clip-path:url(#SVGID_00000142855056997107673810000001273896124775296653_);">
		<path class="st0" d="M133.9,122.6c-1.3-1.3-2.5-2.6-3.8-3.9c-0.1-0.1-0.2-0.2-0.2-0.3c-0.1-0.1-0.1-0.3-0.1-0.4
			c0-7.3,0-14.6,0-21.9c0-0.5-0.2-0.9-0.5-1.2c-2.1-2.4-4.1-4.8-6.2-7.2c-0.2-0.2-0.4-0.4-0.7-0.6H95.5c-0.1,0-0.1,0.1-0.2,0.1
			c-0.9,0.2-1.7,0.7-2.3,1.4c-0.6,0.7-0.9,1.6-0.9,2.6c0,0.8,0,1.5,0,2.3c0,1,0,10.5,0,14.3v7.8c0,4.4,0,8.8,0,13.1
			c0,0.8,0.2,1.6,0.6,2.2c0.4,0.7,1,1.2,1.8,1.5c0.3,0.1,0.7,0.2,1,0.3h30.8c0.2-0.1,0.4-0.1,0.6-0.2c0.8-0.2,1.5-0.7,2-1.4
			s0.8-1.5,0.8-2.3c0-0.1,0-0.3,0-0.3c0.7,0.1,1.4,0.1,2,0.1c0.7-0.1,1.3-0.4,1.8-0.8c0.5-0.4,0.9-1,1-1.7c0.2-0.6,0.3-1.2,0.2-1.9
			C134.7,123.7,134.4,123.1,133.9,122.6L133.9,122.6z M123.1,90.6l0.1,0l3.7,4.3h-3.4c-0.2,0-0.4,0-0.4-0.3
			C123.1,93.2,123.1,91.9,123.1,90.6L123.1,90.6z M128,128.4c-0.1,1.7-0.9,2.5-2.6,2.5c-9.7,0-19.3,0-29,0c-0.3,0-0.7,0-1-0.1
			s-0.6-0.3-0.9-0.6c-0.2-0.2-0.4-0.5-0.6-0.9c-0.1-0.3-0.2-0.7-0.2-1c0-7.3,0-14.5,0-21.8V91.4c0-0.3,0-0.7,0.1-1
			c0.1-0.3,0.3-0.6,0.5-0.8c0.2-0.2,0.5-0.4,0.8-0.5c0.3-0.1,0.7-0.1,1-0.1h25v5.6c0,0.3,0,0.6,0.1,0.8c0.1,0.3,0.3,0.5,0.5,0.7
			c0.2,0.2,0.5,0.4,0.7,0.5c0.3,0.1,0.6,0.1,0.8,0.1h4.5v20c-0.1,0-0.1-0.1-0.2-0.1c-1.9-1.9-3.9-3.9-5.8-5.8
			c-0.1-0.1-0.1-0.1-0.1-0.2c0-0.1,0-0.2,0.1-0.3c1-2.1,1.4-4.4,1.1-6.8c-0.2-1.6-0.7-3.1-1.5-4.4c-0.8-1.4-1.8-2.6-3.1-3.5
			c-1.3-1-2.7-1.7-4.2-2.1c-1.5-0.4-3.1-0.5-4.7-0.3c-1.6,0.2-3.1,0.8-4.4,1.6c-1.4,0.8-2.5,1.9-3.5,3.1c-0.9,1.3-1.6,2.7-2,4.2
			c-0.4,1.5-0.5,3.1-0.2,4.7c0.3,1.8,1,3.6,2.1,5.1c1.1,1.5,2.5,2.8,4.1,3.7c1.6,0.9,3.5,1.4,5.3,1.4c1.9,0,3.7-0.4,5.4-1.2
			c0.1-0.1,0.2-0.1,0.4-0.1c0.1,0,0.2,0.1,0.3,0.2c3.3,3.3,6.5,6.6,9.9,9.8c0.4,0.3,0.7,0.7,0.9,1.2
			C128,127.4,128.1,127.9,128,128.4L128,128.4z M111.9,108.1c1.3,0.1,2.6,0.6,3.6,1.4c1.1,0.8,1.9,1.8,2.4,3
			c-1.8,1.6-4.1,2.5-6.5,2.6c-2.4,0.1-4.7-0.7-6.6-2.2c-0.8-0.6-0.8-0.4-0.2-1.3c0.7-1.2,1.8-2.2,3.1-2.8
			C109,108.1,110.5,107.9,111.9,108.1L111.9,108.1z M107.5,102.7c0-0.9,0.4-1.8,1-2.5c0.7-0.7,1.6-1,2.5-1.1c0.5,0,0.9,0.1,1.4,0.3
			c0.4,0.2,0.8,0.4,1.2,0.8c0.3,0.3,0.6,0.7,0.8,1.1s0.3,0.9,0.3,1.4c0,0.5-0.1,0.9-0.3,1.4s-0.4,0.8-0.8,1.2s-0.7,0.6-1.1,0.8
			c-0.4,0.2-0.9,0.3-1.4,0.3c-0.9,0-1.8-0.4-2.5-1C107.9,104.6,107.5,103.7,107.5,102.7L107.5,102.7z M114.4,106.8
			c0.7-0.6,1.3-1.4,1.6-2.2c0.3-0.9,0.4-1.8,0.3-2.7c-0.2-1.3-0.9-2.5-1.9-3.3c-1.1-0.8-2.4-1.3-3.7-1.2c-1.3,0.1-2.6,0.7-3.5,1.7
			c-0.5,0.5-0.9,1.1-1.1,1.8c-0.2,0.7-0.3,1.4-0.3,2.1c0,0.7,0.2,1.4,0.5,2c0.3,0.6,0.8,1.2,1.3,1.7c-0.9,0.5-1.8,1.1-2.6,1.7
			c-0.7,0.7-1.4,1.5-2.1,2.3c-2.4-3.1-2.9-8.9,1.1-12.9c1.9-1.9,4.4-3,7.1-3c2.7,0,5.2,1,7.2,2.8c1.8,1.7,2.9,4,3.1,6.5
			c0.2,2.5-0.5,5-2.1,6.9C118.2,109.1,116.5,107.7,114.4,106.8L114.4,106.8z M120.9,112.3l3.1,3.1l-2.4,2.4l-3.1-3.1L120.9,112.3z
			 M133,125.5c-0.1,0.3-0.3,0.7-0.5,0.9c-0.3,0.2-0.6,0.4-0.9,0.5c-0.3,0-0.6,0-0.8-0.1c-0.3-0.1-0.5-0.3-0.7-0.5l-2.2-2.2l-4.6-4.6
			c-0.1-0.1-0.2-0.2-0.3-0.3l2.5-2.5c0,0,0.1,0.1,0.1,0.1l7,7c0.2,0.2,0.4,0.5,0.5,0.8C133.1,124.9,133.1,125.3,133,125.5L133,125.5
			z"/>
		<path class="st0" d="M111.2,121.8h-4.9c-0.7,0-1.1-0.3-1.1-0.9c0-0.6,0.4-0.9,1.1-0.9h9.8c0.7,0,1.1,0.4,1.1,0.9
			c0,0.5-0.4,0.9-1.1,0.9H111.2z"/>
		<path class="st0" d="M104.7,124.6h2.3c0.7,0,1,0.4,1,0.9c0,0.6-0.4,0.9-1.1,0.9c-1.6,0-3.1,0-4.7,0c-0.1,0-0.3,0-0.4,0
			c-0.1,0-0.2-0.1-0.3-0.2c-0.1-0.1-0.2-0.2-0.2-0.3c-0.1-0.1-0.1-0.2-0.1-0.4c0-0.5,0.4-0.9,1-0.9H104.7z"/>
		<path class="st0" d="M117.7,124.6h2.4c0.7,0,1,0.4,1,0.9c0,0.6-0.4,0.9-1.1,0.9c-1.6,0-3.1,0-4.7,0c-0.1,0-0.3,0-0.4,0
			c-0.1,0-0.2-0.1-0.3-0.2c-0.1-0.1-0.2-0.2-0.2-0.3c-0.1-0.1-0.1-0.2-0.1-0.4c0-0.5,0.4-0.9,1-0.9H117.7z"/>
		<path class="st0" d="M110.3,125.5c0-0.1,0-0.2,0.1-0.3c0-0.1,0.1-0.2,0.2-0.3c0.1-0.1,0.2-0.1,0.3-0.2c0.1,0,0.2-0.1,0.3-0.1
			c0.1,0,0.2,0,0.3,0.1c0.1,0,0.2,0.1,0.3,0.2c0.1,0.1,0.1,0.2,0.2,0.3c0,0.1,0.1,0.2,0,0.3c0,0.2-0.1,0.5-0.3,0.6
			c-0.2,0.2-0.4,0.3-0.6,0.3c-0.2,0-0.5-0.1-0.6-0.3C110.4,126,110.3,125.7,110.3,125.5L110.3,125.5z"/>
	</g>
</g>
<g>
	<defs>
		<rect id="SVGID_00000160907755092175954750000017741629258769515414_" x="543.1" y="87.1" width="42.8" height="45.6"/>
	</defs>
	<clipPath id="SVGID_00000105410320364679079020000001938475311705362614_">
		<use xlink:href="#SVGID_00000160907755092175954750000017741629258769515414_"  style="overflow:visible;"/>
	</clipPath>
	<g style="clip-path:url(#SVGID_00000105410320364679079020000001938475311705362614_);">
		<path class="st0" d="M584.9,122.6c-1.3-1.3-2.5-2.6-3.8-3.9c-0.1-0.1-0.2-0.2-0.2-0.3c-0.1-0.1-0.1-0.3-0.1-0.4
			c0-7.3,0-14.6,0-21.9c0-0.5-0.2-0.9-0.5-1.2c-2.1-2.4-4.1-4.8-6.2-7.2c-0.2-0.2-0.4-0.4-0.7-0.6h-26.9c-0.1,0-0.1,0.1-0.2,0.1
			c-0.9,0.2-1.7,0.7-2.3,1.4c-0.6,0.7-0.9,1.6-0.9,2.6c0,0.8,0,1.5,0,2.3c0,1,0,10.5,0,14.3v7.8c0,4.4,0,8.8,0,13.1
			c0,0.8,0.2,1.6,0.6,2.2c0.4,0.7,1,1.2,1.8,1.5c0.3,0.1,0.7,0.2,1,0.3h30.8c0.2-0.1,0.4-0.1,0.6-0.2c0.8-0.2,1.5-0.7,2-1.4
			c0.5-0.7,0.8-1.5,0.8-2.3c0-0.1,0-0.3,0-0.3c0.7,0.1,1.4,0.1,2,0.1c0.7-0.1,1.3-0.4,1.8-0.8c0.5-0.4,0.9-1,1-1.7
			c0.2-0.6,0.3-1.2,0.2-1.9C585.7,123.7,585.4,123.1,584.9,122.6L584.9,122.6z M574.1,90.6l0.1,0l3.7,4.3h-3.4c-0.2,0-0.4,0-0.4-0.3
			C574.1,93.2,574.1,91.9,574.1,90.6L574.1,90.6z M579,128.4c-0.1,1.7-0.9,2.5-2.6,2.5c-9.7,0-19.3,0-29,0c-0.3,0-0.7,0-1-0.1
			s-0.6-0.3-0.9-0.6c-0.2-0.2-0.4-0.5-0.6-0.9c-0.1-0.3-0.2-0.7-0.2-1c0-7.3,0-14.5,0-21.8V91.4c0-0.3,0-0.7,0.1-1
			c0.1-0.3,0.3-0.6,0.5-0.8c0.2-0.2,0.5-0.4,0.8-0.5c0.3-0.1,0.7-0.1,1-0.1h25v5.6c0,0.3,0,0.6,0.1,0.8c0.1,0.3,0.3,0.5,0.5,0.7
			c0.2,0.2,0.4,0.4,0.7,0.5c0.3,0.1,0.6,0.1,0.8,0.1h4.5v20c-0.1,0-0.1-0.1-0.2-0.1c-1.9-1.9-3.9-3.9-5.8-5.8
			c-0.1-0.1-0.1-0.1-0.1-0.2c0-0.1,0-0.2,0.1-0.3c1-2.1,1.4-4.4,1.1-6.8c-0.2-1.6-0.7-3.1-1.5-4.4c-0.8-1.4-1.8-2.6-3.1-3.5
			c-1.3-1-2.7-1.7-4.2-2.1c-1.5-0.4-3.1-0.5-4.7-0.3c-1.6,0.2-3.1,0.8-4.4,1.6c-1.4,0.8-2.5,1.9-3.5,3.1c-0.9,1.3-1.6,2.7-2,4.2
			c-0.4,1.5-0.5,3.1-0.2,4.7c0.3,1.8,1,3.6,2.1,5.1c1.1,1.5,2.5,2.8,4.1,3.7s3.5,1.4,5.3,1.4c1.9,0,3.7-0.4,5.4-1.2
			c0.1-0.1,0.2-0.1,0.4-0.1c0.1,0,0.2,0.1,0.3,0.2c3.3,3.3,6.5,6.6,9.9,9.8c0.4,0.3,0.7,0.7,0.9,1.2
			C579,127.4,579.1,127.9,579,128.4L579,128.4z M562.9,108.1c1.3,0.1,2.6,0.6,3.6,1.4c1.1,0.8,1.9,1.8,2.4,3
			c-1.8,1.6-4.1,2.5-6.5,2.6c-2.4,0.1-4.7-0.7-6.6-2.2c-0.8-0.6-0.8-0.4-0.2-1.3c0.7-1.2,1.8-2.2,3.1-2.8
			C560,108.1,561.5,107.9,562.9,108.1L562.9,108.1z M558.5,102.7c0-0.9,0.4-1.8,1-2.5c0.7-0.7,1.6-1,2.5-1.1c0.5,0,0.9,0.1,1.4,0.3
			c0.4,0.2,0.8,0.4,1.2,0.8c0.3,0.3,0.6,0.7,0.8,1.1c0.2,0.4,0.3,0.9,0.3,1.4c0,0.5-0.1,0.9-0.3,1.4c-0.2,0.4-0.4,0.8-0.8,1.2
			s-0.7,0.6-1.1,0.8c-0.4,0.2-0.9,0.3-1.4,0.3c-0.9,0-1.8-0.4-2.5-1C558.9,104.6,558.5,103.7,558.5,102.7L558.5,102.7z M565.4,106.8
			c0.7-0.6,1.3-1.4,1.6-2.2c0.3-0.9,0.4-1.8,0.3-2.7c-0.2-1.3-0.9-2.5-1.9-3.3c-1.1-0.8-2.4-1.3-3.7-1.2c-1.3,0.1-2.6,0.7-3.5,1.7
			c-0.5,0.5-0.9,1.1-1.1,1.8c-0.2,0.7-0.3,1.4-0.3,2.1c0,0.7,0.2,1.4,0.5,2c0.3,0.6,0.8,1.2,1.3,1.7c-0.9,0.5-1.8,1.1-2.6,1.7
			c-0.7,0.7-1.4,1.5-2.1,2.3c-2.4-3.1-2.9-8.9,1.1-12.9c1.9-1.9,4.4-3,7.1-3c2.7,0,5.2,1,7.2,2.8c1.8,1.7,2.9,4,3.1,6.5
			c0.2,2.5-0.5,5-2.1,6.9C569.2,109.1,567.5,107.7,565.4,106.8L565.4,106.8z M571.9,112.3l3.1,3.1l-2.4,2.4l-3.1-3.1L571.9,112.3z
			 M584,125.5c-0.1,0.3-0.3,0.7-0.5,0.9c-0.3,0.2-0.6,0.4-0.9,0.5c-0.3,0-0.6,0-0.8-0.1c-0.3-0.1-0.5-0.3-0.7-0.5l-2.2-2.2l-4.6-4.6
			c-0.1-0.1-0.2-0.2-0.3-0.3l2.5-2.5c0,0,0.1,0.1,0.1,0.1l7,7c0.2,0.2,0.4,0.5,0.5,0.8C584.1,124.9,584.1,125.3,584,125.5L584,125.5
			z"/>
		<path class="st0" d="M562.2,121.8h-4.9c-0.7,0-1.1-0.3-1.1-0.9c0-0.6,0.4-0.9,1.1-0.9h9.8c0.7,0,1.1,0.4,1.1,0.9
			c0,0.5-0.4,0.9-1.1,0.9H562.2z"/>
		<path class="st0" d="M555.7,124.6h2.3c0.7,0,1,0.4,1,0.9c0,0.6-0.4,0.9-1.1,0.9c-1.6,0-3.1,0-4.7,0c-0.1,0-0.3,0-0.4,0
			c-0.1,0-0.2-0.1-0.3-0.2c-0.1-0.1-0.2-0.2-0.2-0.3c-0.1-0.1-0.1-0.2-0.1-0.4c0-0.5,0.4-0.9,1-0.9H555.7z"/>
		<path class="st0" d="M568.7,124.6h2.4c0.7,0,1,0.4,1,0.9c0,0.6-0.4,0.9-1.1,0.9c-1.6,0-3.1,0-4.7,0c-0.1,0-0.3,0-0.4,0
			c-0.1,0-0.2-0.1-0.3-0.2c-0.1-0.1-0.2-0.2-0.2-0.3c-0.1-0.1-0.1-0.2-0.1-0.4c0-0.5,0.4-0.9,1-0.9H568.7z"/>
		<path class="st0" d="M561.3,125.5c0-0.1,0-0.2,0.1-0.3c0-0.1,0.1-0.2,0.2-0.3c0.1-0.1,0.2-0.1,0.3-0.2c0.1,0,0.2-0.1,0.3-0.1
			c0.1,0,0.2,0,0.3,0.1c0.1,0,0.2,0.1,0.3,0.2c0.1,0.1,0.1,0.2,0.2,0.3c0,0.1,0.1,0.2,0,0.3c0,0.2-0.1,0.5-0.3,0.6
			c-0.2,0.2-0.4,0.3-0.6,0.3c-0.2,0-0.5-0.1-0.6-0.3C561.4,126,561.3,125.7,561.3,125.5L561.3,125.5z"/>
	</g>
</g>
<g>
	<defs>
		<rect id="SVGID_00000001653430804161415410000016221560411583086243_" x="991.1" y="87.1" width="42.8" height="45.6"/>
	</defs>
	<clipPath id="SVGID_00000119821994139520451210000010588793337698354349_">
		<use xlink:href="#SVGID_00000001653430804161415410000016221560411583086243_"  style="overflow:visible;"/>
	</clipPath>
	<g style="clip-path:url(#SVGID_00000119821994139520451210000010588793337698354349_);">
		<path class="st0" d="M1032.9,122.6c-1.2-1.3-2.5-2.6-3.8-3.9c-0.1-0.1-0.2-0.2-0.2-0.3c-0.1-0.1-0.1-0.3-0.1-0.4
			c0-7.3,0-14.6,0-21.9c0-0.5-0.2-0.9-0.5-1.2c-2.1-2.4-4.1-4.8-6.2-7.2c-0.2-0.2-0.4-0.4-0.7-0.6h-27c-0.1,0-0.1,0.1-0.2,0.1
			c-0.9,0.2-1.7,0.7-2.3,1.4c-0.6,0.7-0.9,1.6-0.9,2.6c0,0.8,0,1.5,0,2.3c0,1,0,10.5,0,14.3v7.8c0,4.4,0,8.8,0,13.1
			c0,0.8,0.2,1.6,0.6,2.2c0.4,0.7,1,1.2,1.8,1.5c0.3,0.1,0.7,0.2,1,0.3h30.8c0.2-0.1,0.4-0.1,0.6-0.2c0.8-0.2,1.5-0.7,2-1.4
			s0.8-1.5,0.8-2.3c0-0.1,0-0.3,0-0.3c0.7,0.1,1.4,0.1,2,0.1c0.7-0.1,1.3-0.4,1.8-0.8c0.5-0.4,0.9-1,1.1-1.7
			c0.2-0.6,0.3-1.2,0.2-1.9C1033.7,123.7,1033.4,123.1,1032.9,122.6L1032.9,122.6z M1022.1,90.6l0.1,0l3.7,4.3h-3.4
			c-0.2,0-0.4,0-0.4-0.3C1022.1,93.2,1022.1,91.9,1022.1,90.6L1022.1,90.6z M1027,128.4c-0.1,1.7-0.9,2.5-2.6,2.5
			c-9.7,0-19.3,0-29,0c-0.3,0-0.7,0-1-0.1s-0.6-0.3-0.9-0.6c-0.2-0.2-0.4-0.5-0.6-0.9c-0.1-0.3-0.2-0.7-0.2-1c0-7.3,0-14.5,0-21.8
			V91.4c0-0.3,0-0.7,0.1-1c0.1-0.3,0.3-0.6,0.5-0.8c0.2-0.2,0.5-0.4,0.8-0.5c0.3-0.1,0.7-0.1,1-0.1h25v5.6c0,0.3,0,0.6,0.1,0.8
			c0.1,0.3,0.2,0.5,0.5,0.7c0.2,0.2,0.5,0.4,0.7,0.5c0.3,0.1,0.6,0.1,0.9,0.1h4.5v20c-0.1,0-0.1-0.1-0.2-0.1c-2-1.9-3.9-3.9-5.8-5.8
			c-0.1-0.1-0.1-0.1-0.1-0.2c0-0.1,0-0.2,0.1-0.3c1-2.1,1.4-4.4,1.1-6.8c-0.2-1.6-0.7-3.1-1.5-4.4c-0.8-1.4-1.9-2.6-3.1-3.5
			c-1.2-1-2.7-1.7-4.2-2.1c-1.5-0.4-3.1-0.5-4.7-0.3c-1.6,0.2-3.1,0.8-4.4,1.6c-1.4,0.8-2.5,1.9-3.5,3.1c-0.9,1.3-1.6,2.7-2,4.2
			c-0.4,1.5-0.5,3.1-0.2,4.7c0.3,1.8,1,3.6,2.1,5.1c1.1,1.5,2.5,2.8,4.1,3.7c1.6,0.9,3.5,1.4,5.3,1.4c1.9,0,3.7-0.4,5.4-1.2
			c0.1-0.1,0.2-0.1,0.4-0.1c0.1,0,0.2,0.1,0.3,0.2c3.3,3.3,6.5,6.6,9.9,9.8c0.4,0.3,0.7,0.7,0.9,1.2
			C1027,127.4,1027.1,127.9,1027,128.4L1027,128.4z M1010.9,108.1c1.3,0.1,2.6,0.6,3.6,1.4c1.1,0.8,1.9,1.8,2.4,3
			c-1.8,1.6-4.1,2.5-6.5,2.6c-2.4,0.1-4.7-0.7-6.6-2.2c-0.8-0.6-0.8-0.4-0.2-1.3c0.7-1.2,1.8-2.2,3.1-2.8
			C1008,108.1,1009.5,107.9,1010.9,108.1L1010.9,108.1z M1006.5,102.7c0-0.9,0.4-1.8,1-2.5c0.7-0.7,1.6-1,2.5-1.1
			c0.5,0,0.9,0.1,1.4,0.3c0.4,0.2,0.8,0.4,1.1,0.8c0.3,0.3,0.6,0.7,0.8,1.1s0.3,0.9,0.3,1.4c0,0.5-0.1,0.9-0.3,1.4
			c-0.2,0.4-0.4,0.8-0.8,1.2c-0.3,0.3-0.7,0.6-1.1,0.8c-0.4,0.2-0.9,0.3-1.4,0.3c-0.9,0-1.8-0.4-2.5-1
			C1006.9,104.6,1006.5,103.7,1006.5,102.7L1006.5,102.7z M1013.4,106.8c0.7-0.6,1.3-1.4,1.6-2.2c0.3-0.9,0.4-1.8,0.3-2.7
			c-0.2-1.3-0.9-2.5-1.9-3.3c-1-0.8-2.4-1.3-3.7-1.2c-1.4,0.1-2.6,0.7-3.5,1.7c-0.5,0.5-0.8,1.1-1.1,1.8c-0.2,0.7-0.3,1.4-0.3,2.1
			c0,0.7,0.2,1.4,0.5,2c0.3,0.6,0.8,1.2,1.3,1.7c-0.9,0.5-1.8,1.1-2.6,1.7c-0.7,0.7-1.4,1.5-2.1,2.3c-2.4-3.1-2.9-8.9,1-12.9
			c1.9-1.9,4.4-3,7.1-3c2.7,0,5.2,1,7.1,2.8c1.8,1.7,2.9,4,3.1,6.5s-0.5,5-2.1,6.9C1017.2,109.1,1015.5,107.7,1013.4,106.8
			L1013.4,106.8z M1019.9,112.3l3,3.1l-2.4,2.4l-3-3.1L1019.9,112.3z M1032,125.5c-0.1,0.3-0.3,0.7-0.5,0.9
			c-0.3,0.2-0.6,0.4-0.9,0.5c-0.3,0-0.6,0-0.8-0.1c-0.3-0.1-0.5-0.3-0.7-0.5l-2.2-2.2l-4.6-4.6c-0.1-0.1-0.2-0.2-0.3-0.3l2.5-2.5
			c0,0,0.1,0.1,0.1,0.1l7,7c0.2,0.2,0.4,0.5,0.5,0.8C1032.1,124.9,1032.1,125.3,1032,125.5L1032,125.5z"/>
		<path class="st0" d="M1010.2,121.8h-4.9c-0.7,0-1.1-0.3-1.1-0.9c0-0.6,0.4-0.9,1.1-0.9h9.8c0.7,0,1.1,0.4,1.1,0.9
			c0,0.5-0.4,0.9-1.1,0.9H1010.2z"/>
		<path class="st0" d="M1003.7,124.6h2.3c0.7,0,1,0.4,1,0.9c0,0.6-0.4,0.9-1.1,0.9c-1.6,0-3.1,0-4.7,0c-0.1,0-0.3,0-0.4,0
			c-0.1,0-0.2-0.1-0.3-0.2c-0.1-0.1-0.2-0.2-0.2-0.3c0-0.1-0.1-0.2-0.1-0.4c0-0.5,0.4-0.9,1-0.9H1003.7z"/>
		<path class="st0" d="M1016.7,124.6h2.4c0.7,0,1,0.4,1,0.9c0,0.6-0.4,0.9-1.1,0.9c-1.6,0-3.1,0-4.7,0c-0.1,0-0.3,0-0.4,0
			c-0.1,0-0.2-0.1-0.3-0.2s-0.2-0.2-0.2-0.3c-0.1-0.1-0.1-0.2-0.1-0.4c0-0.5,0.4-0.9,1.1-0.9H1016.7z"/>
		<path class="st0" d="M1009.3,125.5c0-0.1,0-0.2,0.1-0.3c0-0.1,0.1-0.2,0.2-0.3c0.1-0.1,0.2-0.1,0.3-0.2c0.1,0,0.2-0.1,0.3-0.1
			c0.1,0,0.2,0,0.3,0.1c0.1,0,0.2,0.1,0.3,0.2c0.1,0.1,0.1,0.2,0.2,0.3c0,0.1,0.1,0.2,0,0.3c0,0.2-0.1,0.5-0.3,0.6
			c-0.2,0.2-0.4,0.3-0.6,0.3c-0.2,0-0.5-0.1-0.6-0.3C1009.4,126,1009.3,125.7,1009.3,125.5L1009.3,125.5z"/>
	</g>
</g>
<path class="st5" d="M345,84c0-0.8-0.3-1.6-0.8-2.2c-0.5-0.7-1.2-1.2-2-1.5c-0.8-0.3-1.7-0.4-2.6-0.2c-0.9,0.2-1.7,0.5-2.3,1.1
	s-1.1,1.3-1.2,2c-0.2,0.8-0.1,1.6,0.3,2.3c0.3,0.7,0.9,1.4,1.7,1.8c0.7,0.4,1.6,0.7,2.5,0.7c1.2,0,2.3-0.4,3.2-1.2
	C344.5,86.1,345,85.1,345,84z"/>
<path class="st5" d="M345,69.5c0-0.9-0.3-1.8-0.8-2.5c-0.5-0.7-1.2-1.3-2-1.7c-0.8-0.3-1.7-0.4-2.6-0.3c-0.9,0.2-1.7,0.6-2.3,1.2
	c-0.6,0.6-1.1,1.4-1.2,2.3c-0.2,0.9-0.1,1.8,0.3,2.6c0.3,0.8,0.9,1.5,1.7,2c0.7,0.5,1.6,0.8,2.5,0.8c1.2,0,2.3-0.5,3.2-1.3
	C344.5,71.8,345,70.7,345,69.5L345,69.5z"/>
<path class="st5" d="M345,54.5c0-0.9-0.3-1.8-0.8-2.5c-0.5-0.7-1.2-1.3-2-1.7c-0.8-0.3-1.7-0.4-2.6-0.3c-0.9,0.2-1.7,0.6-2.3,1.2
	c-0.6,0.6-1.1,1.4-1.2,2.3c-0.2,0.9-0.1,1.8,0.3,2.6c0.3,0.8,0.9,1.5,1.7,2c0.7,0.5,1.6,0.8,2.5,0.8c0.6,0,1.2-0.1,1.7-0.3
	c0.5-0.2,1-0.6,1.5-1s0.7-0.9,1-1.5C344.9,55.7,345,55.1,345,54.5L345,54.5z"/>
<path class="st0" d="M568.9,174.1c0,0.9-0.3,1.7-0.8,2.5c-0.5,0.7-1.2,1.3-2,1.6c-0.8,0.3-1.7,0.4-2.6,0.3c-0.9-0.2-1.7-0.6-2.3-1.2
	s-1-1.4-1.2-2.3c-0.2-0.9-0.1-1.8,0.3-2.6c0.3-0.8,0.9-1.5,1.6-2c0.7-0.5,1.6-0.8,2.5-0.8c0.6,0,1.2,0.1,1.7,0.3s1,0.6,1.4,1
	c0.4,0.4,0.7,0.9,1,1.4C568.8,172.9,568.9,173.5,568.9,174.1L568.9,174.1z"/>
<path class="st0" d="M568.9,188.9c0,0.9-0.3,1.7-0.8,2.5c-0.5,0.7-1.2,1.3-2,1.6s-1.7,0.4-2.6,0.3c-0.9-0.2-1.7-0.6-2.3-1.2
	s-1-1.4-1.2-2.3c-0.2-0.9-0.1-1.8,0.3-2.6c0.3-0.8,0.9-1.5,1.6-2c0.7-0.5,1.6-0.8,2.5-0.8c1.2,0,2.3,0.5,3.2,1.3
	C568.4,186.6,568.9,187.7,568.9,188.9z"/>
<path class="st0" d="M568.9,203.8c0,0.9-0.3,1.7-0.8,2.5c-0.5,0.7-1.2,1.3-2,1.6c-0.8,0.3-1.7,0.4-2.6,0.3c-0.9-0.2-1.7-0.6-2.3-1.2
	s-1-1.4-1.2-2.3c-0.2-0.9-0.1-1.8,0.3-2.6c0.3-0.8,0.9-1.5,1.6-2c0.7-0.5,1.6-0.8,2.5-0.8c1.2,0,2.3,0.5,3.1,1.3
	C568.4,201.5,568.9,202.6,568.9,203.8L568.9,203.8z"/>
<path class="st0" d="M117.9,174.1c0,0.9-0.3,1.7-0.8,2.5c-0.5,0.7-1.2,1.3-2,1.6c-0.8,0.3-1.7,0.4-2.6,0.3c-0.9-0.2-1.7-0.6-2.3-1.2
	s-1-1.4-1.2-2.3c-0.2-0.9-0.1-1.8,0.3-2.6c0.3-0.8,0.9-1.5,1.6-2c0.7-0.5,1.6-0.8,2.5-0.8c0.6,0,1.2,0.1,1.7,0.3
	c0.5,0.2,1,0.6,1.4,1c0.4,0.4,0.7,0.9,1,1.4C117.8,172.9,117.9,173.5,117.9,174.1L117.9,174.1z"/>
<path class="st0" d="M117.9,188.9c0,0.9-0.3,1.7-0.8,2.5c-0.5,0.7-1.2,1.3-2,1.6c-0.8,0.3-1.7,0.4-2.6,0.3c-0.9-0.2-1.7-0.6-2.3-1.2
	s-1-1.4-1.2-2.3c-0.2-0.9-0.1-1.8,0.3-2.6c0.3-0.8,0.9-1.5,1.6-2c0.7-0.5,1.6-0.8,2.5-0.8c1.2,0,2.3,0.5,3.1,1.3
	C117.4,186.6,117.9,187.7,117.9,188.9z"/>
<path class="st0" d="M117.9,203.8c0,0.9-0.3,1.7-0.8,2.5c-0.5,0.7-1.2,1.3-2,1.6c-0.8,0.3-1.7,0.4-2.6,0.3c-0.9-0.2-1.7-0.6-2.3-1.2
	s-1-1.4-1.2-2.3c-0.2-0.9-0.1-1.8,0.3-2.6c0.3-0.8,0.9-1.5,1.6-2c0.7-0.5,1.6-0.8,2.5-0.8c1.2,0,2.3,0.5,3.1,1.3
	S117.9,202.6,117.9,203.8L117.9,203.8z"/>
<path class="st5" d="M788.5,88c2.5,0,4.5-1.8,4.5-4s-2-4-4.5-4s-4.5,1.8-4.5,4S786,88,788.5,88z"/>
<path class="st5" d="M793,69.5c0-0.9-0.3-1.8-0.8-2.5c-0.5-0.7-1.2-1.3-2-1.7c-0.8-0.3-1.7-0.4-2.6-0.3c-0.9,0.2-1.7,0.6-2.3,1.2
	c-0.6,0.6-1.1,1.4-1.2,2.3c-0.2,0.9-0.1,1.8,0.3,2.6c0.3,0.8,0.9,1.5,1.7,2c0.7,0.5,1.6,0.8,2.5,0.8c1.2,0,2.3-0.5,3.2-1.3
	C792.5,71.8,793,70.7,793,69.5L793,69.5z"/>
<path class="st5" d="M793,54.5c0-0.9-0.3-1.8-0.8-2.5c-0.5-0.7-1.2-1.3-2-1.7c-0.8-0.3-1.7-0.4-2.6-0.3c-0.9,0.2-1.7,0.6-2.3,1.2
	c-0.6,0.6-1.1,1.4-1.2,2.3c-0.2,0.9-0.1,1.8,0.3,2.6c0.3,0.8,0.9,1.5,1.7,2c0.7,0.5,1.6,0.8,2.5,0.8c0.6,0,1.2-0.1,1.7-0.3
	c0.5-0.2,1-0.6,1.5-1c0.4-0.4,0.7-0.9,1-1.5C792.9,55.7,793,55.1,793,54.5L793,54.5z"/>
<path class="st0" d="M222,110h-3.6c0-28.2-11-55.2-30.7-75.2c-19.7-19.9-46.3-31.1-74.1-31.1C85.6,3.7,59,14.9,39.3,34.8
	C19.6,54.8,8.6,81.8,8.6,110H5c0-29.2,11.4-57.2,31.8-77.8S84.7,0,113.5,0s56.4,11.6,76.7,32.2S222,80.8,222,110L222,110z"/>
<path class="st5" d="M448.9,148h-3.7c0,28.2-11.1,55.2-30.9,75.2c-19.8,19.9-46.6,31.1-74.5,31.1c-27.9,0-54.7-11.2-74.5-31.1
	c-19.8-19.9-30.9-47-30.9-75.2H231c0,29.2,11.5,57.2,31.9,77.8c20.4,20.6,48.2,32.2,77.1,32.2s56.6-11.6,77.1-32.2
	C437.5,205.2,449,177.2,448.9,148L448.9,148z"/>
<path class="st5" d="M241,142.5c0,1.5-0.5,2.9-1.3,4.2c-0.9,1.2-2.1,2.2-3.6,2.8c-1.5,0.6-3.1,0.7-4.6,0.4c-1.6-0.3-3-1-4.1-2.1
	c-1.1-1-1.9-2.4-2.2-3.8c-0.3-1.5-0.2-3,0.5-4.3c0.6-1.4,1.6-2.5,2.9-3.4c1.3-0.8,2.9-1.3,4.4-1.3c2.1,0,4.2,0.8,5.6,2.2
	C240.1,138.6,241,140.5,241,142.5L241,142.5z M237.1,142.5c0-0.8-0.2-1.5-0.7-2.2c-0.5-0.6-1.1-1.1-1.9-1.4s-1.6-0.4-2.4-0.2
	c-0.8,0.2-1.6,0.5-2.1,1.1c-0.6,0.5-1,1.2-1.1,2c-0.2,0.8-0.1,1.5,0.2,2.3c0.3,0.7,0.9,1.3,1.5,1.7c0.7,0.4,1.5,0.7,2.3,0.6
	c0.5,0,1.1-0.1,1.6-0.3c0.5-0.2,1-0.5,1.3-0.8c0.4-0.4,0.7-0.8,0.9-1.3C237,143.5,237.1,143,237.1,142.5L237.1,142.5z"/>
<path class="st0" d="M674,110h-3.7c0-28.2-11.1-55.2-31-75.2c-19.8-19.9-46.8-31.1-74.8-31.1s-55,11.2-74.8,31.1
	c-19.8,19.9-31,47-31,75.2H455c0-29.2,11.5-57.2,32.1-77.8S535.5,0,564.5,0s56.9,11.6,77.4,32.2C662.5,52.8,674,80.8,674,110
	L674,110z"/>
<path class="st0" d="M457,123c-1.6,0-3.1-0.4-4.4-1.3c-1.3-0.8-2.3-2-2.9-3.4c-0.6-1.4-0.8-2.9-0.5-4.3c0.3-1.5,1.1-2.8,2.2-3.8
	c1.1-1,2.5-1.8,4.1-2.1c1.6-0.3,3.2-0.1,4.6,0.4c1.5,0.6,2.7,1.5,3.6,2.8c0.9,1.2,1.3,2.7,1.3,4.2c0,2-0.9,3.9-2.4,5.3
	C461.2,122.2,459.1,123,457,123L457,123z M457,111.6c-0.8,0-1.6,0.2-2.3,0.6c-0.7,0.4-1.2,1-1.5,1.8c-0.3,0.7-0.4,1.5-0.2,2.3
	s0.6,1.5,1.1,2c0.6,0.5,1.3,0.9,2.1,1.1c0.8,0.1,1.7,0.1,2.4-0.2c0.8-0.3,1.4-0.8,1.9-1.4c0.5-0.6,0.7-1.4,0.7-2.2
	c0-0.5-0.1-1-0.3-1.5c-0.2-0.5-0.5-0.9-0.9-1.3c-0.4-0.4-0.8-0.6-1.3-0.8C458.1,111.7,457.5,111.6,457,111.6z"/>
<path class="st5" d="M898,148h-3.7c0,28.2-11.1,55.2-31,75.2c-19.8,19.9-46.8,31.1-74.8,31.1c-28.1,0-55-11.2-74.8-31.1
	c-19.8-19.9-31-47-31-75.2H679c0,29.2,11.5,57.2,32.1,77.8c20.5,20.6,48.4,32.2,77.4,32.2s56.9-11.6,77.4-32.2
	C886.5,205.2,898,177.2,898,148L898,148z"/>
<path class="st5" d="M689,142.5c0,1.5-0.5,2.9-1.3,4.2c-0.9,1.2-2.1,2.2-3.6,2.8c-1.5,0.6-3.1,0.7-4.6,0.4c-1.6-0.3-3-1-4.1-2.1
	c-1.1-1.1-1.9-2.4-2.2-3.8c-0.3-1.5-0.1-3,0.5-4.3c0.6-1.4,1.6-2.5,3-3.4c1.3-0.8,2.9-1.3,4.5-1.3c2.1,0,4.1,0.8,5.6,2.2
	C688.2,138.6,689,140.5,689,142.5L689,142.5z M685.2,142.5c0-0.8-0.2-1.5-0.7-2.2c-0.5-0.6-1.1-1.1-1.9-1.4s-1.6-0.4-2.4-0.2
	c-0.8,0.2-1.6,0.5-2.1,1.1c-0.6,0.5-1,1.2-1.1,2c-0.2,0.8-0.1,1.5,0.2,2.3c0.3,0.7,0.9,1.3,1.5,1.7c0.7,0.4,1.5,0.7,2.3,0.6
	c1.1,0,2.2-0.4,2.9-1.2C684.7,144.5,685.2,143.5,685.2,142.5z"/>
<path class="st0" d="M1121,110h-3.6c0-28.2-11-55.2-30.7-75.2c-19.7-19.9-46.3-31.1-74.2-31.1c-27.8,0-54.5,11.2-74.1,31.1
	c-19.7,19.9-30.7,47-30.7,75.2H904c0-29.2,11.4-57.2,31.8-77.8C956.1,11.6,983.7,0,1012.5,0c28.8,0,56.4,11.6,76.7,32.2
	S1121,80.8,1121,110L1121,110z"/>
<path class="st0" d="M905.1,123c-1.4,0-2.7-0.4-3.9-1.2c-1.2-0.8-2.1-2-2.6-3.3c-0.5-1.4-0.7-2.9-0.4-4.3c0.3-1.5,0.9-2.8,1.9-3.9
	c1-1.1,2.2-1.8,3.6-2.1c1.4-0.3,2.8-0.2,4.1,0.4c1.3,0.6,2.4,1.5,3.2,2.7c0.8,1.2,1.2,2.7,1.2,4.2c0,2-0.7,3.9-2,5.3
	C908.7,122.2,906.9,123,905.1,123L905.1,123z M905.1,111.6c-0.7,0-1.4,0.2-2,0.6c-0.6,0.4-1.1,1-1.4,1.8c-0.3,0.7-0.4,1.5-0.2,2.3
	s0.5,1.5,1,2c0.5,0.5,1.2,0.9,1.9,1.1c0.7,0.1,1.4,0.1,2.1-0.2c0.7-0.3,1.2-0.8,1.6-1.4c0.4-0.6,0.6-1.4,0.6-2.2
	c0-0.5-0.1-1-0.3-1.5c-0.2-0.5-0.5-0.9-0.8-1.3c-0.3-0.4-0.7-0.6-1.2-0.8C906,111.7,905.6,111.6,905.1,111.6z"/>
<path class="st6" d="M342.8,167c-0.3,0-0.6,0.1-0.9,0.4l-4.6,5.2c-0.1,0.1-0.2,0.3-0.3,0.4c-0.1,0.2-0.1,0.3-0.1,0.5
	c0,0.4,0.1,0.7,0.4,1c0.1,0.1,0.3,0.2,0.4,0.3s0.3,0.1,0.5,0.1c0.2,0,0.3,0,0.5-0.1c0.1-0.1,0.3-0.2,0.4-0.3l4.6-5.2
	c0.2-0.2,0.3-0.4,0.3-0.7c0-0.3,0-0.6-0.1-0.8c-0.1-0.3-0.3-0.5-0.5-0.6C343.2,167.1,343,167,342.8,167L342.8,167z"/>
<g>
	<defs>
		<rect id="SVGID_00000113337540444365031430000004373842291117736841_" x="319.1" y="125.1" width="42.8" height="45.6"/>
	</defs>
	<clipPath id="SVGID_00000134245126270786164640000016387780329758712758_">
		<use xlink:href="#SVGID_00000113337540444365031430000004373842291117736841_"  style="overflow:visible;"/>
	</clipPath>
	<g style="clip-path:url(#SVGID_00000134245126270786164640000016387780329758712758_);">
		<path class="st5" d="M360.9,160.6c-1.3-1.3-2.5-2.6-3.8-3.8c-0.1-0.1-0.2-0.2-0.2-0.3c-0.1-0.1-0.1-0.3-0.1-0.4
			c0-7.3,0-14.6,0-21.9c0-0.5-0.2-0.9-0.5-1.2c-2.1-2.4-4.1-4.8-6.2-7.2c-0.2-0.2-0.4-0.4-0.7-0.6h-26.9c-0.1,0-0.1,0.1-0.2,0.1
			c-0.9,0.2-1.7,0.7-2.3,1.4c-0.6,0.7-0.9,1.6-0.9,2.6c0,0.8,0,1.5,0,2.3c0,1,0,10.5,0,14.3v7.8c0,4.4,0,8.8,0,13.1
			c0,0.8,0.2,1.6,0.6,2.2c0.4,0.7,1,1.2,1.8,1.5c0.3,0.1,0.7,0.3,1,0.3h30.8c0.2-0.1,0.4-0.1,0.6-0.2c0.8-0.2,1.5-0.7,2-1.4
			c0.5-0.7,0.8-1.5,0.8-2.3c0-0.1,0-0.3,0-0.3c0.7,0.1,1.4,0.1,2,0.1c0.7-0.1,1.3-0.4,1.8-0.8c0.5-0.4,0.9-1,1-1.7
			c0.2-0.6,0.3-1.2,0.2-1.9C361.7,161.6,361.4,161.1,360.9,160.6L360.9,160.6z M350.1,128.6l0.1,0l3.7,4.3h-3.4
			c-0.2,0-0.4,0-0.4-0.3C350.1,131.2,350.1,129.9,350.1,128.6L350.1,128.6z M355,166.4c-0.1,1.7-0.9,2.5-2.6,2.5c-9.7,0-19.3,0-29,0
			c-0.3,0-0.7,0-1-0.1c-0.3-0.1-0.6-0.3-0.9-0.6c-0.2-0.2-0.4-0.5-0.6-0.9c-0.1-0.3-0.2-0.7-0.2-1c0-7.3,0-14.5,0-21.8v-15.2
			c0-0.3,0-0.7,0.1-1c0.1-0.3,0.3-0.6,0.5-0.8c0.2-0.2,0.5-0.4,0.8-0.5c0.3-0.1,0.7-0.1,1-0.1h25v5.6c0,0.3,0,0.6,0.1,0.8
			c0.1,0.3,0.3,0.5,0.5,0.7c0.2,0.2,0.5,0.4,0.7,0.5c0.3,0.1,0.6,0.1,0.8,0.1h4.5v20c-0.1,0-0.1-0.1-0.2-0.1
			c-1.9-1.9-3.9-3.9-5.8-5.8c-0.1-0.1-0.1-0.1-0.1-0.2c0-0.1,0-0.2,0.1-0.3c1-2.1,1.4-4.4,1.1-6.8c-0.2-1.6-0.7-3.1-1.5-4.4
			c-0.8-1.4-1.8-2.6-3.1-3.5c-1.3-1-2.7-1.7-4.2-2.1c-1.5-0.4-3.1-0.5-4.7-0.3c-1.6,0.2-3.1,0.8-4.4,1.6s-2.5,1.9-3.5,3.1
			c-0.9,1.3-1.6,2.7-2,4.2c-0.4,1.5-0.5,3.1-0.2,4.7c0.3,1.8,1,3.6,2.1,5.1c1.1,1.5,2.5,2.8,4.1,3.7c1.6,0.9,3.5,1.4,5.3,1.4
			c1.9,0,3.7-0.4,5.4-1.2c0.1-0.1,0.2-0.1,0.4-0.1c0.1,0,0.2,0.1,0.3,0.2c3.3,3.3,6.5,6.6,9.9,9.8c0.4,0.3,0.7,0.7,0.9,1.2
			C355,165.4,355.1,165.9,355,166.4L355,166.4z M338.9,146.1c1.3,0.1,2.6,0.6,3.6,1.4c1.1,0.8,1.9,1.8,2.4,3
			c-1.8,1.6-4.1,2.5-6.5,2.6c-2.4,0.1-4.7-0.7-6.6-2.2c-0.8-0.6-0.8-0.4-0.2-1.3c0.7-1.2,1.8-2.2,3.1-2.8
			C336,146.1,337.5,145.9,338.9,146.1L338.9,146.1z M334.5,140.7c0-0.9,0.4-1.8,1-2.5c0.7-0.7,1.6-1,2.5-1.1c0.5,0,0.9,0.1,1.4,0.3
			c0.4,0.2,0.8,0.4,1.2,0.8c0.3,0.3,0.6,0.7,0.8,1.1c0.2,0.4,0.3,0.9,0.3,1.4c0,0.5-0.1,0.9-0.3,1.4c-0.2,0.4-0.4,0.8-0.8,1.2
			c-0.3,0.3-0.7,0.6-1.1,0.8c-0.4,0.2-0.9,0.3-1.4,0.3c-0.9,0-1.8-0.4-2.5-1C334.9,142.5,334.5,141.6,334.5,140.7L334.5,140.7z
			 M341.4,144.8c0.7-0.6,1.3-1.4,1.6-2.2c0.3-0.9,0.4-1.8,0.3-2.7c-0.2-1.3-0.9-2.5-1.9-3.3c-1.1-0.8-2.4-1.3-3.7-1.2
			c-1.3,0.1-2.6,0.7-3.5,1.7c-0.5,0.5-0.9,1.1-1.1,1.8c-0.2,0.7-0.3,1.4-0.3,2.1c0,0.7,0.2,1.4,0.5,2.1c0.3,0.6,0.8,1.2,1.3,1.7
			c-0.9,0.5-1.8,1.1-2.6,1.7c-0.7,0.7-1.4,1.5-2.1,2.3c-2.4-3.1-2.9-8.9,1.1-12.9c1.9-1.9,4.4-3,7.1-3c2.7,0,5.2,1,7.1,2.8
			c1.8,1.7,2.9,4,3.1,6.5c0.2,2.5-0.5,5-2.1,6.9C345.2,147.1,343.5,145.6,341.4,144.8L341.4,144.8z M347.9,150.2l3.1,3.1l-2.4,2.4
			l-3.1-3.1L347.9,150.2z M360,163.5c-0.1,0.3-0.3,0.7-0.5,0.9c-0.3,0.2-0.6,0.4-0.9,0.5c-0.3,0-0.6,0-0.8-0.1
			c-0.3-0.1-0.5-0.3-0.7-0.5l-2.2-2.2l-4.6-4.6c-0.1-0.1-0.2-0.2-0.3-0.3l2.5-2.5c0,0,0.1,0.1,0.1,0.1l7,7c0.2,0.2,0.4,0.5,0.5,0.8
			C360.1,162.9,360.1,163.2,360,163.5L360,163.5z"/>
		<path class="st5" d="M338.2,159.8h-4.9c-0.7,0-1.1-0.3-1.1-0.9c0-0.6,0.4-0.9,1.1-0.9h9.8c0.7,0,1.1,0.4,1.1,0.9
			c0,0.5-0.4,0.9-1.1,0.9H338.2z"/>
		<path class="st5" d="M331.7,162.6h2.3c0.7,0,1,0.4,1,0.9c0,0.6-0.4,0.9-1.1,0.9c-1.6,0-3.1,0-4.7,0c-0.1,0-0.3,0-0.4,0
			c-0.1,0-0.2-0.1-0.3-0.2s-0.2-0.2-0.2-0.3c-0.1-0.1-0.1-0.2-0.1-0.4c0-0.5,0.4-0.9,1-0.9H331.7z"/>
		<path class="st5" d="M344.7,162.6h2.4c0.7,0,1,0.4,1,0.9c0,0.6-0.4,0.9-1.1,0.9c-1.6,0-3.1,0-4.7,0c-0.1,0-0.3,0-0.4,0
			c-0.1,0-0.2-0.1-0.3-0.2c-0.1-0.1-0.2-0.2-0.2-0.3c-0.1-0.1-0.1-0.2-0.1-0.4c0-0.5,0.4-0.9,1-0.9H344.7z"/>
		<path class="st5" d="M337.3,163.5c0-0.1,0-0.2,0.1-0.3c0-0.1,0.1-0.2,0.2-0.3c0.1-0.1,0.2-0.1,0.3-0.2c0.1,0,0.2-0.1,0.3-0.1
			c0.1,0,0.2,0,0.3,0.1c0.1,0,0.2,0.1,0.3,0.2c0.1,0.1,0.1,0.2,0.2,0.3c0,0.1,0.1,0.2,0,0.3c0,0.2-0.1,0.5-0.3,0.6s-0.4,0.3-0.6,0.3
			c-0.2,0-0.5-0.1-0.6-0.3C337.4,163.9,337.3,163.7,337.3,163.5L337.3,163.5z"/>
	</g>
</g>
<g>
	<defs>
		<rect id="SVGID_00000081643164927586487790000003091064483526257800_" x="767.1" y="125.1" width="42.8" height="45.6"/>
	</defs>
	<clipPath id="SVGID_00000016036278160312694250000017915134275216113540_">
		<use xlink:href="#SVGID_00000081643164927586487790000003091064483526257800_"  style="overflow:visible;"/>
	</clipPath>
	<g style="clip-path:url(#SVGID_00000016036278160312694250000017915134275216113540_);">
		<path class="st5" d="M808.9,160.6c-1.3-1.3-2.5-2.6-3.8-3.8c-0.1-0.1-0.2-0.2-0.2-0.3c-0.1-0.1-0.1-0.3-0.1-0.4
			c0-7.3,0-14.6,0-21.9c0-0.5-0.2-0.9-0.5-1.2c-2.1-2.4-4.1-4.8-6.2-7.2c-0.2-0.2-0.4-0.4-0.7-0.6h-26.9c-0.1,0-0.1,0.1-0.2,0.1
			c-0.9,0.2-1.7,0.7-2.3,1.4c-0.6,0.7-0.9,1.6-0.9,2.6c0,0.8,0,1.5,0,2.3c0,1,0,10.5,0,14.3v7.8c0,4.4,0,8.8,0,13.1
			c0,0.8,0.2,1.6,0.6,2.2c0.4,0.7,1,1.2,1.8,1.5c0.3,0.1,0.7,0.3,1,0.3h30.8c0.2-0.1,0.4-0.1,0.6-0.2c0.8-0.2,1.5-0.7,2-1.4
			c0.5-0.7,0.8-1.5,0.8-2.3c0-0.1,0-0.3,0-0.3c0.7,0.1,1.4,0.1,2,0.1c0.7-0.1,1.3-0.4,1.8-0.8c0.5-0.4,0.9-1,1-1.7
			c0.2-0.6,0.3-1.2,0.2-1.9C809.7,161.6,809.4,161.1,808.9,160.6L808.9,160.6z M798.1,128.6l0.1,0l3.7,4.3h-3.4
			c-0.2,0-0.4,0-0.4-0.3C798.1,131.2,798.1,129.9,798.1,128.6L798.1,128.6z M803,166.4c-0.1,1.7-0.9,2.5-2.6,2.5c-9.7,0-19.3,0-29,0
			c-0.3,0-0.7,0-1-0.1s-0.6-0.3-0.9-0.6c-0.2-0.2-0.4-0.5-0.6-0.9c-0.1-0.3-0.2-0.7-0.2-1c0-7.3,0-14.5,0-21.8v-15.2
			c0-0.3,0-0.7,0.1-1c0.1-0.3,0.3-0.6,0.5-0.8c0.2-0.2,0.5-0.4,0.8-0.5c0.3-0.1,0.7-0.1,1-0.1h25v5.6c0,0.3,0,0.6,0.1,0.8
			c0.1,0.3,0.3,0.5,0.5,0.7c0.2,0.2,0.4,0.4,0.7,0.5c0.3,0.1,0.6,0.1,0.8,0.1h4.5v20c-0.1,0-0.1-0.1-0.2-0.1
			c-1.9-1.9-3.9-3.9-5.8-5.8c-0.1-0.1-0.1-0.1-0.1-0.2c0-0.1,0-0.2,0.1-0.3c1-2.1,1.4-4.4,1.1-6.8c-0.2-1.6-0.7-3.1-1.5-4.4
			c-0.8-1.4-1.8-2.6-3.1-3.5c-1.3-1-2.7-1.7-4.2-2.1c-1.5-0.4-3.1-0.5-4.7-0.3c-1.6,0.2-3.1,0.8-4.4,1.6s-2.5,1.9-3.5,3.1
			c-0.9,1.3-1.6,2.7-2,4.2c-0.4,1.5-0.5,3.1-0.2,4.7c0.3,1.8,1,3.6,2.1,5.1c1.1,1.5,2.5,2.8,4.1,3.7c1.6,0.9,3.5,1.4,5.3,1.4
			c1.9,0,3.7-0.4,5.4-1.2c0.1-0.1,0.2-0.1,0.4-0.1c0.1,0,0.2,0.1,0.3,0.2c3.3,3.3,6.5,6.6,9.9,9.8c0.4,0.3,0.7,0.7,0.9,1.2
			C803,165.4,803.1,165.9,803,166.4L803,166.4z M786.9,146.1c1.3,0.1,2.6,0.6,3.6,1.4c1.1,0.8,1.9,1.8,2.4,3
			c-1.8,1.6-4.1,2.5-6.5,2.6c-2.4,0.1-4.7-0.7-6.6-2.2c-0.8-0.6-0.8-0.4-0.2-1.3c0.7-1.2,1.8-2.2,3.1-2.8
			C784,146.1,785.5,145.9,786.9,146.1L786.9,146.1z M782.5,140.7c0-0.9,0.4-1.8,1-2.5c0.7-0.7,1.6-1,2.5-1.1c0.5,0,0.9,0.1,1.4,0.3
			c0.4,0.2,0.8,0.4,1.2,0.8c0.3,0.3,0.6,0.7,0.8,1.1c0.2,0.4,0.3,0.9,0.3,1.4c0,0.5-0.1,0.9-0.3,1.4c-0.2,0.4-0.4,0.8-0.8,1.2
			c-0.3,0.3-0.7,0.6-1.1,0.8c-0.4,0.2-0.9,0.3-1.4,0.3c-0.9,0-1.8-0.4-2.5-1C782.9,142.5,782.5,141.6,782.5,140.7L782.5,140.7z
			 M789.4,144.8c0.7-0.6,1.3-1.4,1.6-2.2c0.3-0.9,0.4-1.8,0.3-2.7c-0.2-1.3-0.9-2.5-1.9-3.3c-1.1-0.8-2.4-1.3-3.7-1.2
			c-1.3,0.1-2.6,0.7-3.5,1.7c-0.5,0.5-0.9,1.1-1.1,1.8c-0.2,0.7-0.3,1.4-0.3,2.1c0,0.7,0.2,1.4,0.5,2.1c0.3,0.6,0.8,1.2,1.3,1.7
			c-0.9,0.5-1.8,1.1-2.6,1.7c-0.7,0.7-1.4,1.5-2.1,2.3c-2.4-3.1-2.9-8.9,1.1-12.9c1.9-1.9,4.4-3,7.1-3c2.7,0,5.2,1,7.2,2.8
			c1.8,1.7,2.9,4,3.1,6.5c0.2,2.5-0.5,5-2.1,6.9C793.2,147.1,791.5,145.6,789.4,144.8L789.4,144.8z M795.9,150.2l3.1,3.1l-2.4,2.4
			l-3.1-3.1L795.9,150.2z M808,163.5c-0.1,0.3-0.3,0.7-0.5,0.9c-0.3,0.2-0.6,0.4-0.9,0.5c-0.3,0-0.6,0-0.8-0.1
			c-0.3-0.1-0.5-0.3-0.7-0.5l-2.2-2.2l-4.6-4.6c-0.1-0.1-0.2-0.2-0.3-0.3l2.5-2.5c0,0,0.1,0.1,0.1,0.1l7,7c0.2,0.2,0.4,0.5,0.5,0.8
			C808.1,162.9,808.1,163.2,808,163.5L808,163.5z"/>
		<path class="st5" d="M786.2,159.8h-4.9c-0.7,0-1.1-0.3-1.1-0.9c0-0.6,0.4-0.9,1.1-0.9h9.8c0.7,0,1.1,0.4,1.1,0.9s-0.4,0.9-1.1,0.9
			H786.2z"/>
		<path class="st5" d="M779.7,162.6h2.3c0.7,0,1,0.4,1,0.9c0,0.6-0.4,0.9-1.1,0.9c-1.6,0-3.1,0-4.7,0c-0.1,0-0.3,0-0.4,0
			c-0.1,0-0.2-0.1-0.3-0.2c-0.1-0.1-0.2-0.2-0.2-0.3c-0.1-0.1-0.1-0.2-0.1-0.4c0-0.5,0.4-0.9,1-0.9H779.7z"/>
		<path class="st5" d="M792.7,162.6h2.4c0.7,0,1,0.4,1,0.9c0,0.6-0.4,0.9-1.1,0.9c-1.6,0-3.1,0-4.7,0c-0.1,0-0.3,0-0.4,0
			c-0.1,0-0.2-0.1-0.3-0.2c-0.1-0.1-0.2-0.2-0.2-0.3c-0.1-0.1-0.1-0.2-0.1-0.4c0-0.5,0.4-0.9,1-0.9H792.7z"/>
		<path class="st5" d="M785.3,163.5c0-0.1,0-0.2,0.1-0.3c0-0.1,0.1-0.2,0.2-0.3c0.1-0.1,0.2-0.1,0.3-0.2c0.1,0,0.2-0.1,0.3-0.1
			c0.1,0,0.2,0,0.3,0.1c0.1,0,0.2,0.1,0.3,0.2c0.1,0.1,0.1,0.2,0.2,0.3c0,0.1,0.1,0.2,0,0.3c0,0.2-0.1,0.5-0.3,0.6
			c-0.2,0.2-0.4,0.3-0.6,0.3c-0.2,0-0.5-0.1-0.6-0.3C785.4,163.9,785.3,163.7,785.3,163.5L785.3,163.5z"/>
	</g>
</g>
<path class="st0" d="M7.5,123c-1.5,0-2.9-0.4-4.2-1.3s-2.2-2-2.8-3.4C0,117-0.1,115.5,0.1,114c0.3-1.5,1-2.8,2.1-3.8
	c1-1,2.4-1.8,3.8-2.1c1.5-0.3,3-0.1,4.3,0.4c1.4,0.6,2.5,1.5,3.4,2.8c0.8,1.2,1.3,2.7,1.3,4.2c0,2-0.8,3.9-2.2,5.3
	C11.4,122.2,9.5,123,7.5,123L7.5,123z M7.5,111.6c-0.8,0-1.5,0.2-2.2,0.6c-0.6,0.4-1.2,1-1.4,1.8c-0.3,0.7-0.4,1.5-0.2,2.3
	c0.2,0.8,0.5,1.5,1.1,2c0.5,0.5,1.2,0.9,2,1.1c0.8,0.1,1.5,0.1,2.3-0.2c0.7-0.3,1.3-0.8,1.8-1.4c0.4-0.6,0.7-1.4,0.6-2.2
	c0-0.5-0.1-1-0.3-1.5c-0.2-0.5-0.5-0.9-0.8-1.3c-0.4-0.4-0.8-0.6-1.3-0.8S8,111.6,7.5,111.6z"/>
</svg>
