<?xml version="1.0" encoding="utf-8"?>
<!-- Generator: Adobe Illustrator 26.0.2, SVG Export Plug-In . SVG Version: 6.00 Build 0)  -->
<svg version="1.1" id="Layer_1" xmlns="http://www.w3.org/2000/svg" xmlns:xlink="http://www.w3.org/1999/xlink" x="0px" y="0px"
	 viewBox="0 0 1383 801" style="enable-background:new 0 0 1383 801;" xml:space="preserve">
<style type="text/css">
	.st0{clip-path:url(#SVGID_00000010284372982868484170000013145605418827944372_);}
	.st1{fill:#DADADA;}
	.st2{fill:#FFFFFF;}
	.st3{opacity:5.000000e-02;fill:url(#SVGID_00000159443076707061616590000007676843793561289105_);enable-background:new    ;}
	.st4{fill:#E1E1E1;}
	.st5{fill:url(#SVGID_00000132057511976205921560000005979102673890847140_);}
	.st6{fill:url(#SVGID_00000063610353653200243870000017531837056162733501_);}
	.st7{fill:url(#SVGID_00000029047367922596686940000013141052218703552683_);}
	.st8{fill:url(#SVGID_00000051378276105901426010000009691995352317537980_);}
	.st9{fill:#ECECEC;}
	.st10{fill:url(#SVGID_00000047023308594635038940000012088190539311495856_);}
	.st11{fill:url(#SVGID_00000070834411109967681640000000648803874130325121_);}
	.st12{fill:url(#SVGID_00000106137007876449142080000007628038467930395290_);}
	.st13{fill:url(#SVGID_00000049217189744292970550000009976245280258098832_);}
	.st14{fill:url(#SVGID_00000151524457339959534350000012693814356146292650_);}
	.st15{fill:url(#SVGID_00000014609630274405099730000010089132837398348727_);}
	.st16{fill:url(#SVGID_00000173130209053385514080000002800631475181809809_);}
	.st17{fill:#ABABAB;}
	.st18{fill:url(#SVGID_00000029033151934251256310000001349224223850936971_);}
	.st19{opacity:0.3;fill:url(#SVGID_00000048486881386822037830000011332771569407292291_);enable-background:new    ;}
	.st20{opacity:0.1;}
	.st21{fill:#C8C8C8;}
	.st22{opacity:5.000000e-02;}
	.st23{opacity:0.5;fill:url(#SVGID_00000180335585927645997650000015284599490824393387_);enable-background:new    ;}
	.st24{fill:#71BCB4;}
	.st25{clip-path:url(#SVGID_00000073684810763731541240000008503685579108862340_);}
	.st26{fill:#BED5DC;}
	.st27{fill:#F2F7F6;}
	.st28{opacity:0.4;}
	.st29{opacity:0.4;fill:#69A1C4;enable-background:new    ;}
	.st30{fill:#EAF4F2;}
	.st31{fill:#69A1C4;}
	.st32{fill:#E28569;}
	.st33{fill:#42428E;}
	.st34{fill:#F7B686;}
	.st35{fill:#DD8964;}
	.st36{fill:#F7F7F7;}
	.st37{fill:#EFA878;}
	.st38{fill:#B2C9C6;}
	.st39{fill:#2F1A31;}
	.st40{fill:#79A39B;}
</style>
<g>
	
		<image style="overflow:visible;" width="1355" height="100" xlink:href="114FECC7FB5F66D8.png"  transform="matrix(1 0 0 1 14 678)">
	</image>
</g>
<g>
	<defs>
		<rect id="SVGID_1_" x="33" width="1317" height="736"/>
	</defs>
	<clipPath id="SVGID_00000083773796847407275950000002052754894123962791_">
		<use xlink:href="#SVGID_1_"  style="overflow:visible;"/>
	</clipPath>
	<g style="clip-path:url(#SVGID_00000083773796847407275950000002052754894123962791_);">
		<path class="st1" d="M1191.4,710.6H185.3c-8.7,0-17-3.4-23.2-9.3c-6.1-5.9-9.5-14-9.5-22.3V31.6c0-4.1,0.8-8.2,2.4-12.1
			c1.6-3.8,4-7.3,7.1-10.3c3-2.9,6.6-5.3,10.6-6.9c4-1.6,8.2-2.4,12.6-2.5h1006.2c4.3,0,8.6,0.8,12.6,2.4c4,1.6,7.6,3.9,10.7,6.9
			c3,2.9,5.4,6.4,7.1,10.3c1.6,3.8,2.5,7.9,2.4,12.1v647.3c0,4.1-0.8,8.3-2.4,12.1c-1.6,3.8-4,7.3-7.1,10.3c-3,2.9-6.7,5.3-10.7,6.9
			C1200,709.8,1195.8,710.6,1191.4,710.6L1191.4,710.6z"/>
		<path class="st2" d="M1185.8,48.9H190.6c-0.5,0-0.9,0.4-0.9,0.9v593.6c0,0.5,0.4,0.9,0.9,0.9h995.1c0.5,0,0.9-0.4,0.9-0.9V49.8
			C1186.7,49.3,1186.3,48.9,1185.8,48.9z"/>
		
			<linearGradient id="SVGID_00000160879776238056239690000009745873992351643280_" gradientUnits="userSpaceOnUse" x1="152.395" y1="115.976" x2="1224.02" y2="115.976" gradientTransform="matrix(1 0 0 -1 0 802)">
			<stop  offset="0" style="stop-color:#231F20"/>
			<stop  offset="2.000000e-02" style="stop-color:#343031"/>
			<stop  offset="9.000000e-02" style="stop-color:#636161"/>
			<stop  offset="0.15" style="stop-color:#8C8B8B"/>
			<stop  offset="0.22" style="stop-color:#AEADAD"/>
			<stop  offset="0.29" style="stop-color:#C8C7C7"/>
			<stop  offset="0.36" style="stop-color:#DADADA"/>
			<stop  offset="0.43" style="stop-color:#E5E5E5"/>
			<stop  offset="0.51" style="stop-color:#E9E9E9"/>
			<stop  offset="0.62" style="stop-color:#E6E6E6"/>
			<stop  offset="0.69" style="stop-color:#DEDDDD"/>
			<stop  offset="0.75" style="stop-color:#CFCECF"/>
			<stop  offset="0.8" style="stop-color:#BAB9B9"/>
			<stop  offset="0.86" style="stop-color:#9F9E9E"/>
			<stop  offset="0.9" style="stop-color:#7E7C7C"/>
			<stop  offset="0.95" style="stop-color:#565354"/>
			<stop  offset="0.99" style="stop-color:#2A2627"/>
			<stop  offset="1" style="stop-color:#231F20"/>
		</linearGradient>
		
			<path style="opacity:5.000000e-02;fill:url(#SVGID_00000160879776238056239690000009745873992351643280_);enable-background:new    ;" d="
			M152.4,671.9v6.8c0,8,3.2,15.7,8.8,21.5h1054c5.7-5.8,8.8-13.5,8.8-21.5v-6.8H152.4z"/>
		<path class="st4" d="M152.4,671.9v6.8c0,8,3.2,15.7,8.8,21.5h1054c5.7-5.8,8.8-13.5,8.8-21.5v-6.8H152.4z"/>
		
			<linearGradient id="SVGID_00000047780298174643506450000007389694313977002928_" gradientUnits="userSpaceOnUse" x1="691.5" y1="75.775" x2="691.5" y2="96.023" gradientTransform="matrix(1 0 0 -1 0 802)">
			<stop  offset="0" style="stop-color:#E0E0E0"/>
			<stop  offset="0.4" style="stop-color:#E3E3E3"/>
			<stop  offset="0.52" style="stop-color:#E6E6E6"/>
			<stop  offset="0.73" style="stop-color:#E9E9E9"/>
			<stop  offset="1" style="stop-color:#ECECEC"/>
		</linearGradient>
		<path style="fill:url(#SVGID_00000047780298174643506450000007389694313977002928_);" d="M33,706.7c0,0,23,13.1,176.7,18.8h978.5
			c0,0,128.2-6.2,161.9-18.8H33z"/>
		
			<linearGradient id="SVGID_00000038399859472711686570000018329481801123515311_" gradientUnits="userSpaceOnUse" x1="565.384" y1="97.7472" x2="817.56" y2="97.7472" gradientTransform="matrix(1 0 0 -1 0 802)">
			<stop  offset="0" style="stop-color:#E6E6E6"/>
			<stop  offset="2.000000e-02" style="stop-color:#E9E9E9"/>
			<stop  offset="7.000000e-02" style="stop-color:#F7F7F7"/>
			<stop  offset="0.1" style="stop-color:#FBFBFB"/>
			<stop  offset="0.16" style="stop-color:#FBFBFB"/>
			<stop  offset="0.5" style="stop-color:#FBFBFB"/>
			<stop  offset="0.86" style="stop-color:#FBFBFB"/>
			<stop  offset="0.92" style="stop-color:#FBFBFB"/>
			<stop  offset="0.95" style="stop-color:#F7F7F7"/>
			<stop  offset="0.99" style="stop-color:#E9E9E9"/>
			<stop  offset="1" style="stop-color:#E6E6E6"/>
		</linearGradient>
		<path style="fill:url(#SVGID_00000038399859472711686570000018329481801123515311_);" d="M677.6,699.5H565.4v6.7
			c2.1,1.3,4.5,2.1,7,2.5c2.9,0.3,5.8,0.5,8.7,0.4h220.8c2.9,0,5.8-0.3,8.7-0.7c2.5-0.4,4.8-1,7.1-2.1l-0.1-6.7H677.6z"/>
		
			<linearGradient id="SVGID_00000129892958854712138390000003698265096555622061_" gradientUnits="userSpaceOnUse" x1="33" y1="98.749" x2="565.963" y2="98.749" gradientTransform="matrix(1 0 0 -1 0 802)">
			<stop  offset="0" style="stop-color:#E1E1E1"/>
			<stop  offset="3.000000e-02" style="stop-color:#F7F7F7"/>
			<stop  offset="5.000000e-02" style="stop-color:#FBFBFB"/>
			<stop  offset="7.000000e-02" style="stop-color:#FAFAFA"/>
			<stop  offset="0.13" style="stop-color:#F7F7F7"/>
			<stop  offset="1" style="stop-color:#F7F7F7"/>
		</linearGradient>
		<path style="fill:url(#SVGID_00000129892958854712138390000003698265096555622061_);" d="M566,700.2H33v6h533V700.2z"/>
		
			<linearGradient id="SVGID_00000170269276117663038250000002231229920738351513_" gradientUnits="userSpaceOnUse" x1="30904.3008" y1="98.749" x2="-121076" y2="98.749" gradientTransform="matrix(1 0 0 -1 0 802)">
			<stop  offset="0" style="stop-color:#E1E1E1"/>
			<stop  offset="3.000000e-02" style="stop-color:#F7F7F7"/>
			<stop  offset="5.000000e-02" style="stop-color:#FBFBFB"/>
			<stop  offset="7.000000e-02" style="stop-color:#FAFAFA"/>
			<stop  offset="0.13" style="stop-color:#F7F7F7"/>
			<stop  offset="1" style="stop-color:#F7F7F7"/>
		</linearGradient>
		<path style="fill:url(#SVGID_00000170269276117663038250000002231229920738351513_);" d="M1350,700.2H816.9v6H1350V700.2z"/>
		<path class="st9" d="M817.4,706.2H817c-2,1-4.2,1.7-6.5,2c-2.9,0.4-5.7,0.7-8.6,0.7H580.1c-2.6,0.1-5.1,0-7.6-0.3
			c-2.3-0.3-4.5-1.1-6.5-2.3H33v0.5H566c2,1.1,4.2,1.9,6.5,2.2c2.2,0.3,4.3,0.4,6.5,0.4h222.9c2.9,0,5.8-0.3,8.7-0.7
			c2.2-0.3,4.4-1,6.4-1.9H1350v-0.5H817.4z"/>
		
			<linearGradient id="SVGID_00000172421149375031671110000003926392686451541940_" gradientUnits="userSpaceOnUse" x1="565.402" y1="102.1395" x2="817.448" y2="102.1395" gradientTransform="matrix(1 0 0 -1 0 802)">
			<stop  offset="0" style="stop-color:#E7E7E7"/>
			<stop  offset="2.000000e-02" style="stop-color:#EBEBEB"/>
			<stop  offset="7.000000e-02" style="stop-color:#F8F8F8"/>
			<stop  offset="9.000000e-02" style="stop-color:#FBFBFB"/>
			<stop  offset="0.13" style="stop-color:#FAFAFA"/>
			<stop  offset="0.5" style="stop-color:#F8F8F8"/>
			<stop  offset="0.88" style="stop-color:#FAFAFA"/>
			<stop  offset="0.92" style="stop-color:#FBFBFB"/>
			<stop  offset="0.95" style="stop-color:#F8F8F8"/>
			<stop  offset="0.99" style="stop-color:#EBEBEB"/>
			<stop  offset="1" style="stop-color:#E7E7E7"/>
		</linearGradient>
		<path style="fill:url(#SVGID_00000172421149375031671110000003926392686451541940_);" d="M816.9,700.2H565.9l-0.5-0.8h252
			L816.9,700.2z"/>
		
			<linearGradient id="SVGID_00000002347482858226307680000003782537409198055298_" gradientUnits="userSpaceOnUse" x1="33" y1="102.1395" x2="565.963" y2="102.1395" gradientTransform="matrix(1 0 0 -1 0 802)">
			<stop  offset="0" style="stop-color:#E1E1E1"/>
			<stop  offset="1.000000e-02" style="stop-color:#F6F6F6"/>
			<stop  offset="2.000000e-02" style="stop-color:#FBFBFB"/>
			<stop  offset="4.000000e-02" style="stop-color:#F6F6F6"/>
			<stop  offset="1" style="stop-color:#F6F6F6"/>
		</linearGradient>
		<path style="fill:url(#SVGID_00000002347482858226307680000003782537409198055298_);" d="M565.4,699.5H33.8l-0.8,0.8h533
			L565.4,699.5z"/>
		
			<linearGradient id="SVGID_00000111871187457827670640000010250715910715532706_" gradientUnits="userSpaceOnUse" x1="116451" y1="102.1395" x2="-35533.7031" y2="102.1395" gradientTransform="matrix(1 0 0 -1 0 802)">
			<stop  offset="0" style="stop-color:#E1E1E1"/>
			<stop  offset="1.000000e-02" style="stop-color:#F6F6F6"/>
			<stop  offset="2.000000e-02" style="stop-color:#FBFBFB"/>
			<stop  offset="4.000000e-02" style="stop-color:#F6F6F6"/>
			<stop  offset="1" style="stop-color:#F6F6F6"/>
		</linearGradient>
		<path style="fill:url(#SVGID_00000111871187457827670640000010250715910715532706_);" d="M817.4,699.5h531.8l0.8,0.8H816.9
			L817.4,699.5z"/>
		
			<linearGradient id="SVGID_00000066505836004621951900000006319032208936347552_" gradientUnits="userSpaceOnUse" x1="161.585" y1="82.177" x2="161.585" y2="83.935" gradientTransform="matrix(1 0 0 -1 0 802)">
			<stop  offset="0" style="stop-color:#F3F3F3"/>
			<stop  offset="0.21" style="stop-color:#E7E7E7"/>
			<stop  offset="0.52" style="stop-color:#DFDFDF"/>
			<stop  offset="1" style="stop-color:#DCDCDC"/>
		</linearGradient>
		<path style="fill:url(#SVGID_00000066505836004621951900000006319032208936347552_);" d="M166.3,718.9c0-0.4-2.1-0.8-4.7-0.8
			c-2.6,0-4.7,0.4-4.7,0.8c0,0.4,2.1,0.8,4.7,0.8S166.3,719.4,166.3,718.9z"/>
		
			<linearGradient id="SVGID_00000114783245972014731480000015882766475607594686_" gradientUnits="userSpaceOnUse" x1="529.4725" y1="-643.65" x2="529.4725" y2="-642.0699" gradientTransform="matrix(1 0 0 -1 0 802)">
			<stop  offset="0" style="stop-color:#F3F3F3"/>
			<stop  offset="0.21" style="stop-color:#E7E7E7"/>
			<stop  offset="0.52" style="stop-color:#DFDFDF"/>
			<stop  offset="1" style="stop-color:#DCDCDC"/>
		</linearGradient>
		<path style="fill:url(#SVGID_00000114783245972014731480000015882766475607594686_);" d="M534.2,718.9c0-0.4-2.1-0.8-4.7-0.8
			s-4.7,0.4-4.7,0.8c0,0.4,2.1,0.8,4.7,0.8S534.2,719.4,534.2,718.9z"/>
		
			<linearGradient id="SVGID_00000127007807537168385660000006946612520941250476_" gradientUnits="userSpaceOnUse" x1="853.594" y1="-643.65" x2="853.594" y2="-642.0699" gradientTransform="matrix(1 0 0 -1 0 802)">
			<stop  offset="0" style="stop-color:#F3F3F3"/>
			<stop  offset="0.21" style="stop-color:#E7E7E7"/>
			<stop  offset="0.52" style="stop-color:#DFDFDF"/>
			<stop  offset="1" style="stop-color:#DCDCDC"/>
		</linearGradient>
		<path style="fill:url(#SVGID_00000127007807537168385660000006946612520941250476_);" d="M858.3,718.9c0-0.4-2.1-0.8-4.7-0.8
			s-4.7,0.4-4.7,0.8c0,0.4,2.1,0.8,4.7,0.8S858.3,719.4,858.3,718.9z"/>
		
			<linearGradient id="SVGID_00000018202460393655416490000015137216948839751565_" gradientUnits="userSpaceOnUse" x1="1221.48" y1="-563.95" x2="1221.48" y2="-562.36" gradientTransform="matrix(1 0 0 -1 0 802)">
			<stop  offset="0" style="stop-color:#F3F3F3"/>
			<stop  offset="0.21" style="stop-color:#E7E7E7"/>
			<stop  offset="0.52" style="stop-color:#DFDFDF"/>
			<stop  offset="1" style="stop-color:#DCDCDC"/>
		</linearGradient>
		<path style="fill:url(#SVGID_00000018202460393655416490000015137216948839751565_);" d="M1221.5,719.8c2.6,0,4.7-0.4,4.7-0.8
			c0-0.4-2.1-0.8-4.7-0.8s-4.7,0.4-4.7,0.8C1216.8,719.4,1218.9,719.8,1221.5,719.8z"/>
		<path class="st17" d="M694,25.2c0,1.1-0.3,2.2-1,3.1c-0.6,0.9-1.5,1.6-2.6,2.1c-1.1,0.4-2.2,0.5-3.4,0.3c-1.1-0.2-2.2-0.7-3-1.5
			c-0.8-0.8-1.4-1.8-1.6-2.9c-0.2-1.1-0.1-2.2,0.3-3.2c0.4-1,1.2-1.9,2.2-2.5c1-0.6,2.1-0.9,3.2-0.9c0.8,0,1.5,0.1,2.2,0.4
			c0.7,0.3,1.3,0.7,1.9,1.2c0.5,0.5,1,1.1,1.3,1.8S694,24.5,694,25.2L694,25.2z"/>
		
			<radialGradient id="SVGID_00000099645415670620563850000000717446744475593906_" cx="313.6157" cy="797.9677" r="1" gradientTransform="matrix(5.3327 0 0 -5.1669 -981.9319 4148.5747)" gradientUnits="userSpaceOnUse">
			<stop  offset="0" style="stop-color:#D3D3D3"/>
			<stop  offset="0.35" style="stop-color:#CFCFCF"/>
			<stop  offset="0.68" style="stop-color:#C4C4C4"/>
			<stop  offset="1" style="stop-color:#B1B1B1"/>
		</radialGradient>
		<path style="fill:url(#SVGID_00000099645415670620563850000000717446744475593906_);" d="M693.5,25.2c0,1-0.3,2-0.9,2.8
			s-1.4,1.5-2.4,1.9c-1,0.4-2,0.5-3.1,0.3c-1-0.2-2-0.7-2.7-1.4c-0.7-0.7-1.2-1.6-1.4-2.6c-0.2-1-0.1-2,0.3-2.9
			c0.4-0.9,1.1-1.7,2-2.3c0.9-0.6,1.9-0.9,3-0.9c0.7,0,1.4,0.1,2.1,0.4c0.7,0.3,1.2,0.6,1.7,1.1c0.5,0.5,0.9,1.1,1.2,1.7
			C693.4,23.9,693.5,24.5,693.5,25.2z"/>
		
			<linearGradient id="SVGID_00000131342497232731400970000006446245257599283334_" gradientUnits="userSpaceOnUse" x1="686.7865" y1="776.6514" x2="693.2965" y2="775.4846" gradientTransform="matrix(1 0 0 -1 0 802)">
			<stop  offset="0" style="stop-color:#ACACAC"/>
			<stop  offset="5.000000e-02" style="stop-color:#AEAEAE"/>
			<stop  offset="0.61" style="stop-color:#C1C1C1"/>
			<stop  offset="1" style="stop-color:#C8C8C8"/>
		</linearGradient>
		<path style="opacity:0.3;fill:url(#SVGID_00000131342497232731400970000006446245257599283334_);enable-background:new    ;" d="
			M692.7,26c0,0.5-0.1,0.9-0.4,1.3c-0.3,0.4-0.6,0.7-1.1,0.8c-0.4,0.2-0.9,0.2-1.4,0.1c-0.5-0.1-0.9-0.3-1.2-0.6s-0.6-0.7-0.7-1.2
			s-0.1-0.9,0.1-1.3c0.2-0.4,0.5-0.8,0.9-1c0.4-0.3,0.8-0.4,1.3-0.4c0.3,0,0.6,0,0.9,0.2c0.3,0.1,0.6,0.3,0.8,0.5
			c0.2,0.2,0.4,0.5,0.5,0.8C692.7,25.4,692.7,25.7,692.7,26L692.7,26z"/>
		<g class="st20">
			<path class="st21" d="M685.9,27.3c0.4,0.7,0.4,1.4,0,1.6c-0.4,0.2-1.1-0.1-1.5-0.8c-0.4-0.7-0.4-1.4,0-1.6
				C684.8,26.2,685.5,26.6,685.9,27.3z"/>
		</g>
		<g class="st20">
			<path class="st21" d="M692.4,22.5c0.5,0.7,0.7,1.3,0.6,1.4c-0.2,0.1-0.7-0.3-1.2-1c-0.5-0.6-0.7-1.3-0.6-1.4
				C691.3,21.5,691.9,21.9,692.4,22.5z"/>
		</g>
		<g class="st22">
			<path class="st21" d="M689.8,21.2c0.4,0.8-0.6,2-2.1,2.7c-1.5,0.7-3.1,0.6-3.5-0.2c-0.4-0.8,0.5-2,2.1-2.7
				C687.8,20.3,689.4,20.4,689.8,21.2z"/>
		</g>
		
			<radialGradient id="SVGID_00000170269552961833981240000008649617118796147120_" cx="251.8348" cy="798.7936" r="1" gradientTransform="matrix(2.877 0 0 -2.7876 -34.0523 2252.3223)" gradientUnits="userSpaceOnUse">
			<stop  offset="0" style="stop-color:#D3D3D3"/>
			<stop  offset="6.000000e-02" style="stop-color:#CDCDCD"/>
			<stop  offset="0.35" style="stop-color:#B5B5B5"/>
			<stop  offset="0.53" style="stop-color:#ACACAC"/>
			<stop  offset="0.76" style="stop-color:#ACACAC"/>
			<stop  offset="0.8" style="stop-color:#ACACAC"/>
			<stop  offset="1" style="stop-color:#B1B1B1"/>
		</radialGradient>
		<path style="opacity:0.5;fill:url(#SVGID_00000170269552961833981240000008649617118796147120_);enable-background:new    ;" d="
			M691.1,25.2c0,0.5-0.2,1.1-0.5,1.5c-0.3,0.5-0.8,0.8-1.3,1c-0.5,0.2-1.1,0.3-1.7,0.1c-0.6-0.1-1.1-0.4-1.5-0.8
			c-0.4-0.4-0.7-0.9-0.8-1.4c-0.1-0.5,0-1.1,0.2-1.6c0.2-0.5,0.6-0.9,1.1-1.2c0.5-0.3,1-0.5,1.6-0.5c0.4,0,0.8,0.1,1.1,0.2
			c0.3,0.1,0.7,0.3,0.9,0.6c0.3,0.3,0.5,0.6,0.6,0.9C691,24.5,691.1,24.9,691.1,25.2L691.1,25.2z"/>
	</g>
</g>
<rect x="189" y="45" class="st24" width="1000" height="612"/>
<g>
	<defs>
		<rect id="SVGID_00000003093111942631106750000010375651193944245157_" x="205" y="128" width="984" height="529.4"/>
	</defs>
	<clipPath id="SVGID_00000114057474949704326260000001341373622902397597_">
		<use xlink:href="#SVGID_00000003093111942631106750000010375651193944245157_"  style="overflow:visible;"/>
	</clipPath>
	<g style="clip-path:url(#SVGID_00000114057474949704326260000001341373622902397597_);">
		<path class="st26" d="M839.2,249.1l-253.8-37.4l-50.3,337.9L788.9,587L839.2,249.1z"/>
		<path class="st27" d="M493.7,213.7l-255.4-24.8l-33.3,340l255.4,24.8L493.7,213.7z"/>
		<g class="st28">
			<path class="st29" d="M297.4,484.4l-71.8-7.2l-0.3,3.1l71.8,7.2L297.4,484.4z"/>
			<path class="st29" d="M272,490l-47.2-4.7l-0.3,3.1l47.2,4.7L272,490z"/>
			<path class="st29" d="M320.8,494.9l-41.3-4.2l-0.3,3.1l41.3,4.2L320.8,494.9z"/>
			<path class="st29" d="M431.3,506l-41.3-4.2l-0.3,3.1l41.3,4.2L431.3,506z"/>
			<path class="st29" d="M382.3,501.1l-50.1-5l-0.3,3.1l50.1,5L382.3,501.1z"/>
			<path class="st29" d="M364.6,491.1l-58.5-5.9l-0.3,3.1l58.5,5.9L364.6,491.1z"/>
			<path class="st29" d="M432.4,497.9l-58.5-5.9l-0.3,3.1l58.5,5.9L432.4,497.9z"/>
			<path class="st29" d="M295.7,500.6l-71.8-7.2l-0.3,3.1l71.8,7.2L295.7,500.6z"/>
			<path class="st29" d="M270.3,506.2l-47.2-4.7l-0.3,3.1l47.2,4.7L270.3,506.2z"/>
			<path class="st29" d="M319.2,511.1l-41.3-4.2l-0.3,3.1l41.3,4.2L319.2,511.1z"/>
			<path class="st29" d="M359,515.1l-31.1-3.1l-0.3,3.1l31.1,3.1L359,515.1z"/>
			<path class="st29" d="M429.6,522.2l-64.5-6.5l-0.3,3.1l64.5,6.5L429.6,522.2z"/>
			<path class="st29" d="M362.9,507.4l-58.5-5.9l-0.3,3.1l58.5,5.9L362.9,507.4z"/>
			<path class="st29" d="M427.9,513.9l-58.5-5.9l-0.3,3.1l58.5,5.9L427.9,513.9z"/>
			<path class="st29" d="M430.4,514.2l-58.5-5.9l-0.3,3.1l58.5,5.9L430.4,514.2z"/>
		</g>
		<g class="st28">
			<path class="st29" d="M305.5,430.1l-71.8-7.2l-0.3,3.1l71.8,7.2L305.5,430.1z"/>
			<path class="st29" d="M280.1,435.6l-47.2-4.7l-0.3,3.1l47.2,4.7L280.1,435.6z"/>
			<path class="st29" d="M329,440.6l-41.3-4.2l-0.3,3.1l41.3,4.2L329,440.6z"/>
			<path class="st29" d="M439.4,451.7l-41.3-4.2l-0.3,3.1l41.3,4.2L439.4,451.7z"/>
			<path class="st29" d="M390.4,446.7l-50.1-5l-0.3,3.1l50.1,5L390.4,446.7z"/>
			<path class="st29" d="M372.7,436.8l-58.5-5.9l-0.3,3.1l58.5,5.9L372.7,436.8z"/>
			<path class="st29" d="M440.5,443.6l-58.5-5.9l-0.3,3.1l58.5,5.9L440.5,443.6z"/>
			<path class="st29" d="M303.9,446.3l-71.8-7.2l-0.3,3.1l71.8,7.2L303.9,446.3z"/>
			<path class="st29" d="M278.5,451.9l-47.2-4.7l-0.3,3.1l47.2,4.7L278.5,451.9z"/>
			<path class="st29" d="M327.3,456.8l-41.3-4.2l-0.3,3.1l41.3,4.2L327.3,456.8z"/>
			<path class="st29" d="M367.2,460.8l-31.1-3.1l-0.3,3.1l31.1,3.1L367.2,460.8z"/>
			<path class="st29" d="M437.8,467.9l-64.5-6.5l-0.3,3.1l64.5,6.5L437.8,467.9z"/>
			<path class="st29" d="M371.1,453.1l-58.5-5.9l-0.3,3.1l58.5,5.9L371.1,453.1z"/>
			<path class="st29" d="M436.1,459.6l-58.5-5.9l-0.3,3.1l58.5,5.9L436.1,459.6z"/>
			<path class="st29" d="M438.6,459.9l-58.5-5.9l-0.3,3.1l58.5,5.9L438.6,459.9z"/>
		</g>
		<g class="st28">
			<path class="st29" d="M311.2,365.7l-71.8-7.2l-0.3,3.1l71.8,7.2L311.2,365.7z"/>
			<path class="st29" d="M285.8,371.3l-47.2-4.7l-0.3,3.1l47.2,4.7L285.8,371.3z"/>
			<path class="st29" d="M334.6,376.3l-41.3-4.2l-0.3,3.1l41.3,4.2L334.6,376.3z"/>
			<path class="st29" d="M445.1,387.4l-41.3-4.2l-0.3,3.1l41.3,4.2L445.1,387.4z"/>
			<path class="st29" d="M396.1,382.4l-50.1-5l-0.3,3.1l50.1,5L396.1,382.4z"/>
			<path class="st29" d="M378.4,372.5l-58.5-5.9l-0.3,3.1l58.5,5.9L378.4,372.5z"/>
			<path class="st29" d="M446.2,379.3l-58.5-5.9l-0.3,3.1l58.5,5.9L446.2,379.3z"/>
			<path class="st29" d="M309.5,382l-71.8-7.2l-0.3,3.1l71.8,7.2L309.5,382z"/>
			<path class="st29" d="M284.1,387.6l-47.2-4.7l-0.3,3.1l47.2,4.7L284.1,387.6z"/>
			<path class="st29" d="M333,392.5l-41.3-4.2l-0.3,3.1l41.3,4.2L333,392.5z"/>
			<path class="st29" d="M372.8,396.5l-31.1-3.1l-0.3,3.1l31.1,3.1L372.8,396.5z"/>
			<path class="st29" d="M443.4,403.6l-64.5-6.5l-0.3,3.1l64.5,6.5L443.4,403.6z"/>
			<path class="st29" d="M376.7,388.8l-58.5-5.9l-0.3,3.1l58.5,5.9L376.7,388.8z"/>
			<path class="st29" d="M441.7,395.3l-58.5-5.9l-0.3,3.1l58.5,5.9L441.7,395.3z"/>
			<path class="st29" d="M444.2,395.6l-58.5-5.9l-0.3,3.1l58.5,5.9L444.2,395.6z"/>
		</g>
		<g class="st28">
			<path class="st29" d="M318.7,310.7l-71.8-7.2l-0.3,3.1l71.8,7.2L318.7,310.7z"/>
			<path class="st29" d="M293.3,316.3l-47.2-4.7l-0.3,3.1l47.2,4.7L293.3,316.3z"/>
			<path class="st29" d="M342.2,321.2l-41.3-4.2l-0.3,3.1l41.3,4.2L342.2,321.2z"/>
			<path class="st29" d="M450.9,330.1l-41.1-4.1l-0.3,3.1l41.1,4.1L450.9,330.1z"/>
			<path class="st29" d="M403.6,327.4l-50.1-5l-0.3,3.1l50.1,5L403.6,327.4z"/>
			<path class="st29" d="M385.9,317.5l-58.5-5.9l-0.3,3.1l58.5,5.9L385.9,317.5z"/>
			<path class="st29" d="M453.7,324.3l-58.5-5.9l-0.3,3.1l58.5,5.9L453.7,324.3z"/>
			<path class="st29" d="M317.1,327l-71.8-7.2l-0.3,3.1l71.8,7.2L317.1,327z"/>
			<path class="st29" d="M291.7,332.6l-47.2-4.7l-0.3,3.1l47.2,4.7L291.7,332.6z"/>
			<path class="st29" d="M340.5,337.5l-41.3-4.2l-0.3,3.1l41.3,4.2L340.5,337.5z"/>
			<path class="st29" d="M380.3,341.5l-31.1-3.1l-0.3,3.1l31.1,3.1L380.3,341.5z"/>
			<path class="st29" d="M450.9,348.6l-64.5-6.5l-0.3,3.1l64.5,6.5L450.9,348.6z"/>
			<path class="st29" d="M384.3,333.8l-58.5-5.9l-0.3,3.1l58.5,5.9L384.3,333.8z"/>
			<path class="st29" d="M449.2,340.3l-58.5-5.9l-0.3,3.1l58.5,5.9L449.2,340.3z"/>
			<path class="st29" d="M451.8,340.5l-58.5-5.9l-0.3,3.1l58.5,5.9L451.8,340.5z"/>
		</g>
		<g class="st28">
			<path class="st29" d="M324.3,257.7l-71.8-7.2l-0.3,3.1l71.8,7.2L324.3,257.7z"/>
			<path class="st29" d="M299,263.3l-47.2-4.7l-0.3,3.1l47.2,4.7L299,263.3z"/>
			<path class="st29" d="M346.6,266.3l-41.1-4.1l-0.3,3.1l41.1,4.1L346.6,266.3z"/>
			<path class="st29" d="M458.2,279.3l-41.3-4.2l-0.3,3.1l41.3,4.2L458.2,279.3z"/>
			<path class="st29" d="M409.2,274.4l-50.1-5l-0.3,3.1l50.1,5L409.2,274.4z"/>
			<path class="st29" d="M391.5,264.4l-58.5-5.9l-0.3,3.1l58.5,5.9L391.5,264.4z"/>
			<path class="st29" d="M457.6,269.3l-58.2-5.9l-0.3,3.1l58.2,5.9L457.6,269.3z"/>
			<path class="st29" d="M322.7,273.9l-71.8-7.2l-0.3,3.1l71.8,7.2L322.7,273.9z"/>
			<path class="st29" d="M297.3,279.5l-47.2-4.7l-0.3,3.1l47.2,4.7L297.3,279.5z"/>
			<path class="st29" d="M345,282.5l-41.1-4.1l-0.3,3.1l41.1,4.1L345,282.5z"/>
			<path class="st29" d="M386,288.4l-31.1-3.1l-0.3,3.1l31.1,3.1L386,288.4z"/>
			<path class="st29" d="M456.6,295.5l-64.5-6.5l-0.3,3.1l64.5,6.5L456.6,295.5z"/>
			<path class="st29" d="M389.9,280.7l-58.5-5.9l-0.3,3.1l58.5,5.9L389.9,280.7z"/>
			<path class="st29" d="M454.9,287.2l-58.5-5.9l-0.3,3.1l58.5,5.9L454.9,287.2z"/>
			<path class="st29" d="M457.4,287.5l-58.5-5.9l-0.3,3.1l58.5,5.9L457.4,287.5z"/>
		</g>
		<path class="st30" d="M734,128l-240.1,90.1l121.2,319.6l240.1-90.1L734,128z"/>
		<g class="st28">
			<path class="st29" d="M650.4,360l-70.3,23.6l1,3l70.3-23.6L650.4,360z"/>
			<path class="st29" d="M628,373.3l-46.1,15.6l1,3l46.1-15.6L628,373.3z"/>
			<path class="st29" d="M675.6,357.2l-40.3,13.6l1,3l40.3-13.6L675.6,357.2z"/>
			<path class="st29" d="M783.4,320.7l-40.3,13.6l1,3l40.3-13.6L783.4,320.7z"/>
			<path class="st29" d="M735.6,336.9l-48.9,16.6l1,3l48.9-16.6L735.6,336.9z"/>
			<path class="st29" d="M714.9,335.3l-57.1,19.3l1,3l57.1-19.3L714.9,335.3z"/>
			<path class="st29" d="M781.1,313L724,332.3l1,3l57.1-19.3L781.1,313z"/>
			<path class="st29" d="M654.6,373l-70.1,23.7l1,3l70.1-23.7L654.6,373z"/>
			<path class="st29" d="M633.2,388.8l-46.1,15.6l1,3l46.1-15.6L633.2,388.8z"/>
			<path class="st29" d="M680.9,372.7l-40.3,13.6l1,3l40.3-13.6L680.9,372.7z"/>
			<path class="st29" d="M719.8,359.5l-30.3,10.3l1,3l30.3-10.3L719.8,359.5z"/>
			<path class="st29" d="M790.3,338.9L727,360.1l1,3l63.2-21.2L790.3,338.9z"/>
			<path class="st29" d="M720.2,350.8l-57.1,19.3l1,3l57.1-19.3L720.2,350.8z"/>
			<path class="st29" d="M783.6,329.4l-57.1,19.3l1,3l57.1-19.3L783.6,329.4z"/>
			<path class="st29" d="M786.1,328.5L729,347.9l1,3l57.1-19.3L786.1,328.5z"/>
		</g>
		<g class="st28">
			<path class="st29" d="M675,200.7l-31.7,10.7l1,3l31.7-10.7L675,200.7z"/>
			<path class="st29" d="M666.7,212l-20.9,7.1l1,3l20.9-7.1L666.7,212z"/>
			<path class="st29" d="M688.3,204.7l-18.3,6.2l1,3l18.3-6.2L688.3,204.7z"/>
			<path class="st29" d="M737.2,188.2l-18.3,6.2l1,3l18.3-6.2L737.2,188.2z"/>
			<path class="st29" d="M715.5,195.5l-22.2,7.5l1,3l22.2-7.5L715.5,195.5z"/>
			<path class="st29" d="M704.7,190.6l-25.9,8.8l1,3l25.9-8.8L704.7,190.6z"/>
			<path class="st29" d="M734.7,180.5l-25.9,8.8l1,3l25.9-8.8L734.7,180.5z"/>
			<path class="st29" d="M680.3,216.2l-31.7,10.7l1,3l31.7-10.7L680.3,216.2z"/>
			<path class="st29" d="M672,227.5l-20.9,7.1l1,3l20.9-7.1L672,227.5z"/>
			<path class="st29" d="M693.6,220.2l-18.3,6.2l1,3l18.3-6.2L693.6,220.2z"/>
			<path class="st29" d="M711.2,214.2l-13.7,4.6l1,3l13.7-4.7L711.2,214.2z"/>
			<path class="st29" d="M742.5,203.7l-28.5,9.7l1,3l28.5-9.7L742.5,203.7z"/>
			<path class="st29" d="M710,206.1l-25.9,8.8l1,3l25.9-8.8L710,206.1z"/>
			<path class="st29" d="M738.7,196.4l-25.9,8.8l1,3l25.9-8.8L738.7,196.4z"/>
			<path class="st29" d="M739.8,196l-25.9,8.8l1,3l25.9-8.8L739.8,196z"/>
		</g>
		<g class="st28">
			<path class="st29" d="M691.8,249.4l-31.7,10.7l1,3l31.7-10.7L691.8,249.4z"/>
			<path class="st29" d="M683.6,260.7l-20.9,7.1l1,3l20.9-7.1L683.6,260.7z"/>
			<path class="st29" d="M706.6,255.6l-18.3,6.1l1,3l18.3-6.1L706.6,255.6z"/>
			<path class="st29" d="M754,236.9l-18.3,6.2l1,3l18.3-6.2L754,236.9z"/>
			<path class="st29" d="M732.4,244.2l-22.2,7.5l1,3l22.2-7.5L732.4,244.2z"/>
			<path class="st29" d="M721.6,239.3l-25.9,8.8l1,3l25.9-8.8L721.6,239.3z"/>
			<path class="st29" d="M751.6,229.2l-25.9,8.8l1,3l25.9-8.8L751.6,229.2z"/>
			<path class="st29" d="M697.1,264.8l-31.7,10.7l1,3l31.7-10.7L697.1,264.8z"/>
			<path class="st29" d="M688.9,276.2l-20.9,7.1l1,3l20.9-7.1L688.9,276.2z"/>
			<path class="st29" d="M710.5,268.9l-18.3,6.2l1,3l18.3-6.2L710.5,268.9z"/>
			<path class="st29" d="M729.6,265.2l-13.8,4.6l1,3l13.8-4.6L729.6,265.2z"/>
			<path class="st29" d="M759.3,252.4l-28.5,9.7l1,3l28.5-9.7L759.3,252.4z"/>
			<path class="st29" d="M726.9,254.8l-25.9,8.8l1,3l25.9-8.8L726.9,254.8z"/>
			<path class="st29" d="M755.6,245.1l-25.9,8.8l1,3l25.9-8.8L755.6,245.1z"/>
			<path class="st29" d="M756.7,244.7l-25.9,8.8l1,3l25.9-8.8L756.7,244.7z"/>
		</g>
		<g class="st28">
			<path class="st29" d="M676.7,429.8l-70.1,23.7l1,3l70.1-23.7L676.7,429.8z"/>
			<path class="st29" d="M655.4,445.5l-46.1,15.6l1,3l46.1-15.6L655.4,445.5z"/>
			<path class="st29" d="M703,429.4l-40.3,13.6l1,3l40.3-13.6L703,429.4z"/>
			<path class="st29" d="M810.8,393l-40.3,13.6l1,3l40.3-13.6L810.8,393z"/>
			<path class="st29" d="M763,409.1l-48.9,16.6l1,3l48.9-16.6L763,409.1z"/>
			<path class="st29" d="M742.3,407.6l-57.1,19.3l1,3l57.1-19.3L742.3,407.6z"/>
			<path class="st29" d="M810,388l-57.3,19.2l1,3L811,391L810,388z"/>
			<path class="st29" d="M682,445.2l-70.1,23.7l1,3l70.1-23.7L682,445.2z"/>
			<path class="st29" d="M660.6,461l-46.1,15.6l1,3l46.1-15.6L660.6,461z"/>
			<path class="st29" d="M708.3,444.9L668,458.5l1,3l40.3-13.6L708.3,444.9z"/>
			<path class="st29" d="M747.2,431.7L716.8,442l1,3l30.3-10.3L747.2,431.7z"/>
			<path class="st29" d="M816.1,408.4l-63,21.3l1,3l63-21.3L816.1,408.4z"/>
			<path class="st29" d="M747.6,423l-57.1,19.3l1,3l57.1-19.3L747.6,423z"/>
			<path class="st29" d="M811,401.6l-57.1,19.3l1,3l57.1-19.3L811,401.6z"/>
			<path class="st29" d="M813.5,400.8l-57.1,19.3l1,3l57.1-19.3L813.5,400.8z"/>
		</g>
		<path class="st31" d="M557.1,298.9l-9,3.2l21.7,59.7l9-3.2L557.1,298.9z"/>
		<path class="st31" d="M562.4,254.5l-9,3.3l35.1,95.5l9-3.3L562.4,254.5z"/>
		<path class="st32" d="M570.7,226.9l-9,3.2l43.3,119l9-3.2L570.7,226.9z"/>
		<path class="st31" d="M602.6,255.6l-9,3.3l30,81.6l9-3.3L602.6,255.6z"/>
		<path class="st32" d="M601.8,200.5l-9,3.3l47.9,130.4l9-3.3L601.8,200.5z"/>
		<path class="st32" d="M627.1,217.9l-9,3.2l39.6,109l9-3.2L627.1,217.9z"/>
		<path class="st33" d="M386.2,501.2c-0.8,0-1.3-1.8-1.3-1.9l0.1,0c0.1,0.5,0.6,1.9,1.2,1.8c0,0,0.1,0,0.1,0c0,0,0.1-0.1,0.1-0.1
			c0.1-0.4-0.4-1.3-0.6-1.6l0.1-0.1c0,0,0.7,0.7,1.2,0.7h0c0,0,0.1,0,0.1,0c0,0,0.1-0.1,0.1-0.1l0.1,0.1c0,0.1-0.1,0.1-0.1,0.1
			c-0.1,0-0.1,0-0.2,0.1c-0.3,0-0.7-0.2-0.9-0.4c0.2,0.4,0.5,0.9,0.3,1.2c0,0.1-0.1,0.1-0.1,0.2c-0.1,0-0.1,0.1-0.2,0.1
			C386.3,501.2,386.2,501.2,386.2,501.2L386.2,501.2z"/>
		<path class="st33" d="M361.7,484.9c-0.1,0-2.1-0.3-2-1.2c0-0.1,0-0.1,0.1-0.2c0-0.1,0.1-0.1,0.1-0.1c0.3-0.2,0.9,0,1.3,0.2
			c-0.3-0.2-0.5-0.5-0.5-0.9c0-0.1,0-0.1,0-0.2c0-0.1,0.1-0.1,0.1-0.2l0.1,0.1c0,0-0.1,0.1-0.1,0.1c0,0,0,0.1,0,0.1
			c0,0.4,0.6,0.9,0.9,1.1l-0.1,0.1c-0.3-0.2-1.3-0.6-1.6-0.4c0,0-0.1,0-0.1,0.1c0,0,0,0.1,0,0.1c-0.1,0.6,1.3,0.9,1.9,1V484.9z"/>
		<path class="st34" d="M447.2,509.8c-14.8,35-26.4,35.2-37,60.8c-35.8,5.7-70.6,11.3-100.2,15.8c5.6-23.5,9.1-39.9,9.4-44.4
			c1.4-25.4-4.1-38.2-2.1-66.3c2.7-37.3,1-98.2,12.5-100.1c15.2-2.4,9.1,43,15.6,44.4c5.4,1.2,1.2-69.7,13.5-92
			c2.4-4.4,7.6-5.4,10.7-3.8c12.9,6.7,1.4,88.9,7.1,87.5c3.3-0.8,5.7-74.2,18.5-98c2.5-4.8,5.7-5.1,9.1-4.9
			c18.8,0.9-1.4,94.9,1.5,105.4c1.5,5.2,3.5,0.7,4.8-4.7c10.1-40.5,8.7-75.6,24.2-74.8c19,0.9,1.9,67.5-1.6,105.2
			c-0.3,3.2,4.2,4.3,5.4,1.2c6.2-16.4,19.5-45.8,35.4-38.3C478.2,405,451.1,500.5,447.2,509.8z"/>
		<path class="st35" d="M402.7,327.3c-2.1,0-4.5-0.4-5.7-1c-2.3-1.2-0.2-9.6,0.5-12.1c0.2-0.6,1-1,2.6-1.2c1.8-0.2,5.9,0,6.7,1.5
			c0.9,1.8,0.5,10.3,0,11.6c-0.1,0.2-0.2,0.4-0.4,0.5c-0.2,0.1-0.4,0.2-0.6,0.3C404.8,327.2,403.8,327.4,402.7,327.3L402.7,327.3z
			 M398.5,314.5c-1.7,6.2-1.8,10.5-1,10.9c2.1,1.1,7.8,1.1,8.3,0.3c0.4-1.2,0.7-9.3,0-10.8c-0.1-0.2-0.8-0.7-2.6-0.9
			C401,313.8,398.8,314.2,398.5,314.5L398.5,314.5z"/>
		<path class="st35" d="M434.4,352.6c-2.1,0-4.5-0.4-5.7-1c-2.3-1.2-0.2-9.6,0.5-12.1c0.2-0.6,1-1,2.6-1.2c1.8-0.2,5.9,0,6.7,1.5
			c0.9,1.8,0.5,10.3,0,11.6c-0.1,0.2-0.2,0.4-0.4,0.5c-0.2,0.1-0.4,0.2-0.6,0.3C436.5,352.6,435.5,352.7,434.4,352.6L434.4,352.6z
			 M430.2,339.8c-1.7,6.2-1.8,10.5-1,10.9c2.1,1.1,7.8,1.1,8.3,0.3c0.4-1.2,0.7-9.3,0-10.8c-0.1-0.2-0.8-0.7-2.6-0.9
			C432.6,339.1,430.5,339.5,430.2,339.8z"/>
		<path class="st35" d="M366.8,341.2c-2.1,0-4.5-0.4-5.7-1c-2.3-1.2-0.2-9.6,0.5-12.1c0.2-0.6,1-1,2.6-1.2c1.8-0.2,5.9,0,6.7,1.5
			c0.9,1.8,0.5,10.3,0,11.6c-0.1,0.2-0.2,0.4-0.4,0.5c-0.2,0.1-0.4,0.2-0.6,0.3C368.9,341.1,367.8,341.3,366.8,341.2L366.8,341.2z
			 M362.5,328.4c-1.7,6.2-1.8,10.5-1,10.9c2.1,1.1,7.8,1.1,8.3,0.4c0.4-1.2,0.7-9.3,0-10.8c-0.1-0.2-0.8-0.7-2.6-0.9
			C365,327.7,362.9,328,362.5,328.4L362.5,328.4z"/>
		<path class="st35" d="M329.7,388.6c-0.5,0-1,0-1.5-0.2c-1.7-0.5-1.5-6.6-1.4-8.4c0-0.5,0.6-0.8,1.6-1.2c1.2-0.4,4.1-0.8,4.8,0.1
			c0.9,1.1,1.8,7,1.6,8c0,0.1-0.1,0.3-0.2,0.4c-0.1,0.1-0.2,0.2-0.4,0.3C333.4,388.2,331.3,388.6,329.7,388.6z M327.5,380.1
			c-0.2,3.5,0,7.4,0.8,7.7c1.6,0.5,5.6-0.3,5.8-0.9c0.1-0.9-0.8-6.5-1.5-7.4c-0.1-0.1-0.6-0.4-1.9-0.3
			C329.1,379.3,327.7,379.8,327.5,380.1L327.5,380.1z"/>
		<path class="st35" d="M465.8,422.3c-0.1,0-0.2,0-0.3-0.1c-3.4-3.3,1.6-13.4,1.8-13.9c0-0.1,0.1-0.2,0.2-0.2c0.1,0,0.2,0,0.3,0
			c0.1,0,0.2,0.1,0.2,0.2c0,0.1,0,0.2,0,0.3c-0.9,1.8-1.6,3.6-2.1,5.5c-0.8,2.6-1.4,6,0.2,7.5c0.1,0.1,0.1,0.2,0.1,0.3
			c0,0.1,0,0.2-0.1,0.3C466,422.2,465.9,422.3,465.8,422.3z"/>
		<path class="st2" d="M308.3,546.4c0,0,8.4-21.9,11.7-21.9c3.3,0,84.2,10.3,98.4,30.8c0,0,3.6,10-0.8,21.1
			C413.1,587.4,308.3,546.4,308.3,546.4z"/>
		<path class="st36" d="M952,195.3l-255.4-24.8l-33.3,340l255.4,24.8L952,195.3z"/>
		<path class="st37" d="M844.1,386.3c0,0-44.9,20.9-36.1,32.2c8.8,11.3,59.4-13.8,72.4-10.7c13,3.1,24.6-11.9,24.6-11.9l-20.6-16.3
			L844.1,386.3z"/>
		<path class="st33" d="M910.4,456.9c-0.1,0-0.2,0-0.2-0.1c-0.2-0.2-0.3-0.7-0.3-1.2c-0.1,0.3-0.3,0.6-0.6,0.8c-0.1,0-0.1,0-0.2,0
			s-0.1,0-0.2,0l0.1-0.1c0,0,0.1,0,0.1,0s0.1,0,0.1,0c0.3-0.1,0.6-0.9,0.6-1.2l0.1,0c0,0.4-0.1,1.3,0.2,1.5c0,0,0.1,0,0.1,0
			c0,0,0.1,0,0.1,0c0.5-0.2,0.3-1.5,0.2-2l0.1,0c0,0.1,0.5,1.9-0.3,2.2C910.5,456.9,910.4,456.9,910.4,456.9L910.4,456.9z"/>
		<path class="st33" d="M923.5,432.6l-0.1-0.1c0.4-0.3,1.4-1.2,1.1-1.7c0,0,0-0.1-0.1-0.1c0,0-0.1,0-0.1,0l0,0c-0.4,0-1,0.7-1.2,1.1
			l-0.1-0.1c0,0,0.4-0.9,0.3-1.3c0,0,0-0.1-0.1-0.1c0,0-0.1,0-0.1-0.1l0-0.1c0.1,0,0.1,0,0.2,0.1c0,0,0.1,0.1,0.1,0.1
			c0.1,0.3,0.1,0.6-0.1,0.9c0.3-0.3,0.7-0.7,1-0.7c0.1,0,0.1,0,0.2,0c0.1,0,0.1,0.1,0.1,0.1C925.1,431.4,923.6,432.5,923.5,432.6z"
			/>
		<path class="st34" d="M1074,552.8c-20.1,26-51.9,43.7-88,50.8c-7.4-19.2-16-40.3-25.1-57c-5.4-10-16.3-28.5-27.5-30.7
			c-18-3.6-39.3-28.5-50.8-42.9c-4.2-5.2,1.9-45.5,6-48.7c0,0,12.8,4.5,15,4.5c7.7-0.3-6.2-22.1-16.7-31.7
			c-12.6-11.6-33.1-7.5-52-4.6c0,0-5.1,0.8-5.4,0.8c-13.4,1.9-25.4,2.2-32.3-5.4c-0.6-0.7-1.2-1.5-1.8-2.3c-3-4.6,9.9-6.2,46.9-21
			c4.9-2,16.4-6,19.4-7c10.4-0.1,31.5,2.8,45.1,6.8c9.9,2.9,18.9,4,27.8,6.9c5.9,1.9,11.4,4.4,20.2,10.5c0.3,0.1,4.2,3,4.3,3.2
			c0,0,8.6,5.3,19.5,21.6C986,416.7,1022.8,480.5,1074,552.8z"/>
		<path class="st34" d="M959.2,384.9c0,0-39.7-26.8-69.1-32.7c-20.7-4.2-41.8,13-67.6,28.7c-10.7,6.5,66.6-9.9,66.6-9.9L959.2,384.9
			z"/>
		<path class="st35" d="M914,371c-0.1,0-0.2,0-0.3-0.1c-2.6-1.4-5.4-3-8.2-4.7c-8.6-5-17.4-10.1-23.7-10.6c-4-0.3-19.8,2.5-20,2.5
			c-0.1,0-0.2,0-0.2,0c-0.1,0-0.1,0-0.2-0.1c-0.1,0-0.1-0.1-0.2-0.2c0-0.1-0.1-0.1-0.1-0.2c0-0.1,0-0.2,0-0.2c0-0.1,0-0.1,0.1-0.2
			c0-0.1,0.1-0.1,0.2-0.2c0.1,0,0.1-0.1,0.2-0.1c0.7-0.1,16.1-2.9,20.3-2.5c6.5,0.5,15.5,5.8,24.2,10.8c2.9,1.7,5.6,3.2,8.2,4.7
			c0.1,0.1,0.2,0.2,0.3,0.3c0.1,0.1,0.1,0.3,0,0.4c0,0.1-0.1,0.2-0.2,0.3C914.3,371,914.2,371,914,371L914,371z"/>
		<path class="st38" d="M738.9,392.2l0.6-3c0.1-0.4,0.3-0.8,0.6-1.1c0.3-0.3,0.7-0.5,1.1-0.6l22.3-4.7c1.6-0.3,3.2-0.2,4.7,0.5
			c1.5,0.7,2.7,1.8,3.4,3.3c1.1,2.1,1.6,5.1,0.5,8.9c-1.4,4.9-3.3,7.5-5,9c-0.9,0.7-2,1.2-3.2,1.3c-1.2,0.1-2.3-0.1-3.4-0.7
			l-21-11.4c-0.3-0.1-0.5-0.3-0.6-0.6C738.9,392.8,738.9,392.5,738.9,392.2L738.9,392.2z"/>
		<path class="st39" d="M738.9,392.2c0,0-4.3-1.6-3.9-2.5c0.6-1.4,4.6-0.8,4.6-0.8L738.9,392.2z"/>
		<path class="st39" d="M980,454.1c-0.5,0-1-0.1-1.5-0.2l-73.3-18.1c-0.3-0.1-0.5-0.2-0.8-0.4c-0.2-0.2-0.4-0.4-0.6-0.6
			c-0.1-0.2-0.2-0.5-0.3-0.8c0-0.3,0-0.6,0-0.8s0.2-0.5,0.4-0.8c0.2-0.2,0.4-0.4,0.6-0.6c0.2-0.1,0.5-0.2,0.8-0.3c0.3,0,0.6,0,0.8,0
			l73.3,18.1c0.4,0.1,0.8,0.1,1.1-0.1c0.4-0.1,0.7-0.4,0.9-0.7l3.7-8c0.1-0.3,0.3-0.5,0.5-0.7c0.2-0.2,0.5-0.4,0.7-0.5
			c0.3-0.1,0.6-0.2,0.8-0.1c0.3,0,0.6,0.1,0.8,0.2c0.3,0.1,0.5,0.3,0.7,0.5c0.2,0.2,0.3,0.5,0.4,0.7c0.1,0.3,0.1,0.6,0.1,0.8
			c0,0.3-0.1,0.6-0.2,0.8l-3.7,8.1c0,0.1-0.1,0.1-0.1,0.2c-0.5,0.9-1.3,1.7-2.3,2.3C982.1,453.8,981.1,454.1,980,454.1L980,454.1z"
			/>
		<path class="st32" d="M766.8,382.6l231.3,38.6c2.3,0.5,5,7.8,2.5,15.6l-1.8,4.9c-0.5,2.2-3.1,3.9-4.2,3.8l-230.7-39.9L766.8,382.6
			z"/>
		<path class="st39" d="M991.3,425.7L991.3,425.7l-26.1-4.1c0,0-0.1,0-0.1,0c0,0-0.1-0.1-0.1-0.1c0,0,0-0.1-0.1-0.1c0,0,0-0.1,0-0.1
			c0,0,0-0.1,0-0.1c0,0,0.1-0.1,0.1-0.1c0,0,0.1,0,0.1,0c0,0,0.1,0,0.1,0l26,4.1c0.1,0,0.2,0.1,0.2,0.1c0.1,0.1,0.1,0.1,0.1,0.2
			s0,0.2-0.1,0.2C991.4,425.7,991.3,425.7,991.3,425.7L991.3,425.7z"/>
		<path class="st32" d="M766.8,382.6c0,0-14,10.4-3,23.1l8.4-6.5L766.8,382.6z"/>
		<path class="st39" d="M935.3,410.8c0,0-13.2,7.5-8,23.2l26.5,4.6c0,0-10.9-14.5,6.8-23.6L935.3,410.8z"/>
		<path class="st39" d="M994.7,445.8c-0.1,0-0.2,0-0.3,0c-1.4-0.2-2.4-1.7-3-4.2c-0.6-2.5-0.6-5.6-0.1-8.9c1-6.8,4.1-12,6.8-11.6
			c2.8,0.4,4.1,6.3,3.1,13.1h-0.1h0.1c-0.5,3.3-1.5,6.3-2.7,8.5C997.3,444.7,995.9,445.8,994.7,445.8z M997.7,421.3
			c-2.5,0-5.3,5-6.2,11.4c-0.5,3.2-0.4,6.3,0.1,8.8c0.6,2.4,1.5,3.8,2.8,4c1.2,0.2,2.6-0.9,3.8-3c1.2-2.1,2.2-5.1,2.7-8.4
			c1-6.7-0.3-12.4-2.9-12.8C997.9,421.3,997.8,421.3,997.7,421.3L997.7,421.3z"/>
		<path class="st39" d="M994.8,438.5l15,1.6c1.2,0.1,2.5-1.1,2.9-2.9l0.3-1.5c0.4-1.9-0.3-3.6-1.6-3.9l-14.5-3c0,0-2.7-0.1-3.3,4.3
			C993,437,994.8,438.5,994.8,438.5z"/>
		<path class="st34" d="M903.4,438.1c0,0-36.6-33.2-51-29.6c-14.4,3.6,6.9,33.8,30.2,64.5C905.9,503.6,926.4,450.8,903.4,438.1z"/>
		<path class="st34" d="M795.5,385.5c0,0,1.2,6.3,10.6,8.7c9.4,2.4,28.9-1.8,28.9-1.8L813.6,382L795.5,385.5z"/>
		<path class="st35" d="M859.5,430.2c-3.5,0-7.3-10.1-7.7-11.3c-0.1-0.3-0.1-0.5-0.1-0.8c0-0.3,0.1-0.5,0.3-0.8
			c1.1-2.2,5.6-4.5,7-4.8c0.2,0,0.8-0.2,3,1.3c3.1,2,7.5,6,7.9,8.1c0.1,0.7-0.2,1.6-0.9,2.6c-1.9,2.5-6.5,5.4-9.2,5.7L859.5,430.2z
			 M859,413.2L859,413.2c-1.2,0.3-5.6,2.5-6.5,4.4c-0.1,0.2-0.2,0.3-0.2,0.5c0,0.2,0,0.4,0.1,0.5l0,0c0.7,1.9,1.6,3.8,2.5,5.6
			c1.8,3.5,3.5,5.3,4.7,5.2c2.5-0.3,6.9-3,8.7-5.4c0.6-0.8,0.9-1.5,0.8-2.1c-0.3-1.7-4.2-5.4-7.6-7.6
			C859.8,413.3,859.2,413.2,859,413.2z"/>
		<path class="st35" d="M924.2,446.3L924.2,446.3c-18.5-2.3-33.4-18-33.6-18.1c-0.1-0.1-0.1-0.1-0.1-0.2s0-0.2,0-0.2
			c0-0.1,0-0.2,0-0.2c0-0.1,0.1-0.1,0.1-0.2c0.1-0.1,0.1-0.1,0.2-0.1c0.1,0,0.2,0,0.2,0c0.1,0,0.2,0,0.2,0.1c0.1,0,0.1,0.1,0.2,0.1
			c0.1,0.2,14.8,15.5,32.8,17.8c0.1,0,0.3,0.1,0.4,0.2c0.1,0.1,0.1,0.3,0.1,0.4c0,0.1-0.1,0.3-0.2,0.4
			C924.5,446.2,924.3,446.3,924.2,446.3L924.2,446.3z"/>
		<path class="st31" d="M850,214.2l-32.5-2.7l-0.3,3.1l32.5,2.7L850,214.2z"/>
		<path class="st31" d="M838.2,221.4l-21.4-1.8l-0.3,3.1l21.4,1.8L838.2,221.4z"/>
		<path class="st31" d="M860.4,223.2l-18.7-1.6l-0.3,3.1l18.7,1.6L860.4,223.2z"/>
		<path class="st31" d="M910.4,227.4l-18.7-1.6l-0.3,3.1l18.7,1.6L910.4,227.4z"/>
		<path class="st31" d="M888.2,225.5l-22.7-1.9l-0.3,3.1l22.7,1.9L888.2,225.5z"/>
		<path class="st31" d="M880.5,216.8l-26.5-2.2l-0.3,3.1l26.5,2.2L880.5,216.8z"/>
		<path class="st31" d="M911.2,219.3l-26.5-2.2l-0.3,3.1l26.5,2.2L911.2,219.3z"/>
		<path class="st31" d="M848.7,230.5l-32.5-2.7l-0.3,3.1l32.5,2.7L848.7,230.5z"/>
		<path class="st31" d="M840.6,236.2l-21.5-1.7l-0.3,3.1l21.5,1.7L840.6,236.2z"/>
		<path class="st31" d="M859,239.5l-18.7-1.6l-0.3,3.1l18.7,1.6L859,239.5z"/>
		<path class="st31" d="M877,241l-14.1-1.2l-0.3,3.1l14.1,1.2L877,241z"/>
		<path class="st31" d="M909.1,243.7l-29.3-2.4l-0.3,3.1l29.3,2.4L909.1,243.7z"/>
		<path class="st31" d="M879.1,233l-26.5-2.2l-0.3,3.1l26.5,2.2L879.1,233z"/>
		<path class="st31" d="M908.6,235.5l-26.5-2.2l-0.3,3.1l26.5,2.2L908.6,235.5z"/>
		<path class="st31" d="M909.7,235.6l-26.5-2.2l-0.3,3.1l26.5,2.2L909.7,235.6z"/>
		<path class="st31" d="M845.9,267.5l-32.5-2.7l-0.3,3.1l32.5,2.7L845.9,267.5z"/>
		<path class="st31" d="M837.9,273.4l-21.5-1.7l-0.3,3.1l21.5,1.7L837.9,273.4z"/>
		<path class="st31" d="M860.2,275.1l-18.8-1.5l-0.3,3.1l18.8,1.5L860.2,275.1z"/>
		<path class="st31" d="M910.4,279.2l-18.8-1.5l-0.3,3.1l18.8,1.5L910.4,279.2z"/>
		<path class="st31" d="M884,278.8l-22.7-1.9L861,280l22.7,1.9L884,278.8z"/>
		<path class="st31" d="M876.3,270l-26.5-2.2l-0.3,3.1l26.5,2.2L876.3,270z"/>
		<path class="st31" d="M907.1,272.6l-26.5-2.2l-0.3,3.1l26.5,2.2L907.1,272.6z"/>
		<path class="st31" d="M844.5,283.8l-32.5-2.7l-0.3,3.1l32.5,2.7L844.5,283.8z"/>
		<path class="st31" d="M832.7,290.9l-21.4-1.8l-0.3,3.1l21.4,1.8L832.7,290.9z"/>
		<path class="st31" d="M858.8,291.5L840,290l-0.3,3.1l18.8,1.5L858.8,291.5z"/>
		<path class="st31" d="M872.9,294.3l-14.1-1.2l-0.3,3.1l14.1,1.2L872.9,294.3z"/>
		<path class="st31" d="M904.9,297l-29.3-2.4l-0.3,3.1l29.3,2.4L904.9,297z"/>
		<path class="st31" d="M875,286.3l-26.5-2.2l-0.3,3.1l26.5,2.2L875,286.3z"/>
		<path class="st31" d="M904.4,288.8l-26.5-2.2l-0.3,3.1l26.5,2.2L904.4,288.8z"/>
		<path class="st31" d="M905.6,288.9l-26.5-2.2l-0.3,3.1l26.5,2.2L905.6,288.9z"/>
		<path class="st31" d="M786.7,305l-74-5.9l-0.3,3.1l74,5.9L786.7,305z"/>
		<path class="st31" d="M757,312l-48.5-4l-0.3,3.1l48.5,4L757,312z"/>
		<path class="st31" d="M807.2,316.2l-42.5-3.5l-0.3,3.1l42.5,3.5L807.2,316.2z"/>
		<path class="st31" d="M920.6,325.6l-42.5-3.5l-0.3,3.1l42.5,3.5L920.6,325.6z"/>
		<path class="st31" d="M870.3,321.4l-51.5-4.3l-0.3,3.1l51.5,4.3L870.3,321.4z"/>
		<path class="st31" d="M852,311.8l-60.1-5l-0.3,3.1l60.1,5L852,311.8z"/>
		<path class="st31" d="M921.6,317.6l-60.1-5l-0.3,3.1l60.1,5L921.6,317.6z"/>
		<path class="st31" d="M781.6,322.3l-73.7-6.1l-0.3,3.1l73.7,6.1L781.6,322.3z"/>
		<path class="st31" d="M755.6,328.3l-48.5-4l-0.3,3.1l48.5,4L755.6,328.3z"/>
		<path class="st31" d="M805.8,332.5l-42.5-3.5l-0.3,3.1l42.5,3.5L805.8,332.5z"/>
		<path class="st31" d="M846.7,335.9l-31.9-2.7l-0.3,3.1l31.9,2.7L846.7,335.9z"/>
		<path class="st31" d="M919.3,341.9l-66.3-5.5l-0.3,3.1l66.3,5.5L919.3,341.9z"/>
		<path class="st31" d="M850.6,328.1l-60.1-5l-0.3,3.1l60.1,5L850.6,328.1z"/>
		<path class="st31" d="M917.4,333.6l-60.1-5l-0.3,3.1l60.1,5L917.4,333.6z"/>
		<path class="st31" d="M919.9,333.8l-60.1-5l-0.3,3.1l60.1,5L919.9,333.8z"/>
		<path class="st26" d="M774.7,264.3c0.1,0.1,0.1,0.2,0.2,0.3s0.1,0.2,0,0.4c0,0.1,0,0.2-0.1,0.3c-0.1,0.1-0.1,0.2-0.2,0.3
			c-6,4.5-13.4,7-20.9,7c-19.2,0-36.6-13-36.6-32.1s13-39.2,36.6-37c5.1,0.4,10.2,1.8,14.8,4c0.4,0.2,0.7,0.5,1,0.8
			c0.3,0.3,0.5,0.7,0.6,1.1c0.1,0.4,0.1,0.8,0.1,1.3c-0.1,0.4-0.2,0.8-0.5,1.2L752,238.7c-0.1,0.2-0.2,0.4-0.1,0.5
			c0,0.2,0.1,0.4,0.2,0.5L774.7,264.3z"/>
		<path class="st32" d="M790.3,233.5l-21.2,1.3c-1,0.1-1.9-0.1-2.7-0.6c-0.8-0.4-1.5-1.1-2-1.9c-0.5-0.8-0.7-1.8-0.7-2.7
			c0-0.9,0.3-1.9,0.8-2.7l11.4-17.3c0.4-0.6,0.9-1.1,1.5-1.5c0.6-0.4,1.3-0.6,2-0.7c0.7-0.1,1.4-0.1,2.1,0.1c0.7,0.2,1.3,0.5,1.9,1
			c5.8,4.8,10,11.3,11.6,18.9c0.1,0.7,0.1,1.4,0,2.1c-0.2,0.7-0.5,1.4-0.9,1.9c-0.4,0.6-1,1-1.7,1.4
			C791.7,233.2,791,233.4,790.3,233.5L790.3,233.5z"/>
		<path class="st31" d="M795.6,238c0,5-1.1,10-3.2,14.6c-2.1,4.6-5.3,8.6-9.1,11.9c-0.2,0.1-0.4,0.2-0.6,0.2c-0.2,0-0.4-0.1-0.6-0.3
			l-18.9-20.4c-0.4-0.4-0.6-0.9-0.7-1.5c-0.1-0.6,0-1.1,0.2-1.6c0.2-0.5,0.6-1,1-1.3c0.5-0.3,1-0.5,1.6-0.6l29.6-1.8
			c0.1,0,0.2,0,0.4,0.1c0.1,0,0.2,0.1,0.3,0.2c0.1,0.1,0.2,0.2,0.2,0.3C795.6,237.7,795.6,237.8,795.6,238L795.6,238z"/>
		<path class="st26" d="M750.7,490.9c0.1,0.1,0.1,0.2,0.2,0.3c0,0.1,0,0.2,0,0.3c0,0.1,0,0.2-0.1,0.3c-0.1,0.1-0.1,0.2-0.2,0.2
			c-5.4,4-11.9,6.2-18.6,6.2c-17.1,0-32.5-11.6-32.5-28.5s11.6-34.8,32.5-33c4.6,0.4,9,1.6,13.2,3.6c0.3,0.2,0.6,0.4,0.9,0.7
			c0.2,0.3,0.4,0.6,0.5,1c0.1,0.4,0.1,0.8,0.1,1.1c-0.1,0.4-0.2,0.7-0.4,1.1l-15.8,23.9c-0.1,0.1-0.1,0.3-0.1,0.5
			c0,0.2,0.1,0.3,0.2,0.5L750.7,490.9z"/>
		<path class="st32" d="M764.5,463.5l-18.9,1.2c-0.8,0.1-1.7-0.1-2.4-0.5c-0.7-0.4-1.4-1-1.8-1.7c-0.4-0.7-0.6-1.6-0.6-2.4
			c0-0.8,0.3-1.7,0.7-2.4l10.1-15.4c0.4-0.5,0.8-1,1.4-1.3c0.5-0.3,1.2-0.6,1.8-0.7c0.6-0.1,1.3-0.1,1.9,0.1
			c0.6,0.2,1.2,0.5,1.7,0.9c5.3,4.3,8.9,10.2,10.3,16.9c0.1,0.6,0.1,1.3,0,1.9c-0.2,0.6-0.4,1.2-0.8,1.7c-0.4,0.5-0.9,0.9-1.5,1.2
			C765.8,463.3,765.2,463.4,764.5,463.5L764.5,463.5z"/>
		<path class="st31" d="M769.3,467.5c0,4.5-1,8.9-2.9,13c-1.9,4.1-4.7,7.7-8.1,10.6c-0.2,0.1-0.4,0.2-0.6,0.2
			c-0.2,0-0.4-0.1-0.5-0.3l-16.8-18.2c-0.3-0.4-0.6-0.8-0.7-1.3c-0.1-0.5,0-1,0.1-1.5c0.2-0.5,0.5-0.9,0.9-1.2
			c0.4-0.3,0.9-0.5,1.4-0.5l26.3-1.6c0.1,0,0.2,0,0.3,0c0.1,0,0.2,0.1,0.3,0.2c0.1,0.1,0.1,0.2,0.2,0.3
			C769.3,467.3,769.3,467.4,769.3,467.5z"/>
		<path class="st26" d="M791.9,476.2c0-17,11.6-34.8,32.5-32.9c4.6,0.4,9,1.6,13.2,3.6c0.3,0.2,0.6,0.4,0.9,0.7
			c0.2,0.3,0.4,0.6,0.5,1c0.1,0.4,0.1,0.8,0.1,1.1c-0.1,0.4-0.2,0.7-0.4,1.1l-15.7,23.9C822.7,475,791.9,477.4,791.9,476.2z"/>
		<path class="st32" d="M852.3,474.5l-18.9,1.2c-0.8,0.1-1.7-0.1-2.4-0.5c-0.7-0.4-1.4-1-1.8-1.7c-0.4-0.7-0.6-1.6-0.6-2.4
			c0-0.8,0.3-1.7,0.7-2.4l10.1-15.4c0.4-0.5,0.8-1,1.4-1.3c0.5-0.3,1.2-0.6,1.8-0.7c0.6-0.1,1.3-0.1,1.9,0.1
			c0.6,0.2,1.2,0.5,1.7,0.9c5.3,4.3,8.9,10.2,10.3,16.9c0.1,0.6,0.1,1.3,0,1.9c-0.2,0.6-0.4,1.2-0.8,1.7c-0.4,0.5-0.9,0.9-1.5,1.2
			C853.5,474.3,852.9,474.4,852.3,474.5z"/>
		<path class="st31" d="M843.1,500.2c-5.4,4-11.9,6.2-18.6,6.2c-14.8,0-28.4-8.7-31.7-22.1c-0.1-0.4-0.1-0.8,0-1.2
			c0.1-0.4,0.2-0.8,0.5-1.1c0.2-0.3,0.5-0.6,0.9-0.8c0.3-0.2,0.7-0.3,1.1-0.4l26.4-3.3c0.5-0.1,0.9,0,1.4,0.2
			c0.4,0.2,0.8,0.4,1.1,0.8l19.1,20.7c0.1,0.1,0.1,0.2,0.2,0.3c0,0.1,0,0.2,0,0.3c0,0.1,0,0.2-0.1,0.3
			C843.3,500,843.2,500.1,843.1,500.2L843.1,500.2z"/>
		<path class="st40" d="M843.4,494.2l-10.9-11.8c-0.4-0.4-0.7-1-0.8-1.5c-0.1-0.6,0-1.2,0.2-1.7s0.6-1,1.1-1.3
			c0.5-0.3,1.1-0.5,1.6-0.5l16.5,0.2c0.4,0,0.8,0.1,1.2,0.3c0.4,0.2,0.7,0.4,1,0.7c0.3,0.3,0.5,0.6,0.6,1c0.1,0.4,0.2,0.8,0.2,1.2
			c-0.2,3.3-1.4,8.6-6.5,13.5c-0.3,0.3-0.6,0.5-1,0.6c-0.4,0.1-0.8,0.2-1.2,0.2c-0.4,0-0.8-0.1-1.1-0.3
			C844,494.7,843.6,494.5,843.4,494.2z"/>
		<path class="st39" d="M707.3,355.8c7.6-0.5,15.4,0.4,23.1,0.9c8,0.5,16,1.2,23.9,2.5c1.3,0.2,1.9-1.8,0.6-2
			c-7.8-1.3-15.8-2-23.7-2.5c-7.9-0.5-16-1.5-23.9-1C706,353.8,706,355.9,707.3,355.8L707.3,355.8z"/>
		<path class="st39" d="M708.6,362.6c5.6-0.2,11.2,0.7,16.8,1.5l17.1,2.2c1.3,0.2,1.3-1.9,0-2.1l-17.1-2.2
			c-5.6-0.7-11.2-1.7-16.8-1.5C707.3,360.6,707.3,362.7,708.6,362.6L708.6,362.6z"/>
		<path class="st39" d="M708.2,369.1c2.9,0.1,5.7,0.4,8.5,1c1.3,0.3,1.9-1.7,0.6-2c-3-0.6-6-1-9.1-1.1
			C706.9,367,706.9,369.1,708.2,369.1L708.2,369.1z"/>
		<path class="st2" d="M1011,457.6c-5,2.9-18.4,33.3-40.1,45c-21.7,11.7-35.1,18.3-21.3,37c13.8,18.7,82-51.6,82-51.6l0.8-2.9
			C1031.9,482.5,1016,454.7,1011,457.6z"/>
		<path class="st39" d="M951.8,526.7c0-0.5,0.1-0.9,0.4-1.3c0.3-0.4,0.6-0.7,1-0.8s0.9-0.2,1.3-0.1c0.4,0.1,0.9,0.3,1.2,0.6
			c0.3,0.3,0.5,0.7,0.6,1.2c0.1,0.4,0,0.9-0.1,1.3c-0.2,0.4-0.5,0.8-0.8,1c-0.4,0.3-0.8,0.4-1.3,0.4c-0.6,0-1.2-0.2-1.6-0.7
			C952.1,527.8,951.8,527.3,951.8,526.7L951.8,526.7z"/>
		<path class="st32" d="M963.2,371.5c-1.7-0.2-3.4-0.9-4.7-1.9c-1.4-1.1-2.4-2.5-3.1-4.1c-0.6-1.6-0.8-3.4-0.5-5.1
			c0.3-1.7,1-3.3,2.2-4.6l11.6-13.5c0.2-0.2,0.4-0.3,0.7-0.4c0.3,0,0.5,0.1,0.8,0.2c0.2,0.2,0.3,0.4,0.4,0.7c0,0.3-0.1,0.5-0.2,0.8
			l-11.6,13.5c-1.3,1.5-1.9,3.5-1.8,5.4c0.2,2,1.1,3.8,2.6,5.1c1.5,1.3,3.5,1.9,5.5,1.8c2-0.2,3.9-1.1,5.2-2.6l23.3-27.2
			c0.7-0.9,1.1-2,1-3.1c-0.1-1.1-0.6-2.2-1.5-2.9l-1.1-0.9c-1-0.8-2.3-1.2-3.6-1.2c-1.3,0-2.5,0.5-3.2,1.3l-16.2,19
			c-0.2,0.2-0.4,0.3-0.7,0.4c-0.3,0-0.5-0.1-0.8-0.2c-0.2-0.2-0.3-0.4-0.4-0.7c0-0.3,0.1-0.5,0.2-0.8l16.2-19c1.1-1.3,2.8-2,4.8-2
			c1.8,0,3.5,0.6,4.9,1.7l1.1,0.9c1.3,1.1,2.1,2.7,2.2,4.4c0.1,1.7-0.4,3.4-1.5,4.7l-23.3,27.2c-1,1.2-2.4,2.2-3.9,2.7
			C966.4,371.5,964.8,371.7,963.2,371.5z"/>
		<path class="st31" d="M1028.5,313.3c-0.5,1.6-1.5,3.1-2.8,4.3c-1.3,1.1-2.9,1.9-4.6,2.2c-1.7,0.3-3.5,0.2-5.1-0.4
			c-1.6-0.6-3.1-1.6-4.1-3l-11.1-13.9c-0.2-0.2-0.2-0.5-0.2-0.8c0-0.3,0.2-0.5,0.4-0.7c0.2-0.2,0.5-0.2,0.8-0.2
			c0.3,0,0.5,0.2,0.7,0.4l11.1,13.9c1.2,1.5,3,2.5,5,2.8c2,0.2,4-0.3,5.5-1.6c1.6-1.3,2.6-3.1,2.8-5.1c0.2-2-0.3-4-1.6-5.6
			l-22.4-27.9c-0.7-0.9-1.8-1.5-2.9-1.6c-1.1-0.1-2.3,0.2-3.2,0.9l-1.1,0.9c-1,0.8-1.7,2-1.9,3.3c-0.3,1.3,0,2.5,0.6,3.4l15.6,19.5
			c0.1,0.1,0.2,0.2,0.2,0.4c0,0.1,0,0.3,0,0.4c0,0.1-0.1,0.3-0.1,0.4c-0.1,0.1-0.2,0.2-0.3,0.3c-0.1,0.1-0.2,0.1-0.4,0.2
			c-0.1,0-0.3,0-0.4,0c-0.1,0-0.3-0.1-0.4-0.1c-0.1-0.1-0.2-0.2-0.3-0.3l-15.6-19.5c-1-1.3-1.4-3.2-1-5.1c0.3-1.8,1.3-3.3,2.6-4.5
			l1.1-0.9c1.3-1.1,3-1.5,4.7-1.4c1.7,0.2,3.2,1,4.3,2.4l22.4,27.9c1,1.2,1.7,2.7,2,4.3C1029.1,310.1,1029,311.8,1028.5,313.3z"/>
		<path class="st39" d="M420.6,657.4c1.9-22.4,4.1-81.4,1.2-86.3c-5.9-10-100.4-34.1-111.2-31.6c-8.2,1.9-32.1,96.8-37.3,117.9h1.2
			L420.6,657.4z"/>
		<path class="st39" d="M1189,627.8c-16.6-17.5-37.6-39.2-51.8-58.2c-22.6-27.3-101.5-94.7-109-93.3l-0.3,0.1
			c-1.5,0.4-2.8,0.9-4.1,1.7c-13.2,7.6-31.3,35.9-50.8,44.8c-8.3,3.8-14.6,7.9-18.7,12.5c-1.5,1.6-2.7,3.4-3.7,5.3
			c-3.1,6.1-2.9,13.1,0.7,21.3c2.8,6.4,30.3,64.1,44.6,95.3H1189L1189,627.8z"/>
	</g>
</g>
</svg>
