<?xml version="1.0" encoding="utf-8"?>
<!-- Generator: Adobe Illustrator 26.0.2, SVG Export Plug-In . SVG Version: 6.00 Build 0)  -->
<svg version="1.1" id="Layer_1" xmlns="http://www.w3.org/2000/svg" xmlns:xlink="http://www.w3.org/1999/xlink" x="0px" y="0px"
	 viewBox="0 0 49.4 56.4" style="enable-background:new 0 0 49.4 56.4;" xml:space="preserve">
<style type="text/css">
	.st0{opacity:0.15;}
	.st1{fill:#FFFFFF;}
	.st2{fill:#1CB9A9;}
	.st3{fill:#F49158;}
</style>
<g>
	<path class="st3" d="M24.7,47.5c2.5,0,4.5-1.8,4.5-4s-2-4-4.5-4s-4.5,1.8-4.5,4S22.2,47.5,24.7,47.5z"/>
	<path class="st3" d="M29.2,29c0-0.9-0.3-1.8-0.8-2.5s-1.2-1.3-2-1.7c-0.8-0.3-1.7-0.4-2.6-0.3c-0.9,0.2-1.7,0.6-2.3,1.2
		s-1.1,1.4-1.2,2.3c-0.2,0.9-0.1,1.8,0.3,2.6c0.3,0.8,0.9,1.5,1.7,2c0.7,0.5,1.6,0.8,2.5,0.8c1.2,0,2.3-0.5,3.2-1.3
		C28.7,31.3,29.2,30.2,29.2,29L29.2,29z"/>
	<path class="st3" d="M29.2,14c0-0.9-0.3-1.8-0.8-2.5s-1.2-1.3-2-1.7c-0.8-0.3-1.7-0.4-2.6-0.3c-0.9,0.2-1.7,0.6-2.3,1.2
		c-0.6,0.6-1.1,1.4-1.2,2.3c-0.2,0.9-0.1,1.8,0.3,2.6c0.3,0.8,0.9,1.5,1.7,2c0.7,0.5,1.6,0.8,2.5,0.8c0.6,0,1.2-0.1,1.7-0.3
		s1-0.6,1.5-1c0.4-0.4,0.7-0.9,1-1.5C29.1,15.2,29.2,14.6,29.2,14L29.2,14z"/>
</g>
</svg>
