<?xml version="1.0" encoding="utf-8"?>
<!-- Generator: Adobe Illustrator 26.0.2, SVG Export Plug-In . SVG Version: 6.00 Build 0)  -->
<svg version="1.1" id="Layer_1" xmlns="http://www.w3.org/2000/svg" xmlns:xlink="http://www.w3.org/1999/xlink" x="0px" y="0px"
	 viewBox="0 0 256.1 185.5" style="enable-background:new 0 0 256.1 185.5;" xml:space="preserve">
<style type="text/css">
	.st0{opacity:0.15;}
	.st1{fill:#FFFFFF;}
	.st2{fill:#1CB9A9;}
	.st3{fill:#F49158;}
</style>
<g>
	<path class="st3" d="M244.2,52.5h-3.7c0,28.2-11.1,55.2-31,75.2c-19.8,19.9-46.8,31.1-74.8,31.1c-28.1,0-55-11.2-74.8-31.1
		s-31-47-31-75.2h-3.7c0,29.2,11.5,57.2,32.1,77.8c20.5,20.6,48.4,32.2,77.4,32.2s56.9-11.6,77.4-32.2
		C232.7,109.7,244.2,81.7,244.2,52.5L244.2,52.5z"/>
	<path class="st3" d="M35.2,47c0,1.5-0.5,2.9-1.3,4.2c-0.9,1.2-2.1,2.2-3.6,2.8s-3.1,0.7-4.6,0.4c-1.6-0.3-3-1-4.1-2.1
		s-1.9-2.4-2.2-3.8c-0.3-1.5-0.1-3,0.5-4.3c0.6-1.4,1.6-2.5,3-3.4c1.3-0.8,2.9-1.3,4.5-1.3c2.1,0,4.1,0.8,5.6,2.2
		C34.4,43.1,35.2,45,35.2,47L35.2,47z M31.4,47c0-0.8-0.2-1.5-0.7-2.2c-0.5-0.6-1.1-1.1-1.9-1.4s-1.6-0.4-2.4-0.2
		c-0.8,0.2-1.6,0.5-2.1,1.1c-0.6,0.5-1,1.2-1.1,2c-0.2,0.8-0.1,1.5,0.2,2.3c0.3,0.7,0.9,1.3,1.5,1.7c0.7,0.4,1.5,0.7,2.3,0.6
		c1.1,0,2.2-0.4,2.9-1.2C30.9,49,31.4,48,31.4,47z"/>
</g>
</svg>
