<svg width="1539" height="516" viewBox="0 0 1539 516" fill="none" xmlns="http://www.w3.org/2000/svg">
<path d="M801.644 370.623H484.553C454.62 370.623 430.267 346.276 430.267 316.354V54.2688C430.255 43.5721 426 33.3169 418.434 25.7532C410.869 18.1894 400.611 13.9351 389.911 13.9236H-3V0H389.911C419.844 0 444.194 24.3437 444.194 54.2688V316.354C444.208 327.05 448.465 337.304 456.031 344.867C463.597 352.429 473.854 356.683 484.553 356.696H801.644V370.623Z" fill="#16A798"/>
<path d="M829.806 386.286H802.056C798.874 386.286 795.823 385.023 793.573 382.774C791.323 380.525 790.06 377.474 790.06 374.294V353.025C790.057 351.289 790.433 349.574 791.161 347.998C791.889 346.423 792.951 345.024 794.274 343.9C796.44 342.046 799.2 341.028 802.052 341.032H829.803L829.806 386.286Z" fill="#1FC7B6"/>
<path d="M894.499 409.927H839.065C834.953 409.926 831.011 408.293 828.104 405.386C825.197 402.48 823.564 398.538 823.564 394.428V332.891C823.565 328.781 825.199 324.84 828.105 321.934C831.012 319.028 834.954 317.395 839.065 317.395H894.499V409.927Z" fill="#1FC7B6"/>
<path d="M894.495 311.883V415.435C894.495 416.559 895.406 417.47 896.53 417.47H904.664C905.788 417.47 906.699 416.559 906.699 415.435V311.883C906.699 310.76 905.788 309.849 904.664 309.849H896.53C895.406 309.849 894.495 310.76 894.495 311.883Z" fill="#16A798"/>
<path d="M906.702 349.78V334.009H944.427C945.463 334.009 946.489 334.213 947.445 334.609C948.402 335.006 949.272 335.587 950.004 336.319C950.736 337.051 951.317 337.921 951.713 338.878C952.109 339.835 952.313 340.86 952.313 341.896C952.313 343.987 951.482 345.992 950.003 347.47C948.524 348.949 946.518 349.78 944.427 349.78H906.702Z" fill="#1FC7B6"/>
<path d="M952.315 385.433C952.315 387.524 951.485 389.529 950.006 391.008C948.527 392.486 946.521 393.317 944.43 393.317H906.705V377.546H944.416C946.508 377.546 948.514 378.377 949.992 379.855C951.471 381.333 952.302 383.339 952.302 385.43L952.315 385.433Z" fill="#1FC7B6"/>
<path d="M894.495 409.924V317.391H890.027V409.924H894.495Z" fill="#129E90"/>
<path d="M871.069 409.927H839.065C834.953 409.926 831.011 408.293 828.104 405.386C825.197 402.48 823.564 398.538 823.564 394.428V351.228C823.564 394.853 871.069 409.927 871.069 409.927Z" fill="#16A798"/>
<path d="M823.564 386.286V341.036H820.666V386.286H823.564Z" fill="#129E90"/>
<path d="M912.221 349.773V334.002H906.698V349.773H912.221Z" fill="#129E90"/>
<path d="M912.225 393.314V377.543H906.702V393.314H912.225Z" fill="#129E90"/>
<path d="M823.564 386.286H802.056C798.874 386.286 795.823 385.023 793.573 382.774C791.323 380.525 790.06 377.474 790.06 374.293V353.025C790.057 351.289 790.433 349.574 791.161 347.998C791.889 346.422 792.951 345.024 794.274 343.9C790.207 377.051 823.56 382.114 823.56 382.114L823.564 386.286Z" fill="#16A798"/>
<path d="M1539 829H1525.07V410.968C1525.06 400.271 1520.81 390.016 1513.24 382.452C1505.67 374.889 1495.42 370.634 1484.72 370.623H1181.22V356.696H1484.72C1514.65 356.696 1539 381.043 1539 410.968V829Z" fill="#16A798"/>
<path d="M1150.8 386.286H1178.55C1181.73 386.286 1184.78 385.023 1187.03 382.774C1189.28 380.525 1190.55 377.474 1190.55 374.294V353.025C1190.55 351.289 1190.17 349.574 1189.45 347.998C1188.72 346.423 1187.66 345.024 1186.33 343.9V343.9C1184.17 342.046 1181.41 341.028 1178.55 341.032H1150.8L1150.8 386.286Z" fill="#1FC7B6"/>
<path d="M1086.11 409.927H1141.54C1145.65 409.926 1149.6 408.293 1152.5 405.386C1155.41 402.48 1157.04 398.538 1157.04 394.428V332.891C1157.04 328.781 1155.41 324.84 1152.5 321.934C1149.59 319.028 1145.65 317.395 1141.54 317.395H1086.11V409.927Z" fill="#1FC7B6"/>
<path d="M1073.9 311.883V415.435C1073.9 416.559 1074.82 417.47 1075.94 417.47H1084.07C1085.2 417.47 1086.11 416.559 1086.11 415.435V311.883C1086.11 310.76 1085.2 309.849 1084.07 309.849H1075.94C1074.82 309.849 1073.9 310.76 1073.9 311.883Z" fill="#16A798"/>
<path d="M1090.58 409.927V317.395H1086.11V409.927H1090.58Z" fill="#129E90"/>
<path d="M1109.54 409.927H1141.54C1145.65 409.926 1149.6 408.293 1152.5 405.386C1155.41 402.48 1157.04 398.538 1157.04 394.428V351.228C1157.04 394.853 1109.54 409.927 1109.54 409.927Z" fill="#16A798"/>
<path d="M1159.94 386.283V341.032H1157.04V386.283H1159.94Z" fill="#129E90"/>
<path d="M1157.04 386.286H1178.55C1181.73 386.286 1184.78 385.023 1187.03 382.774C1189.28 380.525 1190.55 377.474 1190.55 374.293V353.025C1190.55 351.289 1190.17 349.574 1189.45 347.998C1188.72 346.422 1187.66 345.024 1186.33 343.9V343.9C1190.4 377.051 1157.05 382.114 1157.05 382.114L1157.04 386.286Z" fill="#16A798"/>
</svg>
